<?xml version="1.0" encoding="utf-8"?>
<!-- Generator: Adobe Illustrator 22.1.0, SVG Export Plug-In . SVG Version: 6.00 Build 0)  -->
<svg version="1.1" id="Layer_1" xmlns="http://www.w3.org/2000/svg" xmlns:xlink="http://www.w3.org/1999/xlink" x="0px" y="0px"
	 viewBox="0 0 40 40" style="enable-background:new 0 0 40 40;" xml:space="preserve">
<style type="text/css">
	.st0{fill:#098850;}
</style>
<path id="Path_3010_2_" class="st0" d="M35.7,40c2.4,0,4.3-1.9,4.3-4.3V4.3C40,1.9,38.1,0,35.7,0c0,0,0,0,0,0H4.3C1.9,0,0,1.9,0,4.3
	v0v31.4C0,38.1,1.9,40,4.3,40c0,0,0,0,0,0H35.7z M17.4,31.3c-0.6,0.6-1.5,0.6-2,0c0,0,0,0,0,0L6.1,22c-0.6-0.6-0.6-1.5,0-2
	c0,0,0,0,0,0l2-2c0.6-0.6,1.5-0.6,2,0l6.2,6.3l13.4-13.4c0.6-0.6,1.5-0.6,2,0l2,2c0.6,0.6,0.6,1.5,0,2c0,0,0,0,0,0L17.4,31.3z"/>
</svg>
