<?xml version="1.0" encoding="utf-8"?>
<!-- Generator: Adobe Illustrator 22.1.0, SVG Export Plug-In . SVG Version: 6.00 Build 0)  -->
<svg version="1.1" id="Layer_1" xmlns="http://www.w3.org/2000/svg" xmlns:xlink="http://www.w3.org/1999/xlink" x="0px" y="0px"
	 viewBox="0 0 35 35" style="enable-background:new 0 0 35 35;" xml:space="preserve">
<style type="text/css">
	.st0{fill:#098850;}
</style>
<path id="Path_3010_1_" class="st0" d="M31.3,35c2.1,0,3.7-1.7,3.7-3.7V3.7C35,1.7,33.3,0,31.3,0c0,0,0,0,0,0H3.7C1.7,0,0,1.7,0,3.7
	v0v27.5C0,33.3,1.7,35,3.7,35c0,0,0,0,0,0H31.3z M15.3,27.3c-0.5,0.5-1.3,0.5-1.8,0c0,0,0,0,0,0l-8.1-8.1c-0.5-0.5-0.5-1.3,0-1.8
	c0,0,0,0,0,0l1.8-1.8c0.5-0.5,1.3-0.5,1.8,0l5.5,5.5L26.1,9.4c0.5-0.5,1.3-0.5,1.8,0l1.8,1.8c0.5,0.5,0.5,1.3,0,1.8c0,0,0,0,0,0
	L15.3,27.3z"/>
</svg>
