<?xml version="1.0" encoding="utf-8"?>
<!-- Generator: Adobe Illustrator 22.1.0, SVG Export Plug-In . SVG Version: 6.00 Build 0)  -->
<svg version="1.1" id="Layer_1" xmlns="http://www.w3.org/2000/svg" xmlns:xlink="http://www.w3.org/1999/xlink" x="0px" y="0px"
	 viewBox="0 0 30 30" style="enable-background:new 0 0 30 30;" xml:space="preserve">
<style type="text/css">
	.st0{fill:#098850;}
</style>
<path id="Path_3010" class="st0" d="M26.8,30c1.8,0,3.2-1.4,3.2-3.2V3.2C30,1.4,28.6,0,26.8,0c0,0,0,0,0,0H3.2C1.4,0,0,1.4,0,3.2v0
	v23.6C0,28.6,1.4,30,3.2,30c0,0,0,0,0,0H26.8z M13.1,23.4c-0.4,0.4-1.1,0.4-1.5,0c0,0,0,0,0,0l-7-7c-0.4-0.4-0.4-1.1,0-1.5
	c0,0,0,0,0,0l1.5-1.5c0.4-0.4,1.1-0.4,1.5,0l4.7,4.7l10.1-10c0.4-0.4,1.1-0.4,1.5,0l1.5,1.5c0.4,0.4,0.4,1.1,0,1.5c0,0,0,0,0,0
	L13.1,23.4z"/>
</svg>
