<?xml version="1.0" encoding="utf-8"?>
<!-- Generator: Adobe Illustrator 22.1.0, SVG Export Plug-In . SVG Version: 6.00 Build 0)  -->
<svg version="1.1" id="Layer_1" xmlns="http://www.w3.org/2000/svg" xmlns:xlink="http://www.w3.org/1999/xlink" x="0px" y="0px"
	 viewBox="0 0 40 40" style="enable-background:new 0 0 40 40;" xml:space="preserve">
<style type="text/css">
	.st0{fill:#098850;}
</style>
<path id="Path_13516_1_" class="st0" d="M40,20C40,9,31,0,20,0S0,9,0,20s9,20,20,20S40,31,40,20z M17.7,30.6c-0.5,0.5-1.3,0.5-1.8,0
	c0,0,0,0,0,0l-8.4-8.4c-0.5-0.5-0.5-1.3,0-1.8c0,0,0,0,0,0l1.8-1.8c0.5-0.5,1.3-0.5,1.8,0c0,0,0,0,0,0l5.6,5.6l12.1-12.1
	c0.5-0.5,1.3-0.5,1.8,0c0,0,0,0,0,0l1.8,1.8c0.5,0.5,0.5,1.3,0,1.8c0,0,0,0,0,0L17.7,30.6z"/>
</svg>
