<?xml version="1.0" encoding="utf-8"?>
<!-- Generator: Adobe Illustrator 22.1.0, SVG Export Plug-In . SVG Version: 6.00 Build 0)  -->
<svg version="1.1" id="Layer_1" xmlns="http://www.w3.org/2000/svg" xmlns:xlink="http://www.w3.org/1999/xlink" x="0px" y="0px"
	 viewBox="0 0 30 30" style="enable-background:new 0 0 30 30;" xml:space="preserve">
<style type="text/css">
	.st0{fill:#098850;}
</style>
<path id="Path_13516" class="st0" d="M30,15c0-8.3-6.7-15-15-15S0,6.7,0,15s6.7,15,15,15S30,23.3,30,15z M13.3,22.9
	c-0.4,0.4-1,0.4-1.4,0c0,0,0,0,0,0l-6.3-6.3c-0.4-0.4-0.4-1,0-1.4c0,0,0,0,0,0L7,13.9c0.4-0.4,1-0.4,1.4,0c0,0,0,0,0,0l4.2,4.2
	l9.1-9.1c0.4-0.4,1-0.4,1.4,0c0,0,0,0,0,0l1.4,1.4c0.4,0.4,0.4,1,0,1.4c0,0,0,0,0,0L13.3,22.9z"/>
</svg>
