<?xml version="1.0" encoding="utf-8"?>
<!-- Generator: Adobe Illustrator 22.1.0, SVG Export Plug-In . SVG Version: 6.00 Build 0)  -->
<svg version="1.1" id="Layer_1" xmlns="http://www.w3.org/2000/svg" xmlns:xlink="http://www.w3.org/1999/xlink" x="0px" y="0px"
	 viewBox="0 0 35 35" style="enable-background:new 0 0 35 35;" xml:space="preserve">
<style type="text/css">
	.st0{fill:#098850;}
</style>
<path id="Path_13516_2_" class="st0" d="M35,17.5C35,7.8,27.2,0,17.5,0S0,7.8,0,17.5S7.8,35,17.5,35S35,27.2,35,17.5z M15.5,26.8
	c-0.4,0.4-1.2,0.4-1.6,0c0,0,0,0,0,0l-7.3-7.3c-0.4-0.4-0.4-1.2,0-1.6c0,0,0,0,0,0l1.6-1.6c0.4-0.4,1.2-0.4,1.6,0c0,0,0,0,0,0
	l4.9,4.9l10.6-10.6c0.4-0.4,1.2-0.4,1.6,0c0,0,0,0,0,0l1.6,1.6c0.4,0.4,0.4,1.2,0,1.6c0,0,0,0,0,0L15.5,26.8z"/>
</svg>
