<?xml version="1.0" encoding="utf-8"?>
<!-- Generator: Adobe Illustrator 22.1.0, SVG Export Plug-In . SVG Version: 6.00 Build 0)  -->
<svg version="1.1" id="Layer_1" xmlns="http://www.w3.org/2000/svg" xmlns:xlink="http://www.w3.org/1999/xlink" x="0px" y="0px"
	 viewBox="0 0 40 40" style="enable-background:new 0 0 40 40;" xml:space="preserve">
<style type="text/css">
	.st0{fill:#FFFFFF;}
	.st1{fill:#8F8F8F;}
</style>
<g id="Path_13516">
	<path class="st0" d="M32.5,39.4h-25c-3.8,0-6.9-3.1-6.9-6.9v-25c0-3.8,3.1-6.9,6.9-6.9h25c3.8,0,6.9,3.1,6.9,6.9v25
		C39.4,36.3,36.3,39.4,32.5,39.4z"/>
	<path class="st1" d="M7.5,1.3c-3.4,0-6.3,2.8-6.3,6.3v25c0,3.4,2.8,6.3,6.3,6.3h25c3.4,0,6.3-2.8,6.3-6.3v-25
		c0-3.4-2.8-6.3-6.3-6.3H7.5 M7.5,0h25C36.6,0,40,3.4,40,7.5v25c0,4.1-3.4,7.5-7.5,7.5h-25C3.4,40,0,36.6,0,32.5v-25
		C0,3.4,3.4,0,7.5,0z"/>
</g>
</svg>
