<?xml version="1.0" encoding="utf-8"?>
<!-- Generator: Adobe Illustrator 22.1.0, SVG Export Plug-In . SVG Version: 6.00 Build 0)  -->
<svg version="1.1" id="Layer_1" xmlns="http://www.w3.org/2000/svg" xmlns:xlink="http://www.w3.org/1999/xlink" x="0px" y="0px"
	 viewBox="0 0 35 35" style="enable-background:new 0 0 35 35;" xml:space="preserve">
<style type="text/css">
	.st0{fill:#FFFFFF;}
	.st1{fill:#8F8F8F;}
</style>
<g id="Path_13516">
	<path class="st0" d="M28.4,34.5H6.6c-3.3,0-6-2.7-6-6V6.6c0-3.3,2.7-6,6-6h21.9c3.3,0,6,2.7,6,6v21.9
		C34.5,31.8,31.8,34.5,28.4,34.5z"/>
	<path class="st1" d="M6.6,1.1c-3,0-5.5,2.5-5.5,5.5v21.9c0,3,2.5,5.5,5.5,5.5h21.9c3,0,5.5-2.5,5.5-5.5V6.6c0-3-2.5-5.5-5.5-5.5
		H6.6 M6.6,0h21.9C32.1,0,35,2.9,35,6.6v21.9c0,3.6-2.9,6.6-6.6,6.6H6.6C2.9,35,0,32.1,0,28.4V6.6C0,2.9,2.9,0,6.6,0z"/>
</g>
</svg>
