<?xml version="1.0" encoding="utf-8"?>
<!-- Generator: Adobe Illustrator 22.1.0, SVG Export Plug-In . SVG Version: 6.00 Build 0)  -->
<svg version="1.1" id="Layer_1" xmlns="http://www.w3.org/2000/svg" xmlns:xlink="http://www.w3.org/1999/xlink" x="0px" y="0px"
	 viewBox="0 0 30 30" style="enable-background:new 0 0 30 30;" xml:space="preserve">
<style type="text/css">
	.st0{fill:#FFFFFF;}
	.st1{fill:#8F8F8F;}
</style>
<g id="Path_13516">
	<path class="st0" d="M24.4,29.5H5.6c-2.8,0-5.2-2.3-5.2-5.2V5.6c0-2.8,2.3-5.2,5.2-5.2h18.8c2.8,0,5.2,2.3,5.2,5.2v18.8
		C29.5,27.2,27.2,29.5,24.4,29.5z"/>
	<path class="st1" d="M5.6,0.9C3,0.9,0.9,3,0.9,5.6v18.8c0,2.6,2.1,4.7,4.7,4.7h18.8c2.6,0,4.7-2.1,4.7-4.7V5.6
		c0-2.6-2.1-4.7-4.7-4.7H5.6 M5.6,0h18.8C27.5,0,30,2.5,30,5.6v18.8c0,3.1-2.5,5.6-5.6,5.6H5.6C2.5,30,0,27.5,0,24.4V5.6
		C0,2.5,2.5,0,5.6,0z"/>
</g>
</svg>
