<?xml version="1.0" encoding="utf-8"?>
<!-- Generator: Adobe Illustrator 22.1.0, SVG Export Plug-In . SVG Version: 6.00 Build 0)  -->
<svg version="1.1" id="Layer_1" xmlns="http://www.w3.org/2000/svg" xmlns:xlink="http://www.w3.org/1999/xlink" x="0px" y="0px"
	 viewBox="0 0 35 35" style="enable-background:new 0 0 35 35;" xml:space="preserve">
<style type="text/css">
	.st0{fill:#FFFFFF;}
	.st1{fill:#707070;}
</style>
<g id="Path_13517">
	<path class="st0" d="M17.5,34.3c-9.2,0-16.8-7.5-16.8-16.8S8.3,0.7,17.5,0.7s16.8,7.5,16.8,16.8S26.7,34.3,17.5,34.3z"/>
	<path class="st1" d="M17.5,1.5c-8.8,0-16,7.2-16,16s7.2,16,16,16s16-7.2,16-16S26.3,1.5,17.5,1.5 M17.5,0C27.2,0,35,7.8,35,17.5
		S27.2,35,17.5,35S0,27.2,0,17.5S7.8,0,17.5,0z"/>
</g>
</svg>
