<?xml version="1.0" encoding="utf-8"?>
<!-- Generator: Adobe Illustrator 22.1.0, SVG Export Plug-In . SVG Version: 6.00 Build 0)  -->
<svg version="1.1" id="Layer_1" xmlns="http://www.w3.org/2000/svg" xmlns:xlink="http://www.w3.org/1999/xlink" x="0px" y="0px"
	 viewBox="0 0 30 30" style="enable-background:new 0 0 30 30;" xml:space="preserve">
<style type="text/css">
	.st0{fill:#FFFFFF;}
	.st1{fill:#707070;}
</style>
<g id="Path_13517">
	<path class="st0" d="M15,29.4C7.1,29.4,0.6,22.9,0.6,15S7.1,0.6,15,0.6S29.4,7.1,29.4,15S22.9,29.4,15,29.4z"/>
	<path class="st1" d="M15,1.3C7.4,1.3,1.3,7.4,1.3,15S7.4,28.8,15,28.8S28.8,22.6,28.8,15S22.6,1.3,15,1.3 M15,0c8.3,0,15,6.7,15,15
		s-6.7,15-15,15S0,23.3,0,15S6.7,0,15,0z"/>
</g>
</svg>
