<?xml version="1.0" encoding="utf-8"?>
<!-- Generator: Adobe Illustrator 22.1.0, SVG Export Plug-In . SVG Version: 6.00 Build 0)  -->
<svg version="1.1" id="Layer_1" xmlns="http://www.w3.org/2000/svg" xmlns:xlink="http://www.w3.org/1999/xlink" x="0px" y="0px"
	 viewBox="0 0 40 40" style="enable-background:new 0 0 40 40;" xml:space="preserve">
<style type="text/css">
	.st0{fill:#FFFFFF;}
	.st1{fill:#707070;}
</style>
<g id="Path_13517">
	<path class="st0" d="M20,39.2C9.4,39.2,0.8,30.6,0.8,20S9.4,0.8,20,0.8S39.2,9.4,39.2,20S30.6,39.2,20,39.2z"/>
	<path class="st1" d="M20,1.7C9.9,1.7,1.7,9.9,1.7,20S9.9,38.3,20,38.3S38.3,30.1,38.3,20S30.1,1.7,20,1.7 M20,0c11,0,20,9,20,20
		s-9,20-20,20S0,31,0,20S9,0,20,0z"/>
</g>
</svg>
