<?xml version="1.0" encoding="utf-8"?>
<!-- Generator: Adobe Illustrator 22.1.0, SVG Export Plug-In . SVG Version: 6.00 Build 0)  -->
<svg version="1.1" id="logo_qinvoice" xmlns="http://www.w3.org/2000/svg" xmlns:xlink="http://www.w3.org/1999/xlink" x="0px"
	 y="0px" viewBox="0 0 53 36.5" style="enable-background:new 0 0 53 36.5;" xml:space="preserve">
<style type="text/css">
	.st0{fill:none;}
	.st1{fill:#098850;}
</style>
<rect id="Rectangle_14269_2_" y="0" class="st0" width="53" height="36.5"/>
<g id="Group_8_1_">
	<path id="Path_6_1_" class="st1" d="M47.1,14.1L47.1,14.1L47.1,14.1L47.1,14.1C47,14,47,14,46.9,13.9c-0.2-0.2-0.5-0.4-0.7-0.6
		c-1.6-1.2-3.4-1.9-5.4-2h-1.1c-2,0-3.7-1.6-3.7-3.7l0,0l0,0V7.4l0,0c-0.1-3.2-2.4-5.8-5.2-5.8c-2.9,0-5.2,2.7-5.2,6.1
		c0,3.3,2.3,6.1,5.2,6.1c0.4,0,0.8-0.1,1.2-0.2c1.1-0.1,2.8-0.3,3.6-0.3c2.5,0,2.8,0.7,2.8,0.7l0,0c-0.6,0.5-1.1,1.2-1.5,1.9l0,0
		c-0.2,0.4-0.4,0.8-0.6,1.2l0,0c-0.1,0.1-0.5,1.3-1.4,4.1c-0.6,1.8-2.8,1.7-2.8,1.7h-3.8c-2.4,0-3.4-3.4-3.4-3.4
		c-1.5-4.6-5.1-8-9.6-8C9.6,11.4,5.1,16.7,5.1,23.2S9.6,35,15.2,35c3.2-0.1,6.2-1.7,7.9-4.4l0,0c0.7-1,1.5-1.9,2.5-2.6
		c0.8-0.7,1.8-1.2,2.8-1.6c0.7-0.2,1.3-0.4,2-0.4h4.4c1.3,0,2.5,0.4,3.6,1c0,0,0.3,0.2,0.4,0.3c0.3,0.3,0.7,0.5,1.1,0.7l0,0
		c0.8,0.4,1.7,0.6,2.6,0.6c3.9,0,7-3.6,7-8.2C49.6,18.1,48.7,15.8,47.1,14.1z M30.2,7.7c0-1.9,0.9-3.4,2.1-3.4s2.1,1.5,2.1,3.4
		s-0.9,3.4-2.1,3.4S30.2,9.5,30.2,7.7z M18.9,30.4c-2.3,0-4.2-3-4.2-6.8s1.9-6.8,4.2-6.8s4.2,3,4.2,6.8S21.2,30.4,18.9,30.4
		L18.9,30.4z M44.7,25c-1.5,0-2.8-2-2.8-4.6s1.3-4.6,2.8-4.6s2.8,2.1,2.8,4.6S46.3,25,44.7,25L44.7,25z"/>
</g>
<rect id="Rectangle_14269_3_" y="60.7" class="st0" width="53" height="36.5"/>
</svg>
