<?xml version="1.0" encoding="utf-8"?>
<!-- Generator: Adobe Illustrator 22.1.0, SVG Export Plug-In . SVG Version: 6.00 Build 0)  -->
<svg version="1.1" id="logo_qinvoice" xmlns="http://www.w3.org/2000/svg" xmlns:xlink="http://www.w3.org/1999/xlink" x="0px"
	 y="0px" viewBox="0 0 53 36.5" style="enable-background:new 0 0 53 36.5;" xml:space="preserve">
<style type="text/css">
	.st0{fill:#FFFFFF;}
	.st1{fill:#098850;}
	.st2{fill:#D12027;}
</style>
<g id="logoeTEM" transform="translate(11964.895 8494.766)">
	<path id="Ellipse_87_1_" class="st0" d="M-11939.7-8483.1c13.3-2.3,24.7-0.8,25.4,3.4s-9.4,9.6-22.7,11.9
		c-13.3,2.3-24.7,0.8-25.4-3.4C-11963.2-8475.4-11953-8480.8-11939.7-8483.1z"/>
	<path id="Path_3849_1_" class="st1" d="M-11940-8479h-1.8v6c0,0.3-0.1,0.6-0.2,0.8c-0.2,0.2-0.4,0.3-0.6,0.3
		c-0.2,0-0.5-0.1-0.6-0.3c-0.2-0.2-0.2-0.4-0.2-0.8v-6h-1.8c-0.2,0-0.5,0-0.6-0.2c-0.3-0.3-0.3-0.7,0-1c0,0,0,0,0,0
		c0.2-0.1,0.4-0.2,0.6-0.2h5.3c0.2,0,0.5,0,0.6,0.2c0.3,0.3,0.3,0.7,0,1c0,0,0,0,0,0C-11939.5-8479-11939.7-8479-11940-8479z"/>
	<path id="Path_3850_1_" class="st1" d="M-11932.7-8479.1h-3.8v2h3.5c0.2,0,0.4,0,0.6,0.2c0.1,0.1,0.2,0.3,0.2,0.5
		c0,0.2-0.1,0.3-0.2,0.5c-0.2,0.1-0.4,0.2-0.6,0.2h-3.5v2.4h3.9c0.2,0,0.4,0,0.6,0.2c0.1,0.1,0.2,0.3,0.2,0.5c0,0.2-0.1,0.4-0.2,0.5
		c-0.2,0.1-0.4,0.2-0.6,0.2h-4.6c-0.4,0-0.6-0.1-0.8-0.2c-0.2-0.2-0.2-0.4-0.2-0.8v-6.2c0-0.2,0-0.4,0.1-0.6
		c0.1-0.1,0.2-0.3,0.3-0.3c0.2-0.1,0.4-0.1,0.6-0.1h4.4c0.2,0,0.4,0,0.6,0.2c0.1,0.1,0.2,0.3,0.2,0.5c0,0.2-0.1,0.4-0.2,0.5
		C-11932.3-8479.1-11932.5-8479.1-11932.7-8479.1z"/>
	<path id="Path_3851_1_" class="st1" d="M-11927.7-8473.3l-1.3-5.3v5.7c0,0.3-0.1,0.5-0.2,0.7c-0.1,0.2-0.3,0.2-0.6,0.2
		c-0.2,0-0.4-0.1-0.6-0.2c-0.2-0.2-0.2-0.5-0.2-0.7v-6.5c0-0.4,0.1-0.6,0.3-0.7c0.2-0.1,0.5-0.2,0.8-0.2h0.5c0.2,0,0.5,0,0.7,0.1
		c0.1,0.1,0.3,0.2,0.3,0.3c0.1,0.2,0.2,0.5,0.2,0.7l1.2,4.5l1.2-4.5c0.1-0.2,0.1-0.5,0.2-0.7c0.1-0.1,0.2-0.2,0.3-0.3
		c0.2-0.1,0.5-0.1,0.7-0.1h0.5c0.3,0,0.5,0.1,0.8,0.2c0.2,0.1,0.3,0.4,0.3,0.7v6.5c0,0.3-0.1,0.5-0.2,0.7c-0.1,0.2-0.4,0.2-0.6,0.2
		c-0.2,0-0.4-0.1-0.5-0.2c-0.2-0.2-0.2-0.5-0.2-0.7v-5.7l-1.3,5.3c-0.1,0.3-0.2,0.6-0.2,0.8c-0.1,0.2-0.2,0.3-0.3,0.4
		c-0.2,0.1-0.4,0.2-0.6,0.2c-0.2,0-0.3,0-0.5-0.1c-0.1-0.1-0.2-0.2-0.3-0.3c-0.1-0.1-0.1-0.3-0.2-0.4
		C-11927.6-8473-11927.6-8473.2-11927.7-8473.3z"/>
	<path id="Path_3852_1_" class="st2" d="M-11948.5-8475.4h-3.8c0,0.4,0.1,0.8,0.3,1.2c0.2,0.3,0.4,0.6,0.7,0.8
		c0.3,0.2,0.6,0.3,0.9,0.3c0.2,0,0.4,0,0.6-0.1c0.2-0.1,0.4-0.1,0.6-0.3c0.2-0.1,0.3-0.2,0.5-0.4c0.1-0.1,0.3-0.3,0.6-0.5
		c0.1-0.1,0.3-0.1,0.4-0.1c0.2,0,0.3,0,0.5,0.2c0.1,0.1,0.2,0.3,0.2,0.5c0,0.2-0.1,0.4-0.2,0.6c-0.2,0.3-0.4,0.5-0.6,0.7
		c-0.3,0.2-0.7,0.4-1,0.5c-0.5,0.1-1,0.2-1.4,0.2c-1.2,0-2.2-0.4-2.9-1.1c-0.7-0.7-1-1.7-1-2.9c0-0.5,0.1-1.1,0.3-1.6
		c0.2-0.5,0.4-0.9,0.7-1.3c0.3-0.4,0.7-0.6,1.2-0.8c0.5-0.2,1-0.3,1.6-0.3c0.7,0,1.4,0.1,1.9,0.5c0.5,0.3,0.9,0.7,1.2,1.2
		c0.3,0.5,0.4,1,0.4,1.5c0,0.5-0.1,0.8-0.4,0.9C-11947.7-8475.4-11948.1-8475.3-11948.5-8475.4z M-11952.3-8476.5h3.5
		c0-0.7-0.2-1.2-0.5-1.5c-0.3-0.3-0.8-0.5-1.2-0.5c-0.4,0-0.9,0.2-1.2,0.5C-11952-8477.6-11952.2-8477.1-11952.3-8476.5
		L-11952.3-8476.5z"/>
	<path id="Path_14164" class="st1" d="M-11948.6-8466.7c-3.9,0-7.2-0.4-9.7-1.2c-1.2-0.4-2.2-0.9-2.9-1.4c-0.7-0.6-1.2-1.2-1.3-2
		c0-0.3-0.1-0.5,0-0.8c0-0.3,0.1-0.6,0.2-0.8c0.2-0.5,0.6-1.1,1.2-1.7c0.5-0.6,1.2-1.1,2-1.7c0.9-0.6,1.8-1.2,2.7-1.6
		c1-0.5,2.2-1.1,3.4-1.6c1.2-0.5,2.6-1,4-1.4c1.4-0.4,2.9-0.9,4.5-1.2c1.6-0.4,3.2-0.7,4.8-1c2-0.4,4.1-0.6,6.1-0.8
		c1.9-0.2,3.8-0.3,5.6-0.3c3.9,0,7.2,0.4,9.7,1.2c1.2,0.4,2.2,0.9,2.9,1.4c0.7,0.6,1.2,1.2,1.3,2c0,0.3,0.1,0.5,0,0.8
		c0,0.3-0.1,0.6-0.2,0.8c-0.2,0.5-0.6,1.1-1.2,1.7c-0.5,0.6-1.2,1.1-2,1.7c-0.9,0.6-1.8,1.2-2.7,1.6c-1,0.5-2.2,1.1-3.4,1.6
		c-1.2,0.5-2.6,1-4,1.4c-1.4,0.4-2.9,0.9-4.5,1.2c-1.6,0.4-3.2,0.7-4.8,1c-2,0.4-4.1,0.6-6.1,0.8
		C-11944.9-8466.8-11946.8-8466.7-11948.6-8466.7z M-11928-8484.1c-1.8,0-3.7,0.1-5.6,0.3c-2,0.2-4,0.4-6.1,0.8
		c-6.4,1.1-12.3,2.9-16.6,5.1c-0.9,0.5-1.9,1-2.7,1.6c-0.8,0.6-1.5,1.1-2,1.7c-1.1,1.1-1.5,2.2-1.4,3.3c0.1,0.7,0.6,1.3,1.3,1.9
		c0.7,0.5,1.7,1,2.9,1.4c2.4,0.8,5.7,1.2,9.5,1.2h0c1.8,0,3.7-0.1,5.6-0.3c2-0.2,4-0.4,6.1-0.8c6.4-1.1,12.3-2.9,16.6-5.1
		c0.9-0.5,1.9-1,2.7-1.6c0.8-0.6,1.5-1.1,2-1.7c1.1-1.1,1.5-2.2,1.4-3.3c-0.1-0.7-0.6-1.3-1.3-1.9c-0.7-0.5-1.7-1-2.9-1.4
		C-11920.9-8483.7-11924.2-8484.1-11928-8484.1L-11928-8484.1L-11928-8484.1z"/>
	<g id="Group_3351_1_" transform="translate(-10912.18 -8452.823)">
		<ellipse id="Ellipse_91_1_" class="st0" cx="-1005.4" cy="-30" rx="2.8" ry="2.8"/>
		<g id="Group_3349_1_" transform="translate(31.192 20.667)">
			<path id="Path_3853_1_" class="st1" d="M-1035.1-50c0,0.4-0.2,0.7-0.5,1c-0.3,0.2-0.7,0.4-1.1,0.3c-0.3,0-0.6-0.1-0.8-0.2
				c-0.2-0.2-0.4-0.4-0.5-0.6c-0.1-0.3-0.2-0.6-0.2-0.9v-0.4c0-0.3,0.1-0.7,0.2-1c0.1-0.3,0.3-0.5,0.6-0.6c0.3-0.2,0.5-0.2,0.8-0.2
				c0.4,0,0.7,0.1,1,0.3c0.3,0.3,0.4,0.6,0.5,1h-0.7c0-0.2-0.1-0.4-0.2-0.6c-0.4-0.3-0.9-0.2-1.2,0.1c-0.2,0.2-0.2,0.5-0.2,0.9v0.3
				c0,0.4,0.1,0.7,0.2,1c0.1,0.2,0.4,0.3,0.7,0.3c0.2,0,0.4,0,0.6-0.2c0.2-0.2,0.2-0.4,0.3-0.6L-1035.1-50L-1035.1-50z"/>
		</g>
		<path id="Subtraction_2_1_" class="st1" d="M-1005.5-27.2c-1.6,0-2.8-1.3-2.8-2.8s1.3-2.8,2.8-2.8c1.6,0,2.8,1.3,2.8,2.8
			c0,0,0,0,0,0C-1002.7-28.5-1003.9-27.2-1005.5-27.2z M-1005.5-32.7c-1.5,0-2.7,1.2-2.7,2.7c0,1.5,1.2,2.7,2.7,2.7
			c1.5,0,2.7-1.2,2.7-2.7c0,0,0,0,0,0C-1002.8-31.5-1004-32.7-1005.5-32.7z"/>
	</g>
</g>
</svg>
