<svg id="logo_qinvoice" xmlns="http://www.w3.org/2000/svg" xmlns:xlink="http://www.w3.org/1999/xlink" width="53" height="36.534" viewBox="0 0 53 36.534">
  <defs>
    <clipPath id="clip-path">
      <path id="Path_3813" data-name="Path 3813" d="M172.359,778.606,178.9,787.5H152.089V751.111h40.491v36.454h-3.285l-10.2-13.862Z" transform="translate(-152.089 -751.111)" fill="none"/>
    </clipPath>
    <linearGradient id="linear-gradient" y1="0.5" x2="1" y2="0.5" gradientUnits="objectBoundingBox">
      <stop offset="0" stop-color="#109bf8"/>
      <stop offset="1" stop-color="#0e83c4"/>
    </linearGradient>
  </defs>
  <g id="logo_Qinvoice-2" data-name="logo_Qinvoice" transform="translate(-146.324 -751.031)">
    <path id="Path_3811" data-name="Path 3811" d="M456.138,903.757l3.4-13.339h3.793l-3.008,11.77,8.893,12.162-3.4,2.746Z" transform="translate(-285.283 -130.709)" fill="#0e83c4"/>
    <g id="Group_3397" data-name="Group 3397" transform="translate(152.089 751.111)">
      <g id="Group_3396" data-name="Group 3396" transform="translate(0 0)" clip-path="url(#clip-path)">
        <path id="Path_3812" data-name="Path 3812" d="M216.568,781.825c-4.683-6.754-15.739-7.2-24.694-.986s-12.419,16.718-7.737,23.472,15.739,7.2,24.694.986S221.25,788.579,216.568,781.825ZM206.4,801.732c-6.434,4.353-14.3,3.964-17.57-.869s-.7-12.279,5.731-16.632,14.3-3.964,17.57.869S212.834,797.379,206.4,801.732Z" transform="translate(-180.201 -774.892)" fill="url(#linear-gradient)"/>
      </g>
    </g>
    <path id="Path_3814" data-name="Path 3814" d="M657.426,1212.478" transform="translate(-474.147 -432.891)" fill="none" stroke="#ddd54a" stroke-miterlimit="10" stroke-width="2.119"/>
    <path id="Path_3815" data-name="Path 3815" d="M619.287,1159.507" transform="translate(-438.362 -383.189)" fill="none" stroke="#ddd54a" stroke-miterlimit="10" stroke-width="2.119"/>
  </g>
  <rect id="Rectangle_14269" data-name="Rectangle 14269" width="53" height="36.45" fill="none"/>
</svg>
