<?xml version="1.0" encoding="utf-8"?>
<!-- Generator: Adobe Illustrator 22.1.0, SVG Export Plug-In . SVG Version: 6.00 Build 0)  -->
<svg version="1.1" id="logo_qinvoice" xmlns="http://www.w3.org/2000/svg" xmlns:xlink="http://www.w3.org/1999/xlink" x="0px"
	 y="0px" viewBox="0 0 53 36.5" style="enable-background:new 0 0 53 36.5;" xml:space="preserve">
<style type="text/css">
	.st0{fill:none;}
	.st1{fill:#014632;}
	.st2{fill:#E46026;}
</style>
<rect id="Rectangle_14269_2_" y="-60.7" class="st0" width="53" height="36.5"/>
<rect id="Rectangle_14269_3_" y="0" class="st0" width="53" height="36.5"/>
<g id="inos.login_1_" transform="translate(-81.346 -12.068)">
	<g id="Group_989_1_" transform="translate(81.346 12.068)">
		<g id="Group_986_1_">
			<path id="Path_3016_1_" class="st1" d="M40.5,1.6h-18c-1.9,0-3.5,1.6-3.5,3.5V10h4.2V5.7h16.7v16.8h-4.2v4.1h4.8
				c1.9,0,3.5-1.6,3.5-3.5v-18C44,3.2,42.4,1.6,40.5,1.6z"/>
			<path id="Path_3017_1_" class="st2" d="M31.5,26.6v4.1H14.8V14.1H19V10h-4.8c-1.9,0-3.5,1.6-3.5,3.5v18c0,1.9,1.6,3.5,3.5,3.5h18
				c1.9,0,3.5-1.6,3.5-3.5v-4.8H31.5z"/>
		</g>
	</g>
</g>
</svg>
