<?xml version="1.0" encoding="utf-8"?>
<!-- Generator: Adobe Illustrator 23.0.0, SVG Export Plug-In . SVG Version: 6.00 Build 0)  -->
<svg version="1.1" id="Layer_1" xmlns="http://www.w3.org/2000/svg" xmlns:xlink="http://www.w3.org/1999/xlink" x="0px" y="0px"
	 viewBox="0 0 53 36" style="enable-background:new 0 0 53 36;" xml:space="preserve">
<style type="text/css">
	.st0{fill:#098850;}
	.st1{fill:#D12027;}
</style>
<g>
	<path id="Path_3016" class="st0" d="M40.7,0H21.3c-2,0-3.8,1.7-3.8,3.8V9H22V4.4h17.9v18.1h-4.4V27h5.3c2,0,3.8-1.7,3.8-3.8V3.8
		C44.5,1.7,42.8,0,40.7,0z"/>
	<path id="Path_3017" class="st1" d="M31,27v4.3H13.1V13.5h4.4V9h-5.3c-2-0.2-3.8,1.7-3.8,3.8v19.5c0,2,1.7,3.8,3.8,3.8h19.5
		c2,0,3.8-1.7,3.8-3.8V27H31z"/>
</g>
</svg>
