<svg xmlns="http://www.w3.org/2000/svg" width="53" height="36.45" viewBox="0 0 53 36.45">
  <g id="logo_dmslq" transform="translate(-1708.814 -3106.327)">
    <path id="Path_14200" data-name="Path 14200" d="M0,0H53V36.45H0Z" transform="translate(1708.814 3106.327)" fill="none"/>
    <g id="logo_longquangdms" transform="translate(1729.254 3107)">
      <g id="Group_3986" data-name="Group 3986" transform="translate(0)">
        <g id="Group_3979" data-name="Group 3979" transform="translate(0 12.765)">
          <g id="Group_3977" data-name="Group 3977" transform="translate(0.044 0.087)">
            <path id="Path_14193" data-name="Path 14193" d="M7.644,316.251a13.393,13.393,0,0,0,1.224-2.667,10.746,10.746,0,0,0-.35-5.552A9.962,9.962,0,0,0,6.6,305.016c-.874-.918-3.06-2.361-3.978-3.716a13.465,13.465,0,0,1-1.4-2.71l.306.087a9.27,9.27,0,0,1-.481-2.754c.044-1.224.087-1.923.087-1.923a13.468,13.468,0,0,0,2.1,3.366A8.325,8.325,0,0,0,5.765,299.2a11.621,11.621,0,0,1,3.76,2.667,10.286,10.286,0,0,1,2.317,4.852A11.55,11.55,0,0,1,11.1,312.4a11.185,11.185,0,0,1-1.923,2.71,11.643,11.643,0,0,1-.918.787,5.788,5.788,0,0,1-.612.35Z" transform="translate(-1.041 -294)" fill="#4a2973"/>
          </g>
          <g id="Group_3978" data-name="Group 3978">
            <path id="Path_14194" data-name="Path 14194" d="M9.748,311.191a15.2,15.2,0,0,0-.962-4.984,7.3,7.3,0,0,0-3.366-3.585,13.494,13.494,0,0,1-4.153-3.716,18.836,18.836,0,0,1-1.005-2.229l.262.044a6.955,6.955,0,0,1-.481-2.361C.087,293.311.131,292,.131,292a25.885,25.885,0,0,0,1.443,2.579A9.946,9.946,0,0,0,5.552,297.6a10.074,10.074,0,0,1,4.852,5.333,8.941,8.941,0,0,1,.35,5.945A6.956,6.956,0,0,1,9.748,311.191Z" transform="translate(-0.041 -292)" fill="#6a4b97"/>
          </g>
        </g>
        <g id="Group_3982" data-name="Group 3982" transform="translate(1.047)">
          <g id="Group_3980" data-name="Group 3980" transform="translate(0.158)">
            <path id="Path_14195" data-name="Path 14195" d="M31.866,0a13.394,13.394,0,0,0-1.224,2.667,10.746,10.746,0,0,0,.35,5.552,9.961,9.961,0,0,0,1.923,3.016c.874.918,3.06,2.361,3.978,3.716a13.466,13.466,0,0,1,1.4,2.71l-.306-.087a9.271,9.271,0,0,1,.481,2.754c-.044,1.224-.087,1.923-.087,1.923a13.468,13.468,0,0,0-2.1-3.366,8.325,8.325,0,0,0-2.535-1.836,11.621,11.621,0,0,1-3.76-2.667A10.286,10.286,0,0,1,27.669,9.53a11.55,11.55,0,0,1,.743-5.683,11.188,11.188,0,0,1,1.923-2.71A11.652,11.652,0,0,1,31.254.35,5.789,5.789,0,0,1,31.866,0Z" transform="translate(-27.599)" fill="#073f2b"/>
          </g>
          <g id="Group_3981" data-name="Group 3981" transform="translate(0 3.148)">
            <path id="Path_14196" data-name="Path 14196" d="M25.35,72a15.2,15.2,0,0,0,.962,4.984,7.3,7.3,0,0,0,3.366,3.585,13.5,13.5,0,0,1,4.153,3.716,18.835,18.835,0,0,1,1.005,2.229l-.262-.044a6.955,6.955,0,0,1,.481,2.361c-.044,1.049-.087,2.361-.087,2.361a25.884,25.884,0,0,0-1.443-2.579A9.947,9.947,0,0,0,29.547,85.6a10.074,10.074,0,0,1-4.852-5.333,8.941,8.941,0,0,1-.35-5.945A6.956,6.956,0,0,1,25.35,72Z" transform="translate(-23.986 -72)" fill="#10543d"/>
          </g>
        </g>
        <g id="Group_3985" data-name="Group 3985" transform="translate(1.78 24.656)">
          <g id="Group_3983" data-name="Group 3983" transform="translate(0.076)">
            <path id="Path_14197" data-name="Path 14197" d="M44.374,564a5.941,5.941,0,0,0-.538,1.176,4.744,4.744,0,0,0,.153,2.444,4.4,4.4,0,0,0,.848,1.329,15.62,15.62,0,0,1,1.753,1.635,5.74,5.74,0,0,1,.616,1.193l-.136-.039a4.01,4.01,0,0,1,.21,1.211c-.017.538-.039.848-.039.848a5.909,5.909,0,0,0-.922-1.482,3.718,3.718,0,0,0-1.115-.809,5.164,5.164,0,0,1-1.657-1.176,4.527,4.527,0,0,1-1.019-2.138,5.077,5.077,0,0,1,.328-2.5A4.888,4.888,0,0,1,43.7,564.5c.232-.21.328-.289.4-.345a2.437,2.437,0,0,1,.267-.153Z" transform="translate(-42.498 -564)" fill="#073f2b"/>
          </g>
          <g id="Group_3984" data-name="Group 3984" transform="translate(0 1.386)">
            <path id="Path_14198" data-name="Path 14198" d="M41.37,595.7a6.683,6.683,0,0,0,.424,2.195,3.218,3.218,0,0,0,1.482,1.578,5.947,5.947,0,0,1,1.827,1.635,8.638,8.638,0,0,1,.442.983l-.114-.017a3.013,3.013,0,0,1,.21,1.04c-.022.463-.039,1.04-.039,1.04a11.351,11.351,0,0,0-.634-1.137,4.414,4.414,0,0,0-1.753-1.329,4.443,4.443,0,0,1-2.138-2.348,3.933,3.933,0,0,1-.153-2.619A3.068,3.068,0,0,1,41.37,595.7Z" transform="translate(-40.765 -595.7)" fill="#10543d"/>
          </g>
        </g>
      </g>
    </g>
  </g>
</svg>
