<svg id="logo_inbrand" xmlns="http://www.w3.org/2000/svg" width="53" height="36.45" viewBox="0 0 53 36.45">
  <g id="logo_inBrand-2" data-name="logo_inBrand" transform="translate(10 1.3)">
    <path id="Path_1097" data-name="Path 1097" d="M405.583,83.921v4.287H388.792V71.418h4.138V67.133h-4.511a3.915,3.915,0,0,0-3.912,3.91V88.582a3.916,3.916,0,0,0,3.912,3.912h17.539a3.915,3.915,0,0,0,3.911-3.912V83.921Z" transform="translate(-384.506 -58.694)" fill="#e46026"/>
    <path id="Path_1098" data-name="Path 1098" d="M415.286,57.637h-17.54a3.915,3.915,0,0,0-3.911,3.911V66.21h4.286V61.923h16.791V78.714h-4.138V83h4.512a3.915,3.915,0,0,0,3.911-3.911V61.548A3.915,3.915,0,0,0,415.286,57.637Z" transform="translate(-385.546 -57.637)" fill="#014632"/>
  </g>
  <rect id="Rectangle_14269" data-name="Rectangle 14269" width="53" height="36.45" fill="none"/>
</svg>
