<svg id="logo_productcenter" xmlns="http://www.w3.org/2000/svg" width="53" height="36.45" viewBox="0 0 53 36.45">
  <g id="logo_product" transform="translate(-272.473 -155.786)">
    <path id="Path_3693" data-name="Path 3693" d="M248.219,198.786a.325.325,0,0,0-.321-.053s-12.07,4.59-12.4,4.717a.4.4,0,0,1-.455-.161l-3.8-5.245a.333.333,0,0,0-.395-.125.4.4,0,0,0-.236.374V217.33a.411.411,0,0,0,.158.33.328.328,0,0,0,.2.067.321.321,0,0,0,.135-.03l17.043-7.873a.4.4,0,0,0,.219-.367V199.108A.414.414,0,0,0,248.219,198.786Z" transform="translate(68.814 -26.411)" fill="#098850"/>
    <path id="Path_3694" data-name="Path 3694" d="M44.978,82.331l-3.252-4.86a.357.357,0,0,0-.188-.144L22.631,71.359a.388.388,0,0,0-.213.006L3.511,77.333a.357.357,0,0,0-.188.144L.071,82.337a.435.435,0,0,0-.055.355.38.38,0,0,0,.225.258l15.987,6.066a.322.322,0,0,0,.114.021.342.342,0,0,0,.276-.147l4.475-6.167,1.327.408a.317.317,0,0,0,.188,0h0l.019,0,1.327-.408,4.475,6.167a.342.342,0,0,0,.276.147.322.322,0,0,0,.114-.021l15.987-6.066a.38.38,0,0,0,.225-.258A.436.436,0,0,0,44.978,82.331Zm-22.443-.889L8.976,77.3l13.559-4.255L36.073,77.3Z" transform="translate(276.04 85.79)" fill="#098850"/>
    <path id="Path_3695" data-name="Path 3695" d="M56.042,197.969a.332.332,0,0,0-.394.124l-3.8,5.245a.4.4,0,0,1-.455.161c-.33-.127-12.4-4.717-12.4-4.717a.325.325,0,0,0-.321.053.413.413,0,0,0-.148.323v10.349a.4.4,0,0,0,.219.367l17.043,7.873a.322.322,0,0,0,.135.03.328.328,0,0,0,.2-.067.411.411,0,0,0,.158-.33V198.343A.4.4,0,0,0,56.042,197.969Z" transform="translate(241.422 -26.455)" fill="#098850"/>
  </g>
  <rect id="Rectangle_14269" data-name="Rectangle 14269" width="53" height="36.45" fill="none"/>
</svg>
