<svg id="logo_customercenter" xmlns="http://www.w3.org/2000/svg" width="53" height="36.45" viewBox="0 0 53 36.45">
  <g id="logo_Customer" transform="translate(-268.387 -271.239)">
    <path id="Path_3585" data-name="Path 3585" d="M53.274,300.4H46.1a10.717,10.717,0,0,0-10.7,10.7H64A10.784,10.784,0,0,0,53.274,300.4Z" transform="translate(244.764 -4.534)" fill="#098850"/>
    <path id="Path_3586" data-name="Path 3586" d="M132.1,95.61a2.31,2.31,0,0,1,1.5.53h2.589a7.42,7.42,0,1,0-12.79-5.116,7.439,7.439,0,0,0,3.806,6.488,2.43,2.43,0,0,1,2.34-1.9Z" transform="translate(163.626 195.359)" fill="#098850"/>
    <path id="Path_3587" data-name="Path 3587" d="M75.218,14.568a3.485,3.485,0,0,0,1,2.028,3.764,3.764,0,0,0,1.529.9,1.4,1.4,0,0,1-.031-.343V11.105a1.519,1.519,0,0,1,.031-.374,3.336,3.336,0,0,0-1.529.9l-.125.125v-.25a10.7,10.7,0,0,1,.156-1.747,7.465,7.465,0,0,1,.468-1.684,7.416,7.416,0,0,1,.749-1.591,9.079,9.079,0,0,1,1-1.435.237.237,0,0,0,.062-.125.921.921,0,0,0,.749-.25A9.715,9.715,0,0,1,93,4.679a.886.886,0,0,0,.749.25c.031.031.031.094.062.125a9.079,9.079,0,0,1,1,1.435,12.427,12.427,0,0,1,.749,1.591,15.422,15.422,0,0,1,.468,1.716,10.7,10.7,0,0,1,.156,1.747v.25c-.031-.062-.094-.094-.125-.125a3.764,3.764,0,0,0-1.529-.9,1.519,1.519,0,0,1,.031.374v6.02a1.169,1.169,0,0,1-.031.343A2.745,2.745,0,0,0,95,17.344v1.965a3.141,3.141,0,0,1-.062.593.877.877,0,0,1-.156.343.679.679,0,0,1-.25.156,1.58,1.58,0,0,1-.406.062H88.351a1.036,1.036,0,0,0-.9-.53H84.888a1,1,0,0,0-1,1,1.032,1.032,0,0,0,1.029,1h2.558a1.076,1.076,0,0,0,.9-.53H94.4A1.824,1.824,0,0,0,95,21.274a1.662,1.662,0,0,0,.624-.406,2.059,2.059,0,0,0,.374-.686,3.723,3.723,0,0,0,.125-.9V16.689l.094-.094a3.485,3.485,0,0,0,1-2.028c.031-.031.062-.031.062-.062a.576.576,0,0,0,.156-.374V11.542a13.117,13.117,0,0,0-.156-1.934c-.187-.655-.343-1.279-.561-1.9a9.277,9.277,0,0,0-.842-1.778,9.192,9.192,0,0,0-1.123-1.591.311.311,0,0,0-.156-.125.95.95,0,0,0-.25-.842A11.452,11.452,0,0,0,86.2,0a11.576,11.576,0,0,0-8.173,3.369.95.95,0,0,0-.25.842.548.548,0,0,0-.156.125A9.19,9.19,0,0,0,76.5,5.927,15.543,15.543,0,0,0,75.655,7.7a10.055,10.055,0,0,0-.5,1.9A9.914,9.914,0,0,0,75,11.542v2.589a.517.517,0,0,0,.156.374C75.187,14.536,75.218,14.536,75.218,14.568Z" transform="translate(208.252 272.439)" fill="#098850"/>
  </g>
  <rect id="Rectangle_14269" data-name="Rectangle 14269" width="53" height="36.45" fill="none"/>
</svg>
