<?xml version="1.0" encoding="utf-8"?>
<!-- Generator: Adobe Illustrator 23.0.0, SVG Export Plug-In . SVG Version: 6.00 Build 0)  -->
<svg version="1.1" id="Layer_1" xmlns="http://www.w3.org/2000/svg" xmlns:xlink="http://www.w3.org/1999/xlink" x="0px" y="0px"
	 viewBox="0 0 872.8 888.6" enable-background="new 0 0 872.8 888.6" xml:space="preserve">
<g>
	<linearGradient id="SVGID_1_" gradientUnits="userSpaceOnUse" x1="917.7014" y1="692.9137" x2="39.9871" y2="175.1994">
		<stop  offset="0" style="stop-color:#FFDA4E"/>
		<stop  offset="0.3198" style="stop-color:#EDBE25"/>
		<stop  offset="0.6802" style="stop-color:#D8AF28"/>
		<stop  offset="1" style="stop-color:#FFF980"/>
		<stop  offset="1" style="stop-color:#F6BE21"/>
	</linearGradient>
	<path fill="url(#SVGID_1_)" d="M785.5,574.7c-3.1-1-6.5,0.7-7.6,3.8c-6,18.3-13.3,36.2-21.7,53.1c-1.5,3-0.3,6.6,2.7,8
		c0.9,0.4,1.8,0.6,2.7,0.6c2.2,0,4.3-1.2,5.4-3.3c8.7-17.5,16.2-35.9,22.4-54.7C790.4,579.1,788.6,575.7,785.5,574.7z"/>
	<linearGradient id="SVGID_2_" gradientUnits="userSpaceOnUse" x1="1081.321" y1="415.5188" x2="203.6068" y2="-102.1955">
		<stop  offset="0" style="stop-color:#FFDA4E"/>
		<stop  offset="0.3198" style="stop-color:#EDBE25"/>
		<stop  offset="0.6802" style="stop-color:#D8AF28"/>
		<stop  offset="1" style="stop-color:#FFF980"/>
		<stop  offset="1" style="stop-color:#F6BE21"/>
	</linearGradient>
	<path fill="url(#SVGID_2_)" d="M756.4,232.4c-9.8-17.3-20.9-33.8-33-49.1c-2.1-2.6-5.8-3-8.4-1c-2.6,2.1-3,5.8-1,8.4
		c11.7,14.8,22.5,30.8,32,47.6c1.1,1.9,3.1,3,5.2,3c1,0,2-0.3,3-0.8C757,238.9,758,235.3,756.4,232.4z"/>
	<linearGradient id="SVGID_3_" gradientUnits="userSpaceOnUse" x1="1098.6011" y1="386.2228" x2="220.8868" y2="-131.4914">
		<stop  offset="0" style="stop-color:#FFDA4E"/>
		<stop  offset="0.3198" style="stop-color:#EDBE25"/>
		<stop  offset="0.6802" style="stop-color:#D8AF28"/>
		<stop  offset="1" style="stop-color:#FFF980"/>
		<stop  offset="1" style="stop-color:#F6BE21"/>
	</linearGradient>
	<path fill="url(#SVGID_3_)" d="M666.3,126c-15.7-12.4-32.4-23.3-49.7-32.4c-2.9-1.5-6.6-0.4-8.1,2.5c-1.5,2.9-0.4,6.6,2.5,8.1
		c16.6,8.7,32.7,19.2,47.8,31.2c1.1,0.9,2.4,1.3,3.7,1.3c1.8,0,3.5-0.8,4.7-2.3C669.3,131.9,668.8,128.1,666.3,126z"/>
	<linearGradient id="SVGID_4_" gradientUnits="userSpaceOnUse" x1="848.2158" y1="810.7172" x2="-29.4986" y2="293.003">
		<stop  offset="0" style="stop-color:#FFDA4E"/>
		<stop  offset="0.3198" style="stop-color:#EDBE25"/>
		<stop  offset="0.6802" style="stop-color:#D8AF28"/>
		<stop  offset="1" style="stop-color:#FFF980"/>
		<stop  offset="1" style="stop-color:#F6BE21"/>
	</linearGradient>
	<path fill="url(#SVGID_4_)" d="M722.9,696.9c-2.6-2.1-6.4-1.6-8.4,1c-12,15.2-25.1,29.3-39,41.9c-2.5,2.2-2.6,6-0.4,8.5
		c1.2,1.3,2.8,2,4.4,2c1.4,0,2.9-0.5,4-1.6c14.4-13.1,28-27.6,40.4-43.3C725.9,702.7,725.5,698.9,722.9,696.9z"/>
	<linearGradient id="SVGID_5_" gradientUnits="userSpaceOnUse" x1="984.2342" y1="580.1165" x2="106.5199" y2="62.4022">
		<stop  offset="0" style="stop-color:#FFDA4E"/>
		<stop  offset="0.3198" style="stop-color:#EDBE25"/>
		<stop  offset="0.6802" style="stop-color:#D8AF28"/>
		<stop  offset="1" style="stop-color:#FFF980"/>
		<stop  offset="1" style="stop-color:#F6BE21"/>
	</linearGradient>
	<path fill="url(#SVGID_5_)" d="M811,443.8c0-3.3-2.7-6-6-6s-6,2.7-6,6l0,0.8c0,19.2-1.3,38.5-3.7,57.4c-0.4,3.3,1.9,6.3,5.2,6.7
		c0.3,0,0.5,0.1,0.8,0.1c3,0,5.5-2.2,5.9-5.2c2.5-19.4,3.8-39.2,3.8-58.9L811,443.8z"/>
	<linearGradient id="SVGID_6_" gradientUnits="userSpaceOnUse" x1="1085.5143" y1="408.4098" x2="207.8" y2="-109.3045">
		<stop  offset="0" style="stop-color:#FFDA4E"/>
		<stop  offset="0.3198" style="stop-color:#EDBE25"/>
		<stop  offset="0.6802" style="stop-color:#D8AF28"/>
		<stop  offset="1" style="stop-color:#FFF980"/>
		<stop  offset="1" style="stop-color:#F6BE21"/>
	</linearGradient>
	<path fill="url(#SVGID_6_)" d="M540.3,66.1c-19.2-4-38.9-6.1-58.5-6.1l-0.6,0c-3.3,0-6,2.7-6,6s2.7,6,6,6l0.6,0
		c18.8,0,37.7,2,56.1,5.8c0.4,0.1,0.8,0.1,1.2,0.1c2.8,0,5.3-1.9,5.9-4.8C545.6,70,543.6,66.8,540.3,66.1z"/>
	<linearGradient id="SVGID_7_" gradientUnits="userSpaceOnUse" x1="1040.9211" y1="484.0113" x2="163.2069" y2="-33.703">
		<stop  offset="0" style="stop-color:#FFDA4E"/>
		<stop  offset="0.3198" style="stop-color:#EDBE25"/>
		<stop  offset="0.6802" style="stop-color:#D8AF28"/>
		<stop  offset="1" style="stop-color:#FFF980"/>
		<stop  offset="1" style="stop-color:#F6BE21"/>
	</linearGradient>
	<path fill="url(#SVGID_7_)" d="M798.9,370.5c3.3-0.6,5.4-3.7,4.8-7c-3.6-19.4-8.5-38.7-14.6-57.2c-1-3.1-4.4-4.9-7.6-3.8
		c-3.1,1-4.9,4.4-3.8,7.6c6,18,10.7,36.8,14.2,55.7c0.5,2.9,3.1,4.9,5.9,4.9C798.1,370.6,798.5,370.5,798.9,370.5z"/>
	<linearGradient id="SVGID_8_" gradientUnits="userSpaceOnUse" x1="729.094" y1="1012.672" x2="-148.6203" y2="494.9577">
		<stop  offset="0" style="stop-color:#FFDA4E"/>
		<stop  offset="0.3198" style="stop-color:#EDBE25"/>
		<stop  offset="0.6802" style="stop-color:#D8AF28"/>
		<stop  offset="1" style="stop-color:#FFF980"/>
		<stop  offset="1" style="stop-color:#F6BE21"/>
	</linearGradient>
	<path fill="url(#SVGID_8_)" d="M296.1,754.5c-2.1,2.6-1.6,6.4,1,8.4c15.7,12.5,32.4,23.4,49.7,32.5c0.9,0.5,1.8,0.7,2.8,0.7
		c2.2,0,4.2-1.2,5.3-3.2c1.5-2.9,0.4-6.6-2.5-8.1c-16.6-8.7-32.7-19.2-47.8-31.2C301.9,751.5,298.1,751.9,296.1,754.5z"/>
	<linearGradient id="SVGID_9_" gradientUnits="userSpaceOnUse" x1="979.2667" y1="588.5381" x2="101.5524" y2="70.8239">
		<stop  offset="0" style="stop-color:#FFDA4E"/>
		<stop  offset="0.3198" style="stop-color:#EDBE25"/>
		<stop  offset="0.6802" style="stop-color:#D8AF28"/>
		<stop  offset="1" style="stop-color:#FFF980"/>
		<stop  offset="1" style="stop-color:#F6BE21"/>
	</linearGradient>
	<path fill="url(#SVGID_9_)" d="M279.8,140.9c-14.4,13.1-28,27.7-40.3,43.4c-2.1,2.6-1.6,6.4,1,8.4c1.1,0.9,2.4,1.3,3.7,1.3
		c1.8,0,3.5-0.8,4.7-2.3c12-15.2,25.1-29.3,39-41.9c2.5-2.2,2.6-6,0.4-8.5S282.3,138.7,279.8,140.9z"/>
	<linearGradient id="SVGID_10_" gradientUnits="userSpaceOnUse" x1="746.4478" y1="983.251" x2="-131.2665" y2="465.5367">
		<stop  offset="0" style="stop-color:#FFDA4E"/>
		<stop  offset="0.3198" style="stop-color:#EDBE25"/>
		<stop  offset="0.6802" style="stop-color:#D8AF28"/>
		<stop  offset="1" style="stop-color:#FFF980"/>
		<stop  offset="1" style="stop-color:#F6BE21"/>
	</linearGradient>
	<path fill="url(#SVGID_10_)" d="M217.4,650.6c-1.6-2.9-5.3-3.9-8.2-2.3c-2.9,1.6-3.9,5.3-2.3,8.2c9.8,17.3,20.9,33.9,33,49.1
		c1.2,1.5,2.9,2.3,4.7,2.3c1.3,0,2.6-0.4,3.7-1.3c2.6-2.1,3-5.8,1-8.4C237.7,683.4,226.9,667.4,217.4,650.6z"/>
	<linearGradient id="SVGID_11_" gradientUnits="userSpaceOnUse" x1="1042.3002" y1="481.6733" x2="164.5859" y2="-36.0409">
		<stop  offset="0" style="stop-color:#FFDA4E"/>
		<stop  offset="0.3198" style="stop-color:#EDBE25"/>
		<stop  offset="0.6802" style="stop-color:#D8AF28"/>
		<stop  offset="1" style="stop-color:#FFF980"/>
		<stop  offset="1" style="stop-color:#F6BE21"/>
	</linearGradient>
	<path fill="url(#SVGID_11_)" d="M401,71.7c-18.8,5.5-37.3,13.1-55,22.5c-2.9,1.6-4,5.2-2.5,8.1c1.1,2,3.2,3.2,5.3,3.2
		c0.9,0,1.9-0.2,2.8-0.7c17-9,34.7-16.2,52.8-21.5c3.2-0.9,5-4.3,4.1-7.5C407.5,72.6,404.1,70.8,401,71.7z"/>
	<linearGradient id="SVGID_12_" gradientUnits="userSpaceOnUse" x1="843.4409" y1="818.8123" x2="-34.2734" y2="301.098">
		<stop  offset="0" style="stop-color:#FFDA4E"/>
		<stop  offset="0.3198" style="stop-color:#EDBE25"/>
		<stop  offset="0.6802" style="stop-color:#D8AF28"/>
		<stop  offset="1" style="stop-color:#FFF980"/>
		<stop  offset="1" style="stop-color:#F6BE21"/>
	</linearGradient>
	<path fill="url(#SVGID_12_)" d="M164.6,445v-0.4c0-19.1,1.2-38.2,3.7-57c0.4-3.3-1.9-6.3-5.2-6.7c-3.3-0.4-6.3,1.9-6.7,5.2
		c-2.5,19.2-3.8,38.9-3.8,58.5v0.4c0,3.3,2.7,6,6,6S164.6,448.3,164.6,445z"/>
	<linearGradient id="SVGID_13_" gradientUnits="userSpaceOnUse" x1="786.9041" y1="914.6629" x2="-90.8102" y2="396.9486">
		<stop  offset="0" style="stop-color:#FFDA4E"/>
		<stop  offset="0.3198" style="stop-color:#EDBE25"/>
		<stop  offset="0.6802" style="stop-color:#D8AF28"/>
		<stop  offset="1" style="stop-color:#FFF980"/>
		<stop  offset="1" style="stop-color:#F6BE21"/>
	</linearGradient>
	<path fill="url(#SVGID_13_)" d="M171.7,523.2c-0.6-3.3-3.7-5.4-7-4.8c-3.3,0.6-5.4,3.7-4.8,7c3.6,19.4,8.5,38.7,14.6,57.3
		c0.8,2.5,3.2,4.1,5.7,4.1c0.6,0,1.3-0.1,1.9-0.3c3.1-1,4.9-4.4,3.8-7.6C179.9,560.8,175.1,542.1,171.7,523.2z"/>
	<linearGradient id="SVGID_14_" gradientUnits="userSpaceOnUse" x1="785.2193" y1="917.5191" x2="-92.495" y2="399.8048">
		<stop  offset="0" style="stop-color:#FFDA4E"/>
		<stop  offset="0.3198" style="stop-color:#EDBE25"/>
		<stop  offset="0.6802" style="stop-color:#D8AF28"/>
		<stop  offset="1" style="stop-color:#FFF980"/>
		<stop  offset="1" style="stop-color:#F6BE21"/>
	</linearGradient>
	<path fill="url(#SVGID_14_)" d="M611.6,784.6c-17,9-34.7,16.2-52.8,21.5c-3.2,0.9-5,4.3-4.1,7.4c0.8,2.6,3.2,4.3,5.8,4.3
		c0.6,0,1.1-0.1,1.7-0.2c18.8-5.5,37.3-13,55-22.4c2.9-1.5,4.1-5.2,2.5-8.1S614.6,783.1,611.6,784.6z"/>
	<linearGradient id="SVGID_15_" gradientUnits="userSpaceOnUse" x1="909.7776" y1="706.3474" x2="32.0633" y2="188.6331">
		<stop  offset="0" style="stop-color:#FFDA4E"/>
		<stop  offset="0.3198" style="stop-color:#EDBE25"/>
		<stop  offset="0.6802" style="stop-color:#D8AF28"/>
		<stop  offset="1" style="stop-color:#FFF980"/>
		<stop  offset="1" style="stop-color:#F6BE21"/>
	</linearGradient>
	<path fill="url(#SVGID_15_)" d="M178,315c0.6,0.2,1.2,0.3,1.9,0.3c2.5,0,4.9-1.6,5.7-4.1c6-18.3,13.3-36.2,21.7-53.2
		c1.5-3,0.3-6.6-2.7-8c-3-1.5-6.6-0.3-8,2.7c-8.6,17.5-16.1,35.9-22.3,54.7C173.1,310.6,174.8,313.9,178,315z"/>
	<linearGradient id="SVGID_16_" gradientUnits="userSpaceOnUse" x1="902.3077" y1="719.0116" x2="24.5935" y2="201.2973">
		<stop  offset="0" style="stop-color:#FFDA4E"/>
		<stop  offset="0.3198" style="stop-color:#EDBE25"/>
		<stop  offset="0.6802" style="stop-color:#D8AF28"/>
		<stop  offset="1" style="stop-color:#FFF980"/>
		<stop  offset="1" style="stop-color:#F6BE21"/>
	</linearGradient>
	<path fill="url(#SVGID_16_)" d="M482.8,0c-15.8,0-30.9,1.3-46,3.3C421,1.3,405.8,0,391.4,0C286.8,0,188.1,46.7,114.4,130.9
		c-3.3,3.9-6.6,7.9-9.9,11.2c-41.4,50.6-71,109.8-88.1,173.6C5.9,357.2,0,400.6,0,444.6c0,67.7,13.2,131.6,36.8,188.8
		c0,0.7,0.7,1.3,0.7,2c14.5,34.2,32.2,65.8,53.3,94.1c0.7,0.7,1.3,1.3,2,2c21,28.3,45.4,53.9,72.4,75.6c0.7,0.7,2,1.3,2.6,2
		c63.1,50,140.1,79.6,223,79.6c14.5,0,30.3-1.3,45.4-3.3c15.1,2,30.3,3.3,46,3.3c215.1,0,390.7-199.3,390.7-444
		C872.8,199.3,697.9,0,482.8,0z M324.9,38.1c-13.8,6.6-27.6,14.5-40.8,23.7h-29.6C277.6,51.3,300.6,42.8,324.9,38.1z M201.9,92.1
		h42.8c-13.8,11.8-27,25-38.8,38.8c-2,2-3.9,4.6-5.9,7.2h-50.6C165.8,121,183.5,105.2,201.9,92.1z M122.3,169h53.9
		c-13.8,19.1-25.7,40.1-36.2,61.2H82.2C94.1,208.5,107.2,188.1,122.3,169z M68.4,260.5h58.5c-5.9,15.1-11.2,30.3-15.8,46H51.3
		C55.9,290.7,61.8,275.6,68.4,260.5z M43.4,337.4h59.9c-0.7,2.6-1.3,5.9-2,8.6c-2.6,12.5-4.6,24.3-5.9,37.5H34.9
		C36.8,367.7,39.5,352.6,43.4,337.4z M30.9,444.6c0-10.5,0.7-20.4,1.3-30.9h61.2c0,0,0,0,0,0.7c-0.7,9.9-0.7,20.4-0.7,30.3
		c0,5.3,0,10.5,0.7,15.1H31.6C30.9,454.5,30.9,449.9,30.9,444.6z M33.5,490h60.5v0.7c0.7,6.6,1.3,13.2,2,19.1c0,0.7,0,0.7,0,1.3
		c1.3,8.6,2.6,17.1,3.9,25H40.1C36.8,520.9,34.9,505.8,33.5,490z M47.4,567.6h59.9V567c0.7,2,0.7,3.9,1.3,5.9c0,0.7,0.7,1.3,0.7,2
		c2.6,9.2,5.3,18.4,8.6,27.6c0.7,2,1.3,3.9,2,5.9c0.7,2,1.3,3.3,2,5.3H62.5C56.6,598.6,52,583.4,47.4,567.6z M111.2,705.1
		C97.3,686,85.5,665.6,75,643.9h57.9c2.6,5.3,4.6,10.5,7.2,15.8c1.3,2,2,4.6,3.3,6.6c3.3,5.9,6.6,12.5,9.9,18.4
		c1.3,2,2.6,4.6,3.9,6.6c3.3,4.6,6.6,9.2,9.2,13.8H111.2z M135.5,735.4h52.6c2,2,3.3,4.6,5.3,6.6c4.6,5.9,9.2,11.2,14.5,17.1
		c2.6,3.3,5.9,5.9,8.6,9.2c2.6,3.3,5.9,5.9,9.2,9.2c1.3,1.3,2.6,2.6,3.9,3.9h-46C165.1,767.6,150,752.5,135.5,735.4z M226.3,811.7
		h36.8c2,1.3,3.9,2.6,5.9,4.6c3.3,2.6,6.6,4.6,9.9,7.2c5.9,3.9,11.8,7.9,18.4,11.8c2.6,2,5.9,3.3,8.6,4.6c4.6,2.6,9.9,5.3,15.1,7.9
		c1.3,1.3,2.6,2.6,4.6,3.3C290.7,843.9,257.2,830.1,226.3,811.7z M482.8,857.7c-6.1,0-12.3-0.2-18.5-0.5l153.3-325.1l0,0
		c14-27,22.1-58.7,22.1-92.5c0-99.5-69.7-180.2-155.6-180.2s-155.6,80.7-155.6,180.2s69.7,180.2,155.6,180.2c2,0,4-0.1,6-0.1
		L384.7,842.6c-3.3-1.1-6.5-2.2-9.8-3.3c-3.3-1.3-5.9-2.6-9.2-3.3c-2-0.7-4.6-1.3-6.6-2.6c-82.2-34.9-150.6-103.3-192.1-190.7
		c0-0.7-0.7-1.3-0.7-2c-2-4.6-4.6-9.9-6.6-15.1c-0.7-2-1.3-3.9-2-5.3c-1.3-3.9-3.3-7.9-4.6-11.8c-0.7-2.6-2-4.6-2.6-7.2
		c-1.3-3.3-2.6-7.2-3.3-10.5c-0.7-2.6-2-5.3-2.6-8.6c-1.3-3.3-2-6.6-2.6-9.9c-0.7-2.6-1.3-5.9-2.6-9.2c-0.7-3.3-2-6.6-2.6-9.9
		c-0.7-3.3-1.3-5.9-2-9.2s-1.3-6.6-2-9.9c-0.7-3.3-1.3-5.9-2-9.2c-0.7-3.3-1.3-6.6-1.3-10.5c-0.7-3.3-0.7-5.9-1.3-9.2
		c-0.7-3.9-0.7-7.2-1.3-11.2c0-2.6-0.7-5.9-0.7-8.6c-0.7-3.9-0.7-8.6-0.7-13.2c0-2.6-0.7-4.6-0.7-7.2c0-6.6-0.7-13.8-0.7-20.4
		s0-13.2,0.7-19.7c0-3.3,0.7-6.6,0.7-9.9c0-3.3,0.7-6.6,0.7-9.9c0.7-4.6,0.7-9.2,1.3-13.8c0-2,0-3.3,0.7-5.3
		c0.7-5.9,1.3-11.2,2.6-16.4c0-0.7,0-1.3,0-2c11.8-73.7,41.4-140.8,82.9-194.7c0.7-0.7,1.3-2,2-2.6c2.6-3.3,5.3-6.6,7.2-9.2
		c1.3-2,2.6-3.3,4.6-5.3c2-2.6,4.6-5.3,7.2-7.9c2-2,3.3-3.9,5.3-5.9c2.6-2.6,4.6-5.3,7.2-7.9c1.3-1.3,3.3-3.3,4.6-4.6
		c2.6-2.6,5.3-5.3,8.6-7.9c1.3-1.3,2.6-2,3.3-3.3c3.3-3.3,6.6-5.9,10.5-9.2c0,0,0.7,0,0.7-0.7c47.4-39.5,103.9-65.8,165.8-74.3
		l8.6-1.3c11.8-1.3,23-2,34.9-2c198.6,0,359.8,185.5,359.8,413.7C842.6,672.2,680.8,857.7,482.8,857.7z M504.5,532.2
		c-44.1,0-79.9-41.4-79.9-92.6s35.8-92.6,79.9-92.6s79.9,41.4,79.9,92.6S548.7,532.2,504.5,532.2z"/>
</g>
</svg>
