<?xml version="1.0" encoding="utf-8"?>
<!-- Generator: Adobe Illustrator 22.1.0, SVG Export Plug-In . SVG Version: 6.00 Build 0)  -->
<svg version="1.1" id="logo_inbrand" xmlns="http://www.w3.org/2000/svg" xmlns:xlink="http://www.w3.org/1999/xlink" x="0px"
	 y="0px" viewBox="0 0 53 36.5" style="enable-background:new 0 0 53 36.5;" xml:space="preserve">
<style type="text/css">
	.st0{fill:none;}
	.st1{fill:#098850;}
</style>
<rect id="Rectangle_14269" y="0" class="st0" width="53" height="36.5"/>
<g>
	<g>
		<path class="st1" d="M2,19h13c0.3,0,0.6-0.3,0.6-0.7v-4.7c0-0.4-0.3-0.7-0.6-0.7H2c-0.3,0-0.6,0.3-0.6,0.7v4.7
			C1.4,18.7,1.6,19,2,19z"/>
		<path class="st1" d="M2,11.1h13c0.3,0,0.6-0.3,0.6-0.7V5.7C15.6,5.3,15.3,5,15,5H2C1.6,5,1.4,5.3,1.4,5.7v4.7
			C1.4,10.8,1.6,11.1,2,11.1z"/>
		<path class="st1" d="M51.8,31.2c1.1-1.5,0.8-5.8,0.8-5.8c0-0.3-0.3-0.6-0.6-0.6c0,0,0,0,0,0l-1.1,0c-0.1,0-0.2,0-0.3,0v-0.9
			c0-0.4-0.3-0.7-0.6-0.7h-1.1v-7.1c0.2-0.1,0.3-0.2,0.4-0.4l1.2-3.2c0.1-0.2,0.1-0.5,0-0.7c-0.1-0.2-0.3-0.3-0.5-0.3h-1.1v-1.1
			c0-0.4-0.3-0.7-0.6-0.7h-1.4V7.4c0-0.4-0.3-0.7-0.6-0.7h-4.8c-0.3,0-0.6,0.3-0.6,0.7v2.3h-1.1h-0.3c-0.3,0-0.6,0.3-0.6,0.7v1.1
			h-1.1c-0.2,0-0.4,0.1-0.5,0.3c-0.1,0.2-0.1,0.5,0,0.7l1.2,3.2c0.1,0.2,0.2,0.4,0.4,0.4v7.1h-1.1c-0.3,0-0.6,0.3-0.6,0.7v1.9
			l-0.8,0.9c-0.6,0-1.2,0-1.7,0V13.1H35c0.4,0,0.7-0.4,0.7-0.8V9.5c0-0.4-0.3-0.8-0.7-0.8h-2.1l-14-8.6c-0.1-0.1-0.3-0.1-0.5,0
			c-0.1,0.1-0.2,0.3-0.2,0.5v1.4c0,0.2,0.1,0.3,0.2,0.5l1.3,1.2v8.9H18c-0.3,0-0.5,0.3-0.5,0.6v3.4c0,0.3,0.2,0.6,0.5,0.6h4.4
			c0.3,0,0.5-0.3,0.5-0.6V13c0-0.3-0.2-0.6-0.5-0.6h-1.7V4.4l10.2,7.4v0.5c0,0.4,0.3,0.8,0.7,0.8h0.3v13.5c-4,0-11,0-11,0l-4-2.5
			v-2.7c0-0.4-0.3-0.7-0.6-0.7l-15.4,0c-0.2,0-0.3,0.1-0.4,0.2c-0.1,0.2-0.2,0.4-0.1,0.6L0.4,23c0.4,3.4,2.2,6.9,3.5,9.1
			c-0.6,0.4-1,1.2-1,2c0,1.3,0.9,2.4,2,2.4l2.5,0c9.4,0,42.4,0,43.7,0C54.4,36.4,52.1,31.6,51.8,31.2z M19.6,31.4
			c0,0.2-0.1,0.4-0.3,0.4h-2c-0.2,0-0.3-0.2-0.3-0.4v-1.5c0-0.2,0.1-0.4,0.3-0.4h2c0.2,0,0.3,0.2,0.3,0.4V31.4z M27.9,31.4
			c0,0.2-0.1,0.4-0.3,0.4h-2c-0.2,0-0.3-0.2-0.3-0.4v-1.5c0-0.2,0.1-0.4,0.3-0.4h2c0.2,0,0.3,0.2,0.3,0.4V31.4z M36.2,31.4
			c0,0.2-0.1,0.4-0.3,0.4h-2c-0.2,0-0.3-0.2-0.3-0.4v-1.5c0-0.2,0.1-0.4,0.3-0.4h2c0.2,0,0.3,0.2,0.3,0.4V31.4z M42.6,14.5
			c0,0.2-0.1,0.4-0.3,0.4h-2c-0.2,0-0.3-0.2-0.3-0.4V13c0-0.2,0.1-0.4,0.3-0.4h2c0.2,0,0.3,0.2,0.3,0.4V14.5z M47.4,14.5
			c0,0.2-0.1,0.4-0.3,0.4h-2c-0.2,0-0.3-0.2-0.3-0.4V13c0-0.2,0.1-0.4,0.3-0.4h2c0.2,0,0.3,0.2,0.3,0.4V14.5z"/>
	</g>
</g>
</svg>
