<?xml version="1.0" encoding="utf-8"?>
<!-- Generator: Adobe Illustrator 22.1.0, SVG Export Plug-In . SVG Version: 6.00 Build 0)  -->
<svg version="1.1" id="logo_customercenter" xmlns="http://www.w3.org/2000/svg" xmlns:xlink="http://www.w3.org/1999/xlink"
	 x="0px" y="0px" viewBox="0 0 53 36.5" style="enable-background:new 0 0 53 36.5;" xml:space="preserve">
<style type="text/css">
	.st0{fill:#FFFFFF;}
	.st1{fill:#098850;}
	.st2{fill:#D12027;}
</style>
<g id="logoeTEM_1_" transform="translate(11964.895 8494.766)">
	<path id="Ellipse_87_1_" class="st0" d="M-11939.9-8484.1c14.4-2.5,26.8-0.9,27.7,3.7c0.8,4.6-10.3,10.4-24.7,12.9
		c-14.4,2.5-26.8,0.9-27.7-3.7C-11965.4-8475.7-11954.3-8481.6-11939.9-8484.1z"/>
	<path id="Path_3849_1_" class="st1" d="M-11940.2-8479.6h-2v6.5c0,0.4-0.1,0.7-0.2,0.8c-0.2,0.2-0.4,0.3-0.7,0.3
		c-0.2,0-0.5-0.1-0.7-0.3c-0.2-0.2-0.3-0.5-0.3-0.8v-6.5h-2c-0.2,0-0.5-0.1-0.7-0.2c-0.3-0.3-0.3-0.8,0-1.1l0,0
		c0.2-0.2,0.5-0.2,0.7-0.2h5.8c0.2,0,0.5,0.1,0.7,0.2c0.3,0.3,0.3,0.8,0,1.1l0,0C-11939.7-8479.7-11939.9-8479.6-11940.2-8479.6z"/>
	<path id="Path_3850_1_" class="st1" d="M-11932.3-8479.7h-4.1v2.2h3.8c0.2,0,0.5,0.1,0.6,0.2c0.1,0.1,0.2,0.3,0.2,0.5
		c0,0.2-0.1,0.4-0.2,0.5c-0.2,0.2-0.4,0.2-0.6,0.2h-3.8v2.5h4.2c0.2,0,0.5,0.1,0.6,0.2c0.2,0.1,0.2,0.3,0.2,0.5
		c0,0.2-0.1,0.4-0.2,0.5c-0.2,0.2-0.4,0.2-0.6,0.2h-5c-0.4,0-0.7-0.1-0.8-0.3c-0.2-0.2-0.3-0.5-0.3-0.8v-6.8c0-0.2,0.1-0.5,0.1-0.6
		c0.1-0.2,0.2-0.3,0.4-0.3c0.2-0.1,0.4-0.1,0.6-0.1h4.8c0.2,0,0.5,0.1,0.6,0.2c0.2,0.1,0.2,0.3,0.2,0.5c0,0.2-0.1,0.4-0.2,0.5
		C-11931.9-8479.8-11932.1-8479.7-11932.3-8479.7z"/>
	<path id="Path_3851_1_" class="st1" d="M-11926.8-8473.5l-1.5-5.8v6.2c0,0.3-0.1,0.6-0.2,0.8c-0.2,0.2-0.4,0.3-0.6,0.3
		c-0.2,0-0.5-0.1-0.6-0.3c-0.2-0.2-0.2-0.5-0.2-0.8v-7.1c0-0.4,0.1-0.7,0.3-0.8c0.2-0.2,0.6-0.2,0.8-0.2h0.6c0.2,0,0.5,0,0.7,0.1
		c0.2,0.1,0.3,0.2,0.3,0.3c0.1,0.2,0.2,0.5,0.2,0.8l1.3,4.9l1.3-4.9c0.1-0.3,0.2-0.5,0.2-0.8c0.1-0.2,0.2-0.3,0.3-0.3
		c0.2-0.1,0.5-0.1,0.7-0.1h0.6c0.3,0,0.6,0.1,0.8,0.2c0.2,0.1,0.3,0.4,0.3,0.8v7.1c0,0.3-0.1,0.6-0.2,0.8c-0.2,0.2-0.4,0.3-0.6,0.3
		s-0.5-0.1-0.6-0.3c-0.2-0.2-0.2-0.5-0.2-0.8v-6.2l-1.5,5.8c-0.1,0.4-0.2,0.6-0.2,0.8c-0.1,0.2-0.2,0.3-0.3,0.5
		c-0.2,0.2-0.5,0.2-0.7,0.2c-0.2,0-0.4-0.1-0.6-0.1c-0.2-0.1-0.3-0.2-0.3-0.3c-0.1-0.2-0.2-0.3-0.2-0.5
		C-11926.7-8473.1-11926.8-8473.3-11926.8-8473.5z"/>
	<path id="Path_3852_1_" class="st2" d="M-11949.5-8475.7h-4.1c0,0.5,0.1,0.8,0.3,1.2c0.2,0.3,0.4,0.6,0.7,0.8
		c0.3,0.2,0.7,0.3,1,0.3c0.2,0,0.5,0,0.7-0.1c0.2-0.1,0.4-0.2,0.6-0.3c0.2-0.1,0.4-0.3,0.6-0.4c0.2-0.2,0.4-0.3,0.6-0.6
		c0.1-0.1,0.3-0.2,0.5-0.1c0.2,0,0.4,0.1,0.5,0.2c0.1,0.1,0.2,0.3,0.2,0.5c0,0.2-0.1,0.5-0.2,0.7c-0.2,0.3-0.4,0.5-0.7,0.7
		c-0.3,0.3-0.7,0.5-1.1,0.6c-0.5,0.2-1,0.2-1.6,0.2c-1.4,0-2.4-0.4-3.2-1.1c-0.7-0.8-1.1-1.8-1.1-3.1c0-0.6,0.1-1.2,0.3-1.7
		c0.2-0.5,0.5-1,0.8-1.4c0.3-0.4,0.8-0.7,1.3-0.8c0.6-0.2,1.1-0.3,1.8-0.3c0.7,0,1.5,0.2,2.1,0.5c0.6,0.3,1,0.8,1.3,1.4
		c0.3,0.5,0.5,1.1,0.5,1.7c0,0.5-0.2,0.8-0.5,1C-11948.6-8475.7-11949-8475.6-11949.5-8475.7z M-11953.6-8476.9h3.8
		c-0.1-0.7-0.2-1.2-0.6-1.6c-0.3-0.3-0.8-0.6-1.3-0.5c-0.5,0-1,0.2-1.3,0.6C-11953.3-8478.1-11953.5-8477.6-11953.6-8476.9
		L-11953.6-8476.9z"/>
	<path id="Path_14164_1_" class="st1" d="M-11949.6-8466.3c-4.2,0-7.8-0.5-10.5-1.3c-1.4-0.5-2.4-1-3.2-1.6
		c-0.8-0.6-1.3-1.4-1.4-2.1c-0.1-0.3-0.1-0.6,0-0.9c0.1-0.3,0.1-0.6,0.2-0.9c0.2-0.6,0.7-1.2,1.2-1.9c0.6-0.6,1.3-1.2,2.1-1.9
		c1-0.7,2-1.2,3-1.8c1.1-0.6,2.4-1.1,3.7-1.7s2.8-1.1,4.3-1.5c1.5-0.5,3.2-1,4.9-1.4c1.7-0.4,3.5-0.8,5.2-1.1
		c2.2-0.4,4.4-0.7,6.6-0.8c2.1-0.2,4.1-0.3,6.1-0.3c4.2,0,7.8,0.5,10.5,1.3c1.4,0.5,2.4,1,3.2,1.6c0.8,0.6,1.3,1.4,1.4,2.1
		c0.1,0.3,0.1,0.6,0,0.9c-0.1,0.3-0.1,0.6-0.2,0.9c-0.2,0.6-0.7,1.2-1.2,1.9c-0.6,0.6-1.3,1.2-2.1,1.9c-1,0.7-2,1.2-3,1.8
		c-1.1,0.6-2.4,1.1-3.7,1.7s-2.8,1.1-4.3,1.5c-1.5,0.5-3.2,1-4.9,1.4c-1.7,0.4-3.5,0.8-5.2,1.1c-2.2,0.4-4.4,0.7-6.6,0.8
		C-11945.6-8466.4-11947.6-8466.3-11949.6-8466.3z M-11927.2-8485.2c-1.9,0-4,0.1-6.1,0.3c-2.1,0.2-4.4,0.5-6.6,0.8
		c-6.9,1.2-13.4,3.2-18,5.6c-1,0.5-2,1.1-3,1.7c-0.8,0.6-1.6,1.2-2.1,1.8c-1.2,1.2-1.7,2.4-1.5,3.6c0.1,0.7,0.6,1.5,1.4,2.1
		c0.7,0.6,1.8,1.1,3.1,1.5c2.6,0.8,6.2,1.2,10.3,1.2l0,0c1.9,0,4-0.1,6.1-0.3c2.1-0.2,4.4-0.5,6.6-0.8c6.9-1.2,13.4-3.2,18-5.6
		c1-0.5,2-1.1,3-1.7c0.8-0.6,1.6-1.2,2.1-1.8c1.2-1.2,1.7-2.4,1.5-3.6c-0.1-0.7-0.6-1.5-1.4-2.1c-0.7-0.6-1.8-1.1-3.1-1.5
		C-11919.5-8484.7-11923-8485.2-11927.2-8485.2L-11927.2-8485.2L-11927.2-8485.2z"/>
	<g id="Group_3351_1_" transform="translate(-10912.18 -8452.823)">
		<ellipse id="Ellipse_91_1_" class="st0" cx="-1003.7" cy="-31" rx="3" ry="3"/>
		<g id="Group_3349_1_" transform="translate(31.192 20.667)">
			<path id="Path_3853_1_" class="st1" d="M-1033.3-50.9c0,0.4-0.2,0.8-0.5,1.1c-0.3,0.3-0.7,0.4-1.1,0.4c-0.3,0-0.6-0.1-0.9-0.2
				s-0.5-0.4-0.6-0.7c-0.2-0.3-0.2-0.7-0.2-1v-0.4c0-0.3,0.1-0.7,0.2-1.1c0.1-0.3,0.3-0.5,0.6-0.7c0.3-0.2,0.6-0.2,0.9-0.2
				c0.4,0,0.8,0.1,1.1,0.4c0.3,0.3,0.5,0.7,0.5,1.1h-0.7c0-0.2-0.1-0.5-0.3-0.7c-0.4-0.3-1-0.2-1.4,0.2c-0.2,0.2-0.3,0.6-0.3,1v0.4
				c0,0.5,0.1,0.8,0.2,1c0.2,0.2,0.5,0.4,0.7,0.3c0.2,0,0.5-0.1,0.6-0.2c0.2-0.2,0.3-0.4,0.3-0.6L-1033.3-50.9L-1033.3-50.9z"/>
		</g>
		<path id="Subtraction_2_1_" class="st1" d="M-1003.8-27.9c-1.7,0-3-1.4-3-3s1.4-3,3-3s3,1.4,3,3l0,0
			C-1000.7-29.3-1002.1-27.9-1003.8-27.9z M-1003.8-33.9c-1.6,0-2.9,1.3-2.9,2.9s1.3,2.9,2.9,2.9s2.9-1.3,2.9-2.9l0,0
			C-1000.8-32.6-1002.1-33.9-1003.8-33.9z"/>
	</g>
</g>
</svg>
