<?xml version="1.0" encoding="utf-8"?>
<!-- Generator: Adobe Illustrator 22.1.0, SVG Export Plug-In . SVG Version: 6.00 Build 0)  -->
<svg version="1.1" id="logo_inbrand" xmlns="http://www.w3.org/2000/svg" xmlns:xlink="http://www.w3.org/1999/xlink" x="0px"
	 y="0px" viewBox="0 0 53 36.5" style="enable-background:new 0 0 53 36.5;" xml:space="preserve">
<style type="text/css">
	.st0{fill:none;}
	.st1{fill:#098850;}
	.st2{fill:none;stroke:#098850;stroke-miterlimit:10;}
</style>
<rect id="Rectangle_14269" y="0" class="st0" width="53" height="36.5"/>
<path class="st1" d="M50.3,18.1l-2.8-3.7l0,0l-4.6-9.1c-0.3-0.5-0.8-0.8-1.4-0.8h-6.5V3c0-0.8-0.7-1.5-1.5-1.5H8.2
	C7.3,1.5,6.7,2.2,6.7,3c0,0.8,0.7,1.5,1.5,1.5h0.4v3.2h10.8c0.8,0,1.5,0.7,1.5,1.5c0,0.8-0.7,1.5-1.5,1.5H8.6v2.9h8.3
	c0.8,0,1.5,0.7,1.5,1.5s-0.7,1.5-1.5,1.5H8.6v2.9h4.8c0.8,0,1.5,0.7,1.5,1.5c0,0.8-0.7,1.5-1.5,1.5H8.6v4.7H8.2
	c-0.8,0-1.5,0.7-1.5,1.5c0,0.8,0.7,1.5,1.5,1.5h4c0.7,2.6,3.1,4.5,5.9,4.5c2.8,0,5.2-1.9,5.9-4.5h9c0.7,2.6,3.1,4.5,5.9,4.5
	c2.8,0,5.2-1.9,5.9-4.5h4.4c0.8,0,1.5-0.7,1.5-1.5v-9.9C50.6,18.7,50.5,18.4,50.3,18.1z M18,31.9c-1.7,0-3-1.4-3-3c0-1.7,1.4-3,3-3
	c1.7,0,3,1.4,3,3C21.1,30.6,19.7,31.9,18,31.9z M38.8,31.9c-1.7,0-3-1.4-3-3c0-1.7,1.4-3,3-3c1.7,0,3,1.4,3,3
	C41.9,30.6,40.5,31.9,38.8,31.9z M35.1,13.7V7.6h5.6l3.1,6.1H35.1z"/>
<g>
	<g>
		<path class="st2" d="M13.4,19.7h-7c-0.8,0-1.5,0.7-1.5,1.5c0,0.8,0.7,1.5,1.5,1.5h7c0.8,0,1.5-0.7,1.5-1.5
			C14.9,20.4,14.2,19.7,13.4,19.7z"/>
	</g>
</g>
<g>
	<g>
		<path class="st2" d="M16.9,13.7h-13c-0.8,0-1.5,0.7-1.5,1.5s0.7,1.5,1.5,1.5h13c0.8,0,1.5-0.7,1.5-1.5
			C18.4,14.4,17.7,13.7,16.9,13.7z"/>
	</g>
</g>
<g>
	<g>
		<path class="st2" d="M19.3,7.7h-13c-0.8,0-1.5,0.7-1.5,1.5c0,0.8,0.7,1.5,1.5,1.5h13c0.8,0,1.5-0.7,1.5-1.5
			C20.9,8.4,20.2,7.7,19.3,7.7z"/>
	</g>
</g>
</svg>
