<svg id="logo_skycic" xmlns="http://www.w3.org/2000/svg" width="53" height="36.45" viewBox="0 0 53 36.45">
  <g id="logo_skycic-2" data-name="logo_skycic" transform="translate(10 1.3)">
    <g id="Group_980" data-name="Group 980" transform="translate(0 0)">
      <path id="Path_3004" data-name="Path 3004" d="M-290.155-136.99l-9.745,2.574,0-9.751,9.745-2.574Z" transform="translate(299.899 163.047)" fill="#098850"/>
      <path id="Path_3005" data-name="Path 3005" d="M-270.174-132.276l-9.745,2.574,0-9.751,9.745-2.574Z" transform="translate(290.584 160.849)" fill="#098850"/>
      <path id="Path_3006" data-name="Path 3006" d="M-250.2-127.557l-9.745,2.574,0-9.751,9.745-2.574Z" transform="translate(281.271 158.649)" fill="#098850"/>
      <path id="Path_3007" data-name="Path 3007" d="M-250.189-147.55l-9.745,2.574,0-9.751,9.745-2.574Z" transform="translate(281.266 167.97)" fill="#098850"/>
      <path id="Path_3008" data-name="Path 3008" d="M-250.189-167.538l-9.745,2.574,0-9.751,9.745-2.574Z" transform="translate(281.266 177.289)" fill="#098850"/>
      <path id="Path_3009" data-name="Path 3009" d="M-270.174-152.262l-9.745,2.574,0-9.751,9.745-2.574Z" transform="translate(290.584 170.167)" fill="#098850"/>
    </g>
  </g>
  <rect id="Rectangle_14269" data-name="Rectangle 14269" width="53" height="36.45" fill="none"/>
</svg>
