<svg id="logo_dms" xmlns="http://www.w3.org/2000/svg" width="53" height="36.45" viewBox="0 0 53 36.45">
  <g id="logo_DMS-2" data-name="logo_DMS" transform="translate(4 1.2)">
    <g id="Group_8" data-name="Group 8" transform="translate(0 0)">
      <path id="Path_6" data-name="Path 6" d="M65.482,29.171h0l-.028-.028-.056-.056c-.028-.028-.056-.028-.084-.084a4.758,4.758,0,0,0-.724-.585,9.607,9.607,0,0,0-5.454-2H57.995a3.7,3.7,0,0,1-3.7-3.7h0v-.3h0c-.111-3.286-2.395-5.9-5.235-5.9-2.9,0-5.235,2.727-5.235,6.126,0,3.369,2.339,6.126,5.235,6.126a4.242,4.242,0,0,0,1.17-.167c1.141-.139,2.813-.334,3.675-.334,2.479,0,2.785.7,2.785.7h0a7.5,7.5,0,0,0-1.559,1.919h0a8.623,8.623,0,0,0-.585,1.253v.028c-.056.111-.529,1.313-1.393,4.094-.557,1.81-2.84,1.7-2.84,1.7H46.471c-2.45,0-3.453-3.4-3.453-3.425-1.476-4.623-5.179-8.08-9.691-8.08-5.656,0-10.219,5.347-10.219,11.918s4.567,11.918,10.219,11.918a9.834,9.834,0,0,0,7.992-4.455h0a12.277,12.277,0,0,1,2.534-2.673,9.226,9.226,0,0,1,2.785-1.616,5.878,5.878,0,0,1,2.06-.39h4.4a7.588,7.588,0,0,1,3.675,1.03s.334.223.445.3a7.91,7.91,0,0,0,1.111.669h0A6.268,6.268,0,0,0,61,43.754c3.9,0,7.07-3.675,7.07-8.243a9.134,9.134,0,0,0-2.591-6.341ZM48.468,22.626c0-1.894.946-3.425,2.121-3.425s2.121,1.531,2.121,3.425-.946,3.425-2.121,3.425C49.386,26.052,48.468,24.519,48.468,22.626ZM37.055,45.571c-2.339,0-4.233-3.063-4.233-6.878s1.894-6.878,4.233-6.878,4.225,3.067,4.225,6.879-1.919,6.878-4.229,6.878Zm26.064-5.485c-1.559,0-2.84-2.06-2.84-4.623s1.277-4.621,2.836-4.621,2.84,2.089,2.84,4.623-1.281,4.621-2.84,4.621Z" transform="translate(-23.107 -16.503)" fill="#098850"/>
    </g>
  </g>
  <rect id="Rectangle_14269" data-name="Rectangle 14269" width="53" height="36.45" fill="none"/>
</svg>
