<?xml version="1.0" encoding="utf-8"?>
<!-- Generator: Adobe Illustrator 22.1.0, SVG Export Plug-In . SVG Version: 6.00 Build 0)  -->
<svg version="1.1" id="Layer_1" xmlns="http://www.w3.org/2000/svg" xmlns:xlink="http://www.w3.org/1999/xlink" x="0px" y="0px"
	 viewBox="0 0 277.3 803" style="enable-background:new 0 0 277.3 803;" xml:space="preserve">
<style type="text/css">
	.st0{fill:#4A2973;}
	.st1{fill:#6A4B97;}
	.st2{fill:#073F2B;}
	.st3{fill:#10543D;}
</style>
<g>
	<g>
		<g>
			<g>
				<path class="st0" d="M152.1,803c0,0,21-35,28-61c6.8-25.4,8-94-8-127s-24-48-44-69s-70-54-91-85s-32-62-32-62l7,2
					c0,0-12-35-11-63s2-44,2-44s25,56,48,77s32,30,58,42s66,36,86,61s48,67,53,111s-2,102-17,130s-32,51-44,62s-17,15-21,18
					S152.1,803,152.1,803L152.1,803z"/>
			</g>
			<g>
				<path class="st1" d="M222.1,731c0,0-1.6-70.9-22-114c-16.1-34-37.2-60.7-77-82c-39.8-21.4-84-66-95-85s-23-51-23-51l6,1
					c0,0-12-30-11-54s2-54,2-54s18,37,33,59c14,20.5,49.5,51.6,91,69c43,18,92,70,111,122c17.3,47.3,22,90.8,8,136
					C232.1,720,222.1,731,222.1,731z"/>
			</g>
		</g>
		<g>
			<g>
				<path class="st2" d="M125.2,0c0,0-21,35-28,61c-6.8,25.4-8,94,8,127s24,48,44,69s70,54,91,85s32,62,32,62l-7-2c0,0,12,35,11,63
					s-2,44-2,44s-25-56-48-77s-32-30-58-42s-66-36-86-61s-48-67-53-111s2-102,17-130s32-51,44-62s17-15,21-18S125.2,0,125.2,0
					L125.2,0z"/>
			</g>
			<g>
				<path class="st3" d="M55.2,72c0,0,1.6,70.9,22,114c16.1,34,37.2,60.7,77,82c39.8,21.4,84,66,95,85s23,51,23,51l-6-1
					c0,0,12,30,11,54s-2,54-2,54s-18-37-33-59c-14-20.5-49.5-51.6-91-69c-43-18-92-70-111-122c-17.3-47.3-22-90.8-8-136
					C45.2,83,55.2,72,55.2,72z"/>
			</g>
		</g>
		<g>
			<g>
				<path class="st2" d="M85.4,564c0,0-9.2,15.4-12.3,26.9c-3,11.2-3.5,41.4,3.5,55.9c7,14.5,10.6,21.1,19.4,30.4
					s30.8,23.8,40.1,37.4s14.1,27.3,14.1,27.3l-3.1-0.9c0,0,5.3,15.4,4.8,27.7c-0.4,12.3-0.9,19.4-0.9,19.4s-11-24.7-21.1-33.9
					s-14.1-13.2-25.5-18.5s-29.1-15.9-37.9-26.9c-8.8-11-21.1-29.5-23.3-48.9s0.9-44.9,7.5-57.2c6.6-12.3,14.1-22.5,19.4-27.3
					c5.3-4.8,7.5-6.6,9.2-7.9C81,566.2,85.4,564,85.4,564L85.4,564z"/>
			</g>
			<g>
				<path class="st3" d="M54.6,595.7c0,0,0.7,31.2,9.7,50.2c7.1,15,16.4,26.7,33.9,36.1c17.5,9.4,37,29.1,41.8,37.4
					c4.8,8.4,10.1,22.5,10.1,22.5l-2.6-0.4c0,0,5.3,13.2,4.8,23.8s-0.9,23.8-0.9,23.8s-7.9-16.3-14.5-26c-6.2-9-21.8-22.7-40.1-30.4
					c-18.9-7.9-40.5-30.8-48.9-53.7c-7.6-20.8-9.7-40-3.5-59.9C50.2,600.5,54.6,595.7,54.6,595.7z"/>
			</g>
		</g>
	</g>
</g>
</svg>
