<?xml version="1.0" encoding="utf-8"?>
<!-- Generator: Adobe Illustrator 22.1.0, SVG Export Plug-In . SVG Version: 6.00 Build 0)  -->
<svg version="1.1" id="logo_qinvoice" xmlns="http://www.w3.org/2000/svg" xmlns:xlink="http://www.w3.org/1999/xlink" x="0px"
	 y="0px" viewBox="0 0 53 36.5" style="enable-background:new 0 0 53 36.5;" xml:space="preserve">
<style type="text/css">
	.st0{fill:none;}
	.st1{fill:#098850;}
</style>
<rect id="Rectangle_14269_5_" y="0" class="st0" width="53" height="36.5"/>
<g id="Group_3768_1_" transform="translate(29 9)">
	<path id="Path_14142_1_" class="st1" d="M16.8,3.4L16.8,3.4L14-1.4c0-0.1-0.1-0.1-0.2-0.1L-2.4-7.3h-0.2l-16.2,5.9L-19-1.2
		l-2.8,4.8v0.3c0,0.1,0.1,0.2,0.2,0.3l13.8,5.9h0.1c0.1,0,0.1,0,0.2-0.1l3.8-6.1l1.1,0.4h0.2l1.1-0.4l3.9,6C2.6,10,2.7,10,2.8,10
		h0.1l13.7-6c0.1-0.1,0.2-0.1,0.2-0.3C16.8,3.6,16.9,3.5,16.8,3.4C16.8,3.4,16.8,3.4,16.8,3.4z M-2.4,2.6l-11.7-4l11.6-4.2L9.2-1.5
		L-2.4,2.6z"/>
	<path id="Path_14143_1_" class="st1" d="M13.4,7.6L13.4,7.6c-0.1-0.1-0.2-0.1-0.3,0c0,0,0,0,0,0c0,0-10.4,4.5-10.6,4.7
		c-0.2,0.1-0.4-0.2-0.4-0.2L-1.2,7c-0.1-0.1-0.2-0.2-0.3-0.1C-1.7,7-1.7,7.1-1.7,7.3v6.4h3.8c0.4,0,0.8,0.3,0.8,0.8c0,0,0,0,0,0l0,0
		V22c0,0.4-0.4,0.8-0.8,0.8h-3.8v3.3c0,0.1,0,0.2,0.1,0.3c0.1,0.1,0.1,0.1,0.2,0.1h0.1l14.6-7.8c0.1-0.1,0.2-0.2,0.2-0.4V8.1
		C13.6,7.9,13.5,7.7,13.4,7.6z"/>
	<path id="Path_14144_1_" class="st1" d="M-5.9,21.4H-3v-2.9h-2.9V21.4z M-5,19.5h1v1h-1V19.5z"/>
	<path id="Path_14145_1_" class="st1" d="M-5.9,17.6H-3v-2.9h-2.9V17.6z M-5,15.6h1v1h-1V15.6z"/>
	<path id="Path_14146_1_" class="st1" d="M-2.1,21.4h1v-1.5h0.4v0.5h1.5v-1.9H0.3V19h-1v-0.5h-1.4V21.4z"/>
	<rect id="Rectangle_14270_1_" x="-0.7" y="20.9" class="st1" width="0.5" height="0.5"/>
	<rect id="Rectangle_14271_1_" x="0.3" y="20.9" class="st1" width="0.5" height="0.5"/>
	<path id="Path_14147_1_" class="st1" d="M0.8,14.7h-2.9v2.9h2.9V14.7z M-1.1,16.6v-1h1v1H-1.1z"/>
	<path id="Path_14148_1_" class="st1" d="M-7.3,22.6c-0.4,0-0.8-0.3-0.8-0.8c0,0,0,0,0,0l0,0v-7.5c0-0.4,0.4-0.8,0.8-0.8h4.2V7.1
		c0-0.2-0.1-0.3-0.2-0.4c-0.1-0.1-0.2,0-0.3,0c0,0,0,0,0,0.1L-6.8,12c0,0-0.2,0.3-0.4,0.2C-7.6,12.1-18,7.7-18,7.7
		c-0.2,0-0.4,0.1-0.4,0.3c0,0,0,0.1,0,0.1v10.2c0,0.2,0.1,0.3,0.2,0.4l14.7,7.7h0.1c0.1,0,0.1,0,0.2-0.1c0.1-0.1,0.1-0.2,0.1-0.3
		v-3.2L-7.3,22.6z"/>
</g>
</svg>
