<?xml version="1.0" encoding="utf-8"?>
<!-- Generator: Adobe Illustrator 22.1.0, SVG Export Plug-In . SVG Version: 6.00 Build 0)  -->
<svg version="1.1" id="Layer_1" xmlns="http://www.w3.org/2000/svg" xmlns:xlink="http://www.w3.org/1999/xlink" x="0px" y="0px"
	 viewBox="0 0 54.3 54.3" style="enable-background:new 0 0 54.3 54.3;" xml:space="preserve">
<style type="text/css">
	.st0{fill:#057D5A;}
</style>
<path id="Path_1923" class="st0" d="M27.1,0C12.1,0,0,12.1,0,27.1c0,15,12.1,27.1,27.1,27.1c0,0,0,0,0,0c15,0,27.1-12.1,27.1-27.1
	c0,0,0,0,0,0C54.2,12.1,42.1,0,27.1,0z M27.1,12c2.5,0,4.6,2.1,4.6,4.6v0c0,2.5-2.1,4.6-4.6,4.6s-4.6-2.1-4.6-4.6S24.6,12,27.1,12
	C27.1,12,27.1,12,27.1,12z M33.3,39.8c0,0.7-0.6,1.3-1.3,1.3h-9.6c-0.7,0-1.3-0.6-1.3-1.3v-2.6c0-0.7,0.6-1.3,1.3-1.3l0,0h1.3v-7
	h-1.3c-0.7,0-1.3-0.6-1.3-1.3v-2.6c0-0.7,0.6-1.3,1.3-1.3h7c0.7,0,1.3,0.6,1.3,1.3v10.9h1.3c0.7,0,1.3,0.6,1.3,1.3l0,0L33.3,39.8z"
	/>
</svg>
