<?xml version="1.0" encoding="utf-8"?>
<!-- Generator: Adobe Illustrator 22.1.0, SVG Export Plug-In . SVG Version: 6.00 Build 0)  -->
<svg version="1.1" id="Layer_1" xmlns="http://www.w3.org/2000/svg" xmlns:xlink="http://www.w3.org/1999/xlink" x="0px" y="0px"
	 viewBox="0 0 63 42" style="enable-background:new 0 0 63 42;" xml:space="preserve">
<style type="text/css">
	.st0{fill:#057D5A;}
</style>
<path id="Path_1921" class="st0" d="M14,10.5v21h35v-21H14z M57.8,21c0-2.9,2.4-5.3,5.3-5.3V5.3C63,2.4,60.6,0,57.8,0H5.3
	C2.4,0,0,2.4,0,5.3v10.5c2.9,0,5.3,2.4,5.3,5.3l0,0c0,2.9-2.4,5.3-5.3,5.3l0,0v10.5C0,39.6,2.4,42,5.3,42h52.5
	c2.9,0,5.3-2.4,5.3-5.3V26.3C60.1,26.3,57.8,23.9,57.8,21L57.8,21z M52.5,9.6v22.8c0,1.4-1.2,2.6-2.6,2.6H13.1
	c-1.4,0-2.6-1.2-2.6-2.6V9.6c0-1.4,1.2-2.6,2.6-2.6h36.8C51.3,7,52.5,8.2,52.5,9.6z"/>
</svg>
