<?xml version="1.0" encoding="utf-8"?>
<!-- Generator: Adobe Illustrator 22.1.0, SVG Export Plug-In . SVG Version: 6.00 Build 0)  -->
<svg version="1.1" id="Layer_1" xmlns="http://www.w3.org/2000/svg" xmlns:xlink="http://www.w3.org/1999/xlink" x="0px" y="0px"
	 viewBox="0 0 67.5 54" style="enable-background:new 0 0 67.5 54;" xml:space="preserve">
<style type="text/css">
	.st0{fill:#057D5A;}
</style>
<path id="Path_1922" class="st0" d="M53.2,37.1H14.4c-0.5,0-0.8,0.4-0.8,0.8l0,5.1c0,0.5,0.4,0.8,0.8,0.8h38.8
	c0.5,0,0.8-0.4,0.8-0.8V38C54,37.5,53.6,37.1,53.2,37.1z M53.2,47.2H14.4c-0.5,0-0.8,0.4-0.8,0.8l0,5.1c0,0.5,0.4,0.8,0.8,0.8h38.8
	c0.5,0,0.8-0.4,0.8-0.8v-5.1C54,47.6,53.6,47.2,53.2,47.2z M53.2,27H14.4c-0.5,0-0.8,0.4-0.8,0.8l0,5.1c0,0.5,0.4,0.8,0.8,0.8h38.8
	c0.5,0,0.8-0.4,0.8-0.8v-5.1C54,27.4,53.6,27,53.2,27z M64.4,12.3l-28.7-12C35.1,0.2,34.4,0,33.7,0c-0.7,0-1.3,0.2-1.9,0.4l-28.7,12
	C1.2,13.1,0,15,0,17v36.1C0,53.6,0.4,54,0.8,54h8.4c0.5,0,0.8-0.4,0.8-0.8V27c0-1.9,1.6-3.4,3.4-3.4h40.4c1.9,0,3.4,1.5,3.4,3.4
	v26.2c0,0.5,0.4,0.8,0.8,0.8h8.4c0.5,0,0.8-0.4,0.8-0.8V17C67.5,15,66.3,13.1,64.4,12.3z"/>
</svg>
