<?xml version="1.0" encoding="utf-8"?>
<!-- Generator: Adobe Illustrator 22.1.0, SVG Export Plug-In . SVG Version: 6.00 Build 0)  -->
<svg version="1.1" id="Layer_1" xmlns="http://www.w3.org/2000/svg" xmlns:xlink="http://www.w3.org/1999/xlink" x="0px" y="0px"
	 viewBox="0 0 64.7 62.1" style="enable-background:new 0 0 64.7 62.1;" xml:space="preserve">
<style type="text/css">
	.st0{fill:#057D5A;}
</style>
<g id="certification-award" transform="translate(0 -9.904)">
	<path id="Path_832" class="st0" d="M60.2,9.9H4.5C2,9.9,0,11.9,0,14.4v35.1C0,52,2,54,4.5,54h34.4c-0.6-1.4-0.9-2.9-0.9-4.4
		l-33.5,0l0.1-35.2l55.8,0.1v35.1c0,0,0,0.1-0.1,0.1h-2c-0.1,1.5-0.4,3-0.9,4.4h3c2.5,0,4.5-2,4.5-4.5V14.4
		C64.7,11.9,62.7,9.9,60.2,9.9z"/>
	<path id="Path_833" class="st0" d="M48,58.8c4.4,0,8-4.5,8-10.1s-3.6-10.1-8-10.1s-8,4.5-8,10.1S43.6,58.8,48,58.8z"/>
	<path id="Path_834" class="st0" d="M10.7,24.2h19.7c1.2,0,2.2-1,2.2-2.2s-1-2.2-2.2-2.2c0,0,0,0,0,0H10.7c-1.2,0-2.2,1-2.2,2.2
		C8.5,23.2,9.5,24.2,10.7,24.2z"/>
	<path id="Path_835" class="st0" d="M54.7,31.9c0-1.2-1-2.2-2.2-2.2c0,0,0,0,0,0H10.7c-1.2,0-2.2,1-2.2,2.2c0,1.2,1,2.2,2.2,2.2
		h41.8C53.7,34.2,54.7,33.2,54.7,31.9C54.7,31.9,54.7,31.9,54.7,31.9z"/>
	<path id="Path_836" class="st0" d="M10.7,39.7c-1.2,0-2.2,1-2.2,2.2c0,1.2,1,2.2,2.2,2.2h19.7c1.2,0,2.2-1,2.2-2.2s-1-2.2-2.2-2.2
		c0,0,0,0,0,0H10.7z"/>
	<path id="Path_837" class="st0" d="M54.8,58c0,0-3.1,3.5-7.3,3l5.3,10.8c0.1,0.1,0.2,0.2,0.3,0.2h0c0.2,0,0.3-0.1,0.3-0.3l1.3-4.1
		c0-0.1,0.1-0.2,0.2-0.2c0.1,0,0.1,0,0.2,0c0,0,0.1,0,0.1,0l4.1,1.4c0,0,0.1,0,0.1,0c0.2,0,0.4-0.2,0.4-0.4c0-0.1,0-0.1,0-0.2
		L54.8,58z"/>
	<path id="Path_838" class="st0" d="M41.3,58C41.3,58,41.3,58,41.3,58l-5.1,10.3c-0.1,0.2,0,0.4,0.2,0.5c0.1,0,0.1,0,0.2,0
		c0,0,0.1,0,0.1,0l4.1-1.4c0.2-0.1,0.4,0,0.5,0.2c0,0,0,0,0,0l1.3,4.1c0,0.1,0.2,0.3,0.3,0.3h0c0.1,0,0.3-0.1,0.3-0.2l3.5-7
		l-2.2-4.5C43.4,59.8,42.3,59,41.3,58z"/>
</g>
</svg>
