<?xml version="1.0" encoding="utf-8"?>
<!-- Generator: Adobe Illustrator 22.1.0, SVG Export Plug-In . SVG Version: 6.00 Build 0)  -->
<svg version="1.1" id="Layer_1" xmlns="http://www.w3.org/2000/svg" xmlns:xlink="http://www.w3.org/1999/xlink" x="0px" y="0px"
	 viewBox="0 0 69.5 48.7" style="enable-background:new 0 0 69.5 48.7;" xml:space="preserve">
<style type="text/css">
	.st0{fill:#057D5A;}
</style>
<path id="Path_1920" class="st0" d="M10.4,20.9c3.8,0,6.9-3.1,7-7c0-3.8-3.1-7-7-7c-3.8,0-6.9,3.1-7,7C3.5,17.7,6.6,20.9,10.4,20.9z
	 M59.1,20.9c3.8,0,6.9-3.1,7-7c0-3.8-3.1-7-7-7c-3.8,0-6.9,3.1-7,7C52.1,17.7,55.3,20.9,59.1,20.9z M62.6,24.3h-7
	c-1.8,0-3.6,0.7-4.9,2c4.5,2.4,7.5,6.8,8.2,11.9H66c1.9,0,3.5-1.6,3.5-3.5c0,0,0,0,0,0v-3.5C69.5,27.4,66.4,24.3,62.6,24.3z
	 M34.8,24.3c6.7,0,12.2-5.4,12.2-12.2c0,0,0,0,0,0C46.9,5.5,41.5,0,34.8,0c0,0,0,0,0,0C28,0,22.6,5.4,22.6,12.2c0,0,0,0,0,0
	C22.6,18.9,28,24.3,34.8,24.3C34.8,24.3,34.8,24.3,34.8,24.3z M43.1,27.8h-0.9c-2.3,1.1-4.9,1.7-7.4,1.7c-2.6,0-5.1-0.6-7.4-1.7
	h-0.9c-6.9,0-12.5,5.6-12.5,12.5v3.1c0,2.9,2.3,5.2,5.2,5.2h31.3c2.9,0,5.2-2.3,5.2-5.2v-3.1C55.6,33.4,50,27.8,43.1,27.8z
	 M18.8,26.4c-1.3-1.3-3.1-2-4.9-2H7c-3.8,0-6.9,3.1-7,7v3.5c0,1.9,1.6,3.5,3.5,3.5c0,0,0,0,0,0h7.2C11.3,33.2,14.3,28.8,18.8,26.4z"
	/>
</svg>
