<?xml version="1.0" encoding="utf-8"?>
<!-- Generator: Adobe Illustrator 22.1.0, SVG Export Plug-In . SVG Version: 6.00 Build 0)  -->
<svg version="1.1" id="Layer_1" xmlns="http://www.w3.org/2000/svg" xmlns:xlink="http://www.w3.org/1999/xlink" x="0px" y="0px"
	 viewBox="0 0 389.9 372.5" style="enable-background:new 0 0 389.9 372.5;" xml:space="preserve">
<style type="text/css">
	.st0{fill:#1592E6;}
</style>
<g id="Group_128" transform="translate(-1505.419 -99.826)">
	<g id="Group_127">
		<g id="Group_126">
			<g id="Group_125">
				<path id="Path_311" class="st0" d="M1723.9,146.9l3.4-5.3l24.1-22.1c-59.9-11.9-121.9,5-167.4,45.7
					c-62.2,54.8-71.6,148.4-21.4,214.4l-25.7,23.7l82.5,10.8l-11.8-75.8l-21,19.2c-37.3-54-28.3-127.4,20.9-170.7
					C1639.2,158.4,1681.2,143.9,1723.9,146.9z"/>
				<path id="Path_312" class="st0" d="M1852,157l-82.5-10.9l11.8,76l22.9-21.1c47.7,53.8,42.8,136.1-11,183.9c0,0-0.1,0.1-0.1,0.1
					c-36.6,32.9-86.4,46.9-134.8,37.9l-27.4,25.1c64.9,19.5,135.2,3.8,185.7-41.4c65.9-58.3,72-158.9,13.7-224.8
					c-0.8-0.9-1.6-1.8-2.4-2.7L1852,157z"/>
			</g>
		</g>
	</g>
</g>
</svg>
