<?xml version="1.0" encoding="utf-8"?>
<!-- Generator: Adobe Illustrator 22.1.0, SVG Export Plug-In . SVG Version: 6.00 Build 0)  -->
<svg version="1.1" id="Layer_1" xmlns="http://www.w3.org/2000/svg" xmlns:xlink="http://www.w3.org/1999/xlink" x="0px" y="0px"
	 viewBox="0 0 18 18" style="enable-background:new 0 0 18 18;" xml:space="preserve">
<style type="text/css">
	.st0{fill:#057D5A;}
</style>
<path id="Path_1934" class="st0" d="M7.6,0C7.1,0,6.8,0.4,6.8,0.8c0,0,0,0,0,0v5.9H3.7C3.3,6.7,3,7.1,3,7.4C3,7.6,3,7.8,3.2,8
	l5.4,5.3c0.3,0.3,0.7,0.3,1,0L14.8,8c0.3-0.3,0.3-0.7,0-1c-0.1-0.1-0.3-0.2-0.5-0.2h-3.1V0.8c0-0.5-0.4-0.8-0.8-0.8c0,0,0,0,0,0H7.6
	z M18,13.2c0-0.5-0.4-0.8-0.8-0.8c0,0,0,0,0,0H12l-1.7,1.7c-0.7,0.7-1.8,0.7-2.5,0c0,0,0,0,0,0L6,12.4H0.8c-0.5,0-0.8,0.4-0.8,0.8
	c0,0,0,0,0,0v3.9C0,17.6,0.4,18,0.8,18c0,0,0,0,0,0h16.3c0.5,0,0.8-0.4,0.8-0.8c0,0,0,0,0,0V13.2z M13.6,16.3c0,0.4-0.3,0.7-0.7,0.7
	s-0.7-0.3-0.7-0.7c0-0.4,0.3-0.7,0.7-0.7l0,0C13.3,15.6,13.6,15.9,13.6,16.3z M15.9,16.3c0,0.4-0.3,0.7-0.7,0.7s-0.7-0.3-0.7-0.7
	c0-0.4,0.3-0.7,0.7-0.7l0,0C15.6,15.6,15.9,15.9,15.9,16.3z"/>
</svg>
