<?xml version="1.0" encoding="utf-8"?>
<!-- Generator: Adobe Illustrator 22.1.0, SVG Export Plug-In . SVG Version: 6.00 Build 0)  -->
<svg version="1.1" id="Layer_1" xmlns="http://www.w3.org/2000/svg" xmlns:xlink="http://www.w3.org/1999/xlink" x="0px" y="0px"
	 viewBox="0 0 17.5 20" style="enable-background:new 0 0 17.5 20;" xml:space="preserve">
<style type="text/css">
	.st0{fill:#576271;}
</style>
<path id="Path_1932" class="st0" d="M8.8,10c2.8,0,5-2.2,5-5s-2.2-5-5-5s-5,2.2-5,5S6,10,8.8,10z M12.3,11.3h-0.6
	c-0.9,0.4-1.9,0.6-2.8,0.6c-1,0-2-0.2-2.9-0.6H5.3c-2.9,0-5.2,2.4-5.3,5.3v1.6c0,1,0.8,1.9,1.9,1.9h13.8c1,0,1.9-0.8,1.9-1.9v-1.6
	C17.5,13.6,15.1,11.3,12.3,11.3z"/>
</svg>
