<?xml version="1.0" encoding="utf-8"?>
<!-- Generator: Adobe Illustrator 22.1.0, SVG Export Plug-In . SVG Version: 6.00 Build 0)  -->
<svg version="1.1" id="Layer_1" xmlns="http://www.w3.org/2000/svg" xmlns:xlink="http://www.w3.org/1999/xlink" x="0px" y="0px"
	 viewBox="0 0 389.9 372.5" style="enable-background:new 0 0 389.9 372.5;" xml:space="preserve">
<style type="text/css">
	.st0{fill:#FFFFFF;stroke:#686868;stroke-width:6.8137;stroke-miterlimit:10;}
	.st1{fill:#666666;}
</style>
<g id="Group_95" transform="translate(-1007.59 -422.75)">
	<path id="Rectangle_362" class="st0" d="M1057.4,434.3h290.2c16.3,0,29.5,13.2,29.5,29.5v290.2c0,16.3-13.2,29.5-29.5,29.5h-290.2
		c-16.3,0-29.5-13.2-29.5-29.5V463.9C1027.9,447.5,1041.1,434.3,1057.4,434.3z"/>
	<g id="Group_94" transform="translate(1014.654 429.048)">
		<g id="Group_93">
			<g id="Group_92">
				<path id="Path_296" class="st1" d="M217.7,117.5l36.5,36.5l-92.5,92.5L125.3,210L217.7,117.5z M282,108.7l-16.4-16.4
					c-6.3-6.3-16.5-6.3-22.8,0L227.2,108l36.5,36.5l18.2-18.2C286.8,121.5,286.8,113.6,282,108.7L282,108.7z M106.2,261.3
					c-0.5,2.2,0.8,4.4,3,4.9c0.7,0.2,1.4,0.2,2,0l40.7-9.9l-36.5-36.5L106.2,261.3z"/>
			</g>
		</g>
	</g>
</g>
</svg>
