<?xml version="1.0" encoding="utf-8"?>
<!-- Generator: Adobe Illustrator 22.1.0, SVG Export Plug-In . SVG Version: 6.00 Build 0)  -->
<svg version="1.1" id="Layer_1" xmlns="http://www.w3.org/2000/svg" xmlns:xlink="http://www.w3.org/1999/xlink" x="0px" y="0px"
	 viewBox="0 0 19 27.1" style="enable-background:new 0 0 19 27.1;" xml:space="preserve">
<style type="text/css">
	.st0{fill:#4E4E4E;}
</style>
<g id="Group_664" transform="translate(0)">
	<path id="Path_692" class="st0" d="M9.5,0C4.2,0,0,4.2,0,9.5c0,0,0,0,0,0v0c0,7.1,9.5,17.6,9.5,17.6S19,16.6,19,9.5
		C19,4.2,14.7,0,9.5,0C9.5,0,9.5,0,9.5,0L9.5,0z M9.5,12.9c-1.9,0-3.4-1.5-3.4-3.4s1.5-3.4,3.4-3.4c1.9,0,3.4,1.5,3.4,3.4l0,0
		C12.9,11.4,11.4,12.9,9.5,12.9C9.5,12.9,9.5,12.9,9.5,12.9z"/>
</g>
</svg>
