<?xml version="1.0" encoding="utf-8"?>
<!-- Generator: Adobe Illustrator 22.1.0, SVG Export Plug-In . SVG Version: 6.00 Build 0)  -->
<svg version="1.1" id="Layer_1" focusable="false" xmlns="http://www.w3.org/2000/svg" xmlns:xlink="http://www.w3.org/1999/xlink"
	 x="0px" y="0px" viewBox="0 0 17.5 20.8" style="enable-background:new 0 0 17.5 20.8;" xml:space="preserve">
<style type="text/css">
	.st0{enable-background:new    ;}
	.st1{fill:#7B7B7B;}
</style>
<g class="st0">
	<path class="st1" d="M1.7,10.4l8.2-8.4c1.7-1.8,4.5-1.8,6.3,0c1.7,1.8,1.7,4.6,0,6.3l-7.1,7.3c-1.2,1.2-3.1,1.2-4.2,0
		c-1.1-1.2-1.1-3,0.1-4.2l5.6-5.7c0.2-0.2,0.6-0.3,0.9,0l0.9,0.9c0.2,0.2,0.3,0.6,0,0.9l-5.6,5.7c-0.2,0.2-0.2,0.5,0,0.7
		c0.2,0.2,0.4,0.2,0.6,0l7.1-7.3c0.8-0.8,0.8-2.1,0-2.8c-0.7-0.8-2-0.8-2.7,0l-8.2,8.4c-1.4,1.4-1.4,3.6,0,5c1.3,1.4,3.5,1.4,4.8,0
		l6.7-6.9c0.2-0.2,0.6-0.3,0.9,0l0.9,0.9c0.2,0.2,0.3,0.6,0,0.9L10.1,19c-2.3,2.4-6.1,2.4-8.4,0C-0.6,16.6-0.6,12.8,1.7,10.4z"/>
</g>
</svg>
