<?xml version="1.0" encoding="utf-8"?>
<!-- Generator: Adobe Illustrator 22.1.0, SVG Export Plug-In . SVG Version: 6.00 Build 0)  -->
<svg version="1.1" id="Layer_1" xmlns="http://www.w3.org/2000/svg" xmlns:xlink="http://www.w3.org/1999/xlink" x="0px" y="0px"
	 viewBox="0 0 676.5 382.4" style="enable-background:new 0 0 676.5 382.4;" xml:space="preserve">
<style type="text/css">
	.st0{enable-background:new    ;}
	.st1{fill:#141414;}
	.st2{fill:url(#Ellipse_47_1_);}
	.st3{fill:url(#Ellipse_48_1_);}
	.st4{fill:url(#Path_914_1_);}
	.st5{fill:url(#Rectangle_625_1_);}
	.st6{fill:url(#Path_915_1_);}
	.st7{fill:url(#Path_916_1_);}
	.st8{fill:url(#Path_917_1_);}
	.st9{fill:#818386;}
	.st10{fill:url(#Path_919_1_);}
	.st11{fill:url(#Path_920_1_);}
	.st12{fill:url(#Path_921_1_);}
	.st13{fill:url(#Path_922_1_);}
	.st14{fill:url(#Path_923_1_);}
	.st15{fill:url(#Rectangle_626_1_);}
	.st16{fill:#2B424C;}
	.st17{fill:#1D323B;}
	.st18{fill:url(#Path_926_1_);}
	.st19{fill:url(#Rectangle_627_1_);}
	.st20{fill:url(#Rectangle_628_1_);}
	.st21{fill:url(#Rectangle_629_1_);}
	.st22{fill:url(#Rectangle_630_1_);}
	.st23{fill:url(#Rectangle_631_1_);}
	.st24{fill:url(#Rectangle_632_1_);}
	.st25{fill:url(#Rectangle_633_1_);}
	.st26{fill:url(#Rectangle_634_1_);}
	.st27{opacity:0.3;fill:#231F20;enable-background:new    ;}
	.st28{fill:url(#Rectangle_635_1_);}
	.st29{fill:url(#Rectangle_636_1_);}
	.st30{fill:url(#Rectangle_637_1_);}
	.st31{fill:url(#Rectangle_638_1_);}
	.st32{fill:url(#Rectangle_639_1_);}
	.st33{fill:url(#Rectangle_640_1_);}
	.st34{fill:url(#Rectangle_641_1_);}
	.st35{fill:url(#Rectangle_642_1_);}
	.st36{fill:url(#Rectangle_643_1_);}
	.st37{fill:url(#Rectangle_644_1_);}
	.st38{fill:url(#Rectangle_645_1_);}
	.st39{fill:url(#Rectangle_646_1_);}
	.st40{fill:url(#Rectangle_647_1_);}
	.st41{fill:url(#Rectangle_648_1_);}
	.st42{fill:url(#Rectangle_649_1_);}
	.st43{fill:url(#Rectangle_650_1_);}
	.st44{fill:url(#Rectangle_651_1_);}
	.st45{fill:url(#Rectangle_652_1_);}
	.st46{fill:url(#Rectangle_653_1_);}
	.st47{fill:url(#Rectangle_654_1_);}
	.st48{fill:url(#Rectangle_655_1_);}
	.st49{fill:url(#Rectangle_656_1_);}
	.st50{fill:url(#Rectangle_657_1_);}
	.st51{fill:url(#Rectangle_658_1_);}
	.st52{fill:url(#Rectangle_659_1_);}
	.st53{fill:url(#Rectangle_660_1_);}
	.st54{fill:url(#Rectangle_661_1_);}
	.st55{fill:url(#Rectangle_662_1_);}
	.st56{opacity:0.3;}
	.st57{fill:#231F20;}
	.st58{fill:url(#Path_934_1_);}
	.st59{fill:url(#Path_935_1_);}
	.st60{fill:url(#Path_936_1_);}
</style>
<g class="st0">
	<path class="st1" d="M54.4,331.5H42.5l-19.1-33.2h-0.3c0.4,5.9,0.6,10.1,0.6,12.6v20.7h-8.3v-44h11.8l19.1,32.9h0.2
		c-0.3-5.7-0.5-9.8-0.5-12.1v-20.8h8.4V331.5z"/>
	<path class="st1" d="M82.1,306.8h17.4v22.8c-2.8,0.9-5.5,1.6-8,1.9c-2.5,0.4-5,0.6-7.7,0.6c-6.6,0-11.7-1.9-15.2-5.8
		s-5.2-9.5-5.2-16.8c0-7.1,2-12.6,6.1-16.6s9.7-6,16.9-6c4.5,0,8.9,0.9,13,2.7l-3.1,7.5c-3.2-1.6-6.5-2.4-10-2.4
		c-4,0-7.3,1.4-9.7,4.1c-2.4,2.7-3.6,6.3-3.6,10.9c0,4.8,1,8.4,2.9,10.9c2,2.5,4.8,3.8,8.5,3.8c1.9,0,3.9-0.2,5.9-0.6v-9.2H82
		L82.1,306.8L82.1,306.8z"/>
	<path class="st1" d="M136.9,331.5l-3.2-10.5h-16l-3.2,10.5h-10l15.5-44.1h11.4l15.6,44.1H136.9z M132.7,284c-3.1-1.9-5.5-3.6-7-5.3
		c-1.6,1.6-3.9,3.4-6.9,5.3h-6.1v-0.8c3.8-3.8,6.4-6.8,7.7-9h10.7c0.6,1,1.7,2.5,3.2,4.3s3,3.4,4.5,4.8v0.8L132.7,284L132.7,284z
		 M131.5,313.2c-2.9-9.5-4.6-14.8-5-16.1c-0.4-1.2-0.6-2.2-0.8-2.9c-0.7,2.6-2.6,8.9-5.7,19H131.5z"/>
	<path class="st1" d="M191.5,331.5h-11.8l-19.1-33.2h-0.3c0.4,5.9,0.6,10.1,0.6,12.6v20.7h-8.3v-44h11.8l19.1,32.9h0.2
		c-0.3-5.7-0.5-9.8-0.5-12.1v-20.8h8.4L191.5,331.5L191.5,331.5z"/>
	<path class="st1" d="M254.5,331.5h-9.3v-19h-17.4v19h-9.3v-44h9.3v17.2h17.4v-17.2h9.3V331.5z"/>
	<path class="st1" d="M292.5,331.5l-3.2-10.5h-16l-3.2,10.5h-10l15.5-44.1H287l15.6,44.1H292.5z M281.5,284
		c-1.3-0.9-3.1-2.3-5.6-4.3c-2.4-2-4.3-3.6-5.7-4.9v-0.6h10.3c1.3,2,3.6,5,7.1,9v0.8H281.5z M287.1,313.2c-2.9-9.5-4.6-14.8-5-16.1
		c-0.4-1.2-0.6-2.2-0.8-2.9c-0.7,2.6-2.6,8.9-5.7,19H287.1z"/>
	<path class="st1" d="M347.1,331.5h-11.8l-19.1-33.2h-0.3c0.4,5.9,0.6,10.1,0.6,12.6v20.7h-8.3v-44H320l19.1,32.9h0.2
		c-0.3-5.7-0.5-9.8-0.5-12.1v-20.8h8.4v43.9H347.1z"/>
	<path class="st1" d="M374.9,306.8h17.4v22.8c-2.8,0.9-5.5,1.6-8,1.9c-2.5,0.4-5,0.6-7.7,0.6c-6.6,0-11.7-1.9-15.2-5.8
		s-5.2-9.5-5.2-16.8c0-7.1,2-12.6,6.1-16.6s9.7-6,16.9-6c4.5,0,8.9,0.9,13,2.7l-3.1,7.5c-3.2-1.6-6.5-2.4-10-2.4
		c-4,0-7.3,1.4-9.7,4.1c-2.4,2.7-3.6,6.3-3.6,10.9c0,4.8,1,8.4,2.9,10.9c2,2.5,4.8,3.8,8.5,3.8c1.9,0,3.9-0.2,5.9-0.6v-9.2h-8.3
		v-7.8H374.9z"/>
	<path class="st1" d="M414.6,306h4.1v-18.4h13.8c7.2,0,12.7,1.9,16.7,5.7s6,9.1,6,15.9c0,7.2-2.1,12.8-6.2,16.6
		c-4.1,3.8-10.1,5.8-17.8,5.8h-12.4v-17.9h-4.1V306H414.6z M445.5,309.4c0-4.6-1-8.2-3.1-10.6s-5.2-3.6-9.4-3.6h-4.9V306h7.1v7.6
		h-7.1v10.2h3.9C441,323.8,445.5,319,445.5,309.4z"/>
	<path class="st1" d="M464.3,331.5v-44h9.3v44H464.3z"/>
	<path class="st1" d="M504.3,284c-3.1-1.9-5.5-3.6-7-5.3c-1.6,1.6-3.9,3.4-6.9,5.3h-6.1v-0.8c3.8-3.8,6.4-6.8,7.7-9h10.7
		c0.6,1,1.7,2.5,3.2,4.3s3,3.4,4.5,4.8v0.8L504.3,284L504.3,284z M510,331.5h-25.3v-44H510v7.6h-16v9.7h14.9v7.6H494v11.3h16V331.5z
		 M492.3,340c0-3,1.7-4.5,5-4.5s5,1.5,5,4.5c0,1.4-0.4,2.5-1.3,3.3c-0.8,0.8-2.1,1.2-3.7,1.2C493.9,344.4,492.3,342.9,492.3,340z"/>
	<path class="st1" d="M558.2,331.5h-11.8l-19.1-33.2H527c0.4,5.9,0.6,10.1,0.6,12.6v20.7h-8.3v-44h11.8l19.1,32.9h0.2
		c-0.3-5.7-0.5-9.8-0.5-12.1v-20.8h8.4v43.9H558.2z"/>
	<path class="st1" d="M602.2,331.5h-9.3v-36.2H581v-7.8h33.2v7.8h-11.9L602.2,331.5L602.2,331.5z"/>
	<path class="st1" d="M656.7,287.6v5.7c1.5-0.5,2.6-1.5,3.3-3s1.1-3.3,1.1-5.4h9l0.4,0.7c-0.6,3.1-1.5,5.5-2.6,7.1
		c-1.1,1.7-2.5,3-4.3,4.1c-1.8,1-4.1,1.7-6.9,2.1V316c0,3.2-0.7,6.1-2.2,8.5s-3.6,4.3-6.3,5.6s-6,2-9.7,2c-5.7,0-10-1.4-13.2-4.3
		c-3.1-2.9-4.7-6.9-4.7-11.9v-28.3h9.3v27.6c0,3.1,0.7,5.4,2.1,6.9c1.4,1.5,3.6,2.2,6.7,2.2c3,0,5.3-0.8,6.6-2.3
		c1.4-1.5,2.1-3.8,2.1-6.9v-27.6L656.7,287.6L656.7,287.6z M646.3,276.6c0,3.1-1.6,5.1-4.9,5.9l-0.3,2.1h-5.2l-0.7-4.4
		c1.5-0.2,2.5-0.6,3.1-1.1c0.5-0.5,0.8-1.1,0.8-1.9c0-0.6-0.2-1.1-0.6-1.5s-1-0.5-1.7-0.5c-1.3,0-2.7,0.2-4.2,0.7v-5.1
		c0.6-0.2,1.4-0.4,2.5-0.5s2-0.2,2.8-0.2c2.8,0,4.9,0.6,6.3,1.7C645.6,273,646.3,274.6,646.3,276.6z"/>
</g>
<g id="Group_645" transform="translate(154.368)">
	<g id="Group_644" transform="translate(0 0)">
		<g id="Group_626" transform="translate(0 142.005)">
			
				<radialGradient id="Ellipse_47_1_" cx="-3159.5745" cy="9745.9072" r="778.2568" gradientTransform="matrix(0.211 0 0 4.500000e-02 847.8223 -354.6658)" gradientUnits="userSpaceOnUse">
				<stop  offset="0" style="stop-color:#000000"/>
				<stop  offset="3.800000e-02" style="stop-color:#151515"/>
				<stop  offset="0.146" style="stop-color:#4B4B4B"/>
				<stop  offset="0.258" style="stop-color:#7B7B7B"/>
				<stop  offset="0.372" style="stop-color:#A3A3A3"/>
				<stop  offset="0.488" style="stop-color:#C4C4C4"/>
				<stop  offset="0.606" style="stop-color:#DEDEDE"/>
				<stop  offset="0.728" style="stop-color:#F0F0F0"/>
				<stop  offset="0.856" style="stop-color:#FBFBFB"/>
				<stop  offset="1" style="stop-color:#FFFFFF"/>
			</radialGradient>
			<ellipse id="Ellipse_47" class="st2" cx="181.2" cy="83.9" rx="164.4" ry="34.7"/>
			
				<radialGradient id="Ellipse_48_1_" cx="-12609.5068" cy="110465.2266" r="2692.0977" gradientTransform="matrix(6.100000e-02 0 0 4.000000e-03 950.332 -349.3076)" gradientUnits="userSpaceOnUse">
				<stop  offset="0" style="stop-color:#000000"/>
				<stop  offset="3.800000e-02" style="stop-color:#151515"/>
				<stop  offset="0.146" style="stop-color:#4B4B4B"/>
				<stop  offset="0.258" style="stop-color:#7B7B7B"/>
				<stop  offset="0.372" style="stop-color:#A3A3A3"/>
				<stop  offset="0.488" style="stop-color:#C4C4C4"/>
				<stop  offset="0.606" style="stop-color:#DEDEDE"/>
				<stop  offset="0.728" style="stop-color:#F0F0F0"/>
				<stop  offset="0.856" style="stop-color:#FBFBFB"/>
				<stop  offset="1" style="stop-color:#FFFFFF"/>
			</radialGradient>
			<ellipse id="Ellipse_48" class="st3" cx="181.2" cy="92.6" rx="164.4" ry="10"/>
		</g>
		<g id="Group_643" transform="translate(37.675 0)">
			
				<linearGradient id="Path_914_1_" gradientUnits="userSpaceOnUse" x1="468.1512" y1="0.8191" x2="468.1512" y2="3.5885" gradientTransform="matrix(196.973 0 0 5.744 -92069.6875 210.1671)">
				<stop  offset="0" style="stop-color:#3A5560"/>
				<stop  offset="0.294" style="stop-color:#344E58"/>
				<stop  offset="0.726" style="stop-color:#243B45"/>
				<stop  offset="1" style="stop-color:#172D35"/>
			</linearGradient>
			<path id="Path_914" class="st4" d="M262.4,229.1H24.6l13.6-6.9l210.5,0.1L262.4,229.1z"/>
			
				<linearGradient id="Rectangle_625_1_" gradientUnits="userSpaceOnUse" x1="468.1512" y1="-17.0762" x2="468.1512" y2="-14.6316" gradientTransform="matrix(196.972 0 0 7.65 -92069.2188 357.9076)">
				<stop  offset="0" style="stop-color:#FFFFFF"/>
				<stop  offset="0.398" style="stop-color:#E1E2E3"/>
				<stop  offset="1" style="stop-color:#AFB1B4"/>
			</linearGradient>
			<rect id="Rectangle_625" x="24.6" y="229.1" class="st5" width="237.8" height="9.2"/>
			
				<linearGradient id="Path_915_1_" gradientUnits="userSpaceOnUse" x1="466.573" y1="-67.0605" x2="466.573" y2="-68.3872" gradientTransform="matrix(142.381 0 0 66.2 -66287.8281 4554.4619)">
				<stop  offset="0" style="stop-color:#FFFFFF"/>
				<stop  offset="0.398" style="stop-color:#E1E2E3"/>
				<stop  offset="1" style="stop-color:#AFB1B4"/>
			</linearGradient>
			<path id="Path_915" class="st6" d="M229.3,108.9V65.6L142.8,29L57.4,65.6v43.3H229.3z"/>
			<g id="Group_627" transform="translate(23.473 2.308)">
				
					<linearGradient id="Path_916_1_" gradientUnits="userSpaceOnUse" x1="419.9039" y1="-65.1576" x2="419.9039" y2="-63.4156" gradientTransform="matrix(149.668 0 0 42.436 -62726.3789 2776.2524)">
					<stop  offset="0" style="stop-color:#3A5560"/>
					<stop  offset="0.294" style="stop-color:#344E58"/>
					<stop  offset="0.726" style="stop-color:#243B45"/>
					<stop  offset="1" style="stop-color:#172D35"/>
				</linearGradient>
				<path id="Path_916" class="st7" d="M119.3,20.2L29.5,65v6.4l89.8-44.7l90.9,44.5v-6.5L119.3,20.2z"/>
			</g>
			<g id="Group_628" transform="translate(22.124)">
				
					<linearGradient id="Path_917_1_" gradientUnits="userSpaceOnUse" x1="422.6976" y1="-64.5595" x2="422.6976" y2="-63.2581" gradientTransform="matrix(152.366 0 0 40.288 -64283.6445 2616.2178)">
					<stop  offset="0" style="stop-color:#FFFFFF"/>
					<stop  offset="0.398" style="stop-color:#E1E2E3"/>
					<stop  offset="1" style="stop-color:#AFB1B4"/>
				</linearGradient>
				<path id="Path_917" class="st8" d="M120.7,19.8L29.2,65.4v3l91.4-45.6l92.5,45.3v-3L120.7,19.8z"/>
			</g>
			<path id="Path_918" class="st9" d="M57.4,73.3v3l85.4-42.6L229.3,76v-3l-86.5-42.3L57.4,73.3z"/>
			<g id="Group_629" transform="translate(22.124 7.34)">
				
					<linearGradient id="Path_919_1_" gradientUnits="userSpaceOnUse" x1="422.6976" y1="-64.7414" x2="422.6976" y2="-63.44" gradientTransform="matrix(152.366 0 0 40.288 -64283.6445 2616.2129)">
					<stop  offset="0" style="stop-color:#FFFFFF"/>
					<stop  offset="0.398" style="stop-color:#E1E2E3"/>
					<stop  offset="1" style="stop-color:#AFB1B4"/>
				</linearGradient>
				<path id="Path_919" class="st10" d="M120.7,21.3L29.2,66.9v3l91.4-45.6l92.5,45.3v-3L120.7,21.3z"/>
			</g>
			<g id="Group_630" transform="translate(52.954 47.626)">
				
					<linearGradient id="Path_920_1_" gradientUnits="userSpaceOnUse" x1="324.9675" y1="-55.2411" x2="324.9675" y2="-53.5896" gradientTransform="matrix(19.7686 0 0 21.3912 -6376.6934 1208.2545)">
					<stop  offset="0" style="stop-color:#3A5560"/>
					<stop  offset="0.294" style="stop-color:#344E58"/>
					<stop  offset="0.726" style="stop-color:#243B45"/>
					<stop  offset="1" style="stop-color:#172D35"/>
				</linearGradient>
				<path id="Path_920" class="st11" d="M35.6,29.6h14.9c2.1-0.1,4.1,0.5,5.7,1.8c1.3,1.2,2,2.8,2,4.6c0,1.4-0.5,2.8-1.4,3.9
					c-0.8,0.8-1.7,1.4-2.8,1.7c1.6,0.3,3,1.1,4.1,2.3c0.9,1.2,1.4,2.6,1.3,4.1c0,1.3-0.3,2.5-0.9,3.6s-1.5,1.9-2.6,2.5
					c-0.9,0.5-2,0.8-3,0.8c-1.2,0.2-2.4,0.3-3.6,0.4H35.6V29.6z M43.7,39.8h3.5c0.9,0.1,1.8-0.1,2.6-0.6c0.5-0.5,0.8-1.2,0.7-1.9
					c0-0.7-0.2-1.3-0.7-1.8c-0.8-0.5-1.6-0.7-2.5-0.6h-3.5L43.7,39.8z M43.7,49.9h4.1c1,0.1,2-0.2,2.9-0.7c0.6-0.5,0.9-1.2,0.8-2
					c0-0.7-0.3-1.4-0.8-1.8c-0.9-0.5-1.9-0.8-2.9-0.7h-4L43.7,49.9z"/>
				
					<linearGradient id="Path_921_1_" gradientUnits="userSpaceOnUse" x1="331.4016" y1="-55.23" x2="331.4016" y2="-53.5784" gradientTransform="matrix(23.275 0 0 21.379 -7638.9702 1207.3745)">
					<stop  offset="0" style="stop-color:#3A5560"/>
					<stop  offset="0.294" style="stop-color:#344E58"/>
					<stop  offset="0.726" style="stop-color:#243B45"/>
					<stop  offset="1" style="stop-color:#172D35"/>
				</linearGradient>
				<path id="Path_921" class="st12" d="M78.9,51.2h-9.1l-1.3,4.3h-8.1l9.7-25.8h8.7l9.7,25.8h-8.4L78.9,51.2z M77.2,45.6l-2.8-9.3
					l-2.8,9.3H77.2z"/>
				
					<linearGradient id="Path_922_1_" gradientUnits="userSpaceOnUse" x1="326.8025" y1="-55.23" x2="326.8025" y2="-53.5784" gradientTransform="matrix(20.445 0 0 21.379 -6578.1753 1207.3745)">
					<stop  offset="0" style="stop-color:#3A5560"/>
					<stop  offset="0.294" style="stop-color:#344E58"/>
					<stop  offset="0.726" style="stop-color:#243B45"/>
					<stop  offset="1" style="stop-color:#172D35"/>
				</linearGradient>
				<path id="Path_922" class="st13" d="M91.1,29.6h7.4l9.7,14.3V29.6h7.5v25.8h-7.5l-9.7-14.2v14.2H91L91.1,29.6z"/>
				
					<linearGradient id="Path_923_1_" gradientUnits="userSpaceOnUse" x1="330.916" y1="-55.231" x2="330.916" y2="-53.5795" gradientTransform="matrix(22.663 0 0 21.38 -7364.7979 1207.4736)">
					<stop  offset="0" style="stop-color:#3A5560"/>
					<stop  offset="0.294" style="stop-color:#344E58"/>
					<stop  offset="0.726" style="stop-color:#243B45"/>
					<stop  offset="1" style="stop-color:#172D35"/>
				</linearGradient>
				<path id="Path_923" class="st14" d="M121.1,29.6h8v9.8l8.4-9.8h10.6l-9.4,9.7l9.8,16.1h-9.8l-5.4-10.6l-4.1,4.3v6.3h-8
					L121.1,29.6z"/>
			</g>
			
				<linearGradient id="Rectangle_626_1_" gradientUnits="userSpaceOnUse" x1="467.0926" y1="-69.3863" x2="467.0926" y2="-68.3964" gradientTransform="matrix(156.671 0 0 85.669 -73036.3594 6076.0513)">
				<stop  offset="0" style="stop-color:#3A5560"/>
				<stop  offset="0.294" style="stop-color:#344E58"/>
				<stop  offset="0.726" style="stop-color:#243B45"/>
				<stop  offset="1" style="stop-color:#172D35"/>
			</linearGradient>
			<rect id="Rectangle_626" x="49" y="114.7" class="st15" width="189.1" height="103.4"/>
			<path id="Path_924" class="st16" d="M250.4,116.7l-12.2-0.9v-1L49,114.7v1.1l-12.3,0.9l12.2,6.5v6.1l189.1,0.1v-6.1L250.4,116.7z
				"/>
			<path id="Path_925" class="st17" d="M239,122.7l11.3-6l-12.2-0.9v-1L49,114.7v1.1l-12.3,0.9l11.3,6H239z"/>
			
				<linearGradient id="Path_926_1_" gradientUnits="userSpaceOnUse" x1="467.6858" y1="9.0742" x2="467.6858" y2="11.9389" gradientTransform="matrix(176.955 0 0 5.159 -82615.8359 156.3379)">
				<stop  offset="0" style="stop-color:#3A5560"/>
				<stop  offset="0.294" style="stop-color:#344E58"/>
				<stop  offset="0.726" style="stop-color:#243B45"/>
				<stop  offset="1" style="stop-color:#172D35"/>
			</linearGradient>
			<path id="Path_926" class="st18" d="M250.4,216.1H36.7l12.2-6.2L238,210L250.4,216.1z"/>
			<g id="Group_631" transform="translate(22.651 82.435)">
				
					<linearGradient id="Rectangle_627_1_" gradientUnits="userSpaceOnUse" x1="359.7205" y1="-68.1154" x2="360.9277" y2="-68.1154" gradientTransform="matrix(12.374 0 0 73.074 -4418.0288 5061.5674)">
					<stop  offset="0" style="stop-color:#FFFFFF"/>
					<stop  offset="0.398" style="stop-color:#E1E2E3"/>
					<stop  offset="1" style="stop-color:#AFB1B4"/>
				</linearGradient>
				<rect id="Rectangle_627" x="33.2" y="40" class="st19" width="14.9" height="88.2"/>
				
					<linearGradient id="Rectangle_628_1_" gradientUnits="userSpaceOnUse" x1="-327.4817" y1="-68.1154" x2="-325.7832" y2="-68.1154" gradientTransform="matrix(1.093 0 0 73.074 403.0309 5061.5674)">
					<stop  offset="0" style="stop-color:#FFFFFF"/>
					<stop  offset="0.398" style="stop-color:#E1E2E3"/>
					<stop  offset="1" style="stop-color:#AFB1B4"/>
				</linearGradient>
				<rect id="Rectangle_628" x="45.4" y="40" class="st20" width="1.3" height="88.2"/>
				
					<linearGradient id="Rectangle_629_1_" gradientUnits="userSpaceOnUse" x1="-327.8587" y1="-68.1154" x2="-326.3412" y2="-68.1154" gradientTransform="matrix(1.093 0 0 73.074 400.7878 5061.5674)">
					<stop  offset="0" style="stop-color:#FFFFFF"/>
					<stop  offset="0.398" style="stop-color:#E1E2E3"/>
					<stop  offset="1" style="stop-color:#AFB1B4"/>
				</linearGradient>
				<rect id="Rectangle_629" x="42.7" y="40" class="st21" width="1.3" height="88.2"/>
				
					<linearGradient id="Rectangle_630_1_" gradientUnits="userSpaceOnUse" x1="-328.261" y1="-68.1154" x2="-326.5359" y2="-68.1154" gradientTransform="matrix(1.093 0 0 73.074 398.5448 5061.5674)">
					<stop  offset="0" style="stop-color:#FFFFFF"/>
					<stop  offset="0.398" style="stop-color:#E1E2E3"/>
					<stop  offset="1" style="stop-color:#AFB1B4"/>
				</linearGradient>
				<rect id="Rectangle_630" x="40" y="40" class="st22" width="1.3" height="88.2"/>
				
					<linearGradient id="Rectangle_631_1_" gradientUnits="userSpaceOnUse" x1="-328.6138" y1="-68.1154" x2="-326.757" y2="-68.1154" gradientTransform="matrix(1.093 0 0 73.074 396.3018 5061.5674)">
					<stop  offset="0" style="stop-color:#FFFFFF"/>
					<stop  offset="0.398" style="stop-color:#E1E2E3"/>
					<stop  offset="1" style="stop-color:#AFB1B4"/>
				</linearGradient>
				<rect id="Rectangle_631" x="37.3" y="40" class="st23" width="1.3" height="88.2"/>
				
					<linearGradient id="Rectangle_632_1_" gradientUnits="userSpaceOnUse" x1="-328.9435" y1="-68.1154" x2="-326.8816" y2="-68.1154" gradientTransform="matrix(1.093 0 0 73.074 394.0598 5061.5674)">
					<stop  offset="0" style="stop-color:#FFFFFF"/>
					<stop  offset="0.398" style="stop-color:#E1E2E3"/>
					<stop  offset="1" style="stop-color:#AFB1B4"/>
				</linearGradient>
				<rect id="Rectangle_632" x="34.6" y="40" class="st24" width="1.3" height="88.2"/>
				
					<linearGradient id="Rectangle_633_1_" gradientUnits="userSpaceOnUse" x1="382.4695" y1="19.2189" x2="383.6778" y2="19.2189" gradientTransform="matrix(18.787 0 0 4.535 -7156.1616 -47.6077)">
					<stop  offset="0" style="stop-color:#ECEDED"/>
					<stop  offset="0.361" style="stop-color:#C2C4C6"/>
					<stop  offset="0.522" style="stop-color:#AFB1B4"/>
					<stop  offset="0.652" style="stop-color:#A7AAAD"/>
					<stop  offset="0.844" style="stop-color:#949699"/>
					<stop  offset="1" style="stop-color:#7F8285"/>
				</linearGradient>
				<rect id="Rectangle_633" x="29.3" y="36.8" class="st25" width="22.7" height="5.5"/>
				
					<linearGradient id="Rectangle_634_1_" gradientUnits="userSpaceOnUse" x1="382.4695" y1="22.5854" x2="383.6778" y2="22.5854" gradientTransform="matrix(18.787 0 0 4.535 -7156.1616 25.7253)">
					<stop  offset="0" style="stop-color:#ECEDED"/>
					<stop  offset="0.361" style="stop-color:#C2C4C6"/>
					<stop  offset="0.522" style="stop-color:#AFB1B4"/>
					<stop  offset="0.652" style="stop-color:#A7AAAD"/>
					<stop  offset="0.844" style="stop-color:#949699"/>
					<stop  offset="1" style="stop-color:#7F8285"/>
				</linearGradient>
				<rect id="Rectangle_634" x="29.3" y="125.4" class="st26" width="22.7" height="5.5"/>
			</g>
			<path id="Path_927" class="st27" d="M103.5,124.8v-5.5H80.8v5.5h3.9v83.1h-3.9v5.5h22.7v-5.5h-3.9v-83.1H103.5z"/>
			<path id="Path_928" class="st27" d="M203.1,124.8v-5.5h-22.7v5.5h3.9v83.1h-3.9v5.5h22.7v-5.5h-3.9v-83.1H203.1z"/>
			<path id="Path_929" class="st27" d="M225.9,124.8v-5.5h-22.7v5.5h3.9v83.1h-3.9v5.5h22.7v-5.5H222v-83.1H225.9z"/>
			<path id="Path_930" class="st27" d="M82.2,124.8v-5.5H59.5v5.5h3.9v83.1h-3.9v5.5h22.7v-5.5h-3.9v-83.1H82.2z"/>
			<g id="Group_632" transform="translate(43.44 82.435)">
				
					<linearGradient id="Rectangle_635_1_" gradientUnits="userSpaceOnUse" x1="318.4915" y1="-68.1154" x2="319.6989" y2="-68.1154" gradientTransform="matrix(12.374 0 0 73.074 -3903.5427 5061.5674)">
					<stop  offset="0" style="stop-color:#FFFFFF"/>
					<stop  offset="0.398" style="stop-color:#E1E2E3"/>
					<stop  offset="1" style="stop-color:#AFB1B4"/>
				</linearGradient>
				<rect id="Rectangle_635" x="37.5" y="40" class="st28" width="14.9" height="88.2"/>
				
					<linearGradient id="Rectangle_636_1_" gradientUnits="userSpaceOnUse" x1="-365.1184" y1="-68.1154" x2="-363.4199" y2="-68.1154" gradientTransform="matrix(1.093 0 0 73.074 448.4756 5061.5674)">
					<stop  offset="0" style="stop-color:#FFFFFF"/>
					<stop  offset="0.398" style="stop-color:#E1E2E3"/>
					<stop  offset="1" style="stop-color:#AFB1B4"/>
				</linearGradient>
				<rect id="Rectangle_636" x="49.7" y="40" class="st29" width="1.3" height="88.2"/>
				
					<linearGradient id="Rectangle_637_1_" gradientUnits="userSpaceOnUse" x1="-365.4954" y1="-68.1154" x2="-363.9779" y2="-68.1154" gradientTransform="matrix(1.093 0 0 73.074 446.2326 5061.5674)">
					<stop  offset="0" style="stop-color:#FFFFFF"/>
					<stop  offset="0.398" style="stop-color:#E1E2E3"/>
					<stop  offset="1" style="stop-color:#AFB1B4"/>
				</linearGradient>
				<rect id="Rectangle_637" x="47" y="40" class="st30" width="1.3" height="88.2"/>
				
					<linearGradient id="Rectangle_638_1_" gradientUnits="userSpaceOnUse" x1="-365.8977" y1="-68.1154" x2="-364.1726" y2="-68.1154" gradientTransform="matrix(1.093 0 0 73.074 443.9896 5061.5674)">
					<stop  offset="0" style="stop-color:#FFFFFF"/>
					<stop  offset="0.398" style="stop-color:#E1E2E3"/>
					<stop  offset="1" style="stop-color:#AFB1B4"/>
				</linearGradient>
				<rect id="Rectangle_638" x="44.3" y="40" class="st31" width="1.3" height="88.2"/>
				
					<linearGradient id="Rectangle_639_1_" gradientUnits="userSpaceOnUse" x1="-366.2505" y1="-68.1154" x2="-364.3938" y2="-68.1154" gradientTransform="matrix(1.093 0 0 73.074 441.7466 5061.5674)">
					<stop  offset="0" style="stop-color:#FFFFFF"/>
					<stop  offset="0.398" style="stop-color:#E1E2E3"/>
					<stop  offset="1" style="stop-color:#AFB1B4"/>
				</linearGradient>
				<rect id="Rectangle_639" x="41.6" y="40" class="st32" width="1.3" height="88.2"/>
				
					<linearGradient id="Rectangle_640_1_" gradientUnits="userSpaceOnUse" x1="-366.5802" y1="-68.1154" x2="-364.5182" y2="-68.1154" gradientTransform="matrix(1.093 0 0 73.074 439.5046 5061.5674)">
					<stop  offset="0" style="stop-color:#FFFFFF"/>
					<stop  offset="0.398" style="stop-color:#E1E2E3"/>
					<stop  offset="1" style="stop-color:#AFB1B4"/>
				</linearGradient>
				<rect id="Rectangle_640" x="38.9" y="40" class="st33" width="1.3" height="88.2"/>
				
					<linearGradient id="Rectangle_641_1_" gradientUnits="userSpaceOnUse" x1="341.1208" y1="19.2189" x2="342.3291" y2="19.2189" gradientTransform="matrix(18.787 0 0 4.535 -6375.0352 -47.6077)">
					<stop  offset="0" style="stop-color:#ECEDED"/>
					<stop  offset="0.361" style="stop-color:#C2C4C6"/>
					<stop  offset="0.522" style="stop-color:#AFB1B4"/>
					<stop  offset="0.652" style="stop-color:#A7AAAD"/>
					<stop  offset="0.844" style="stop-color:#949699"/>
					<stop  offset="1" style="stop-color:#7F8285"/>
				</linearGradient>
				<rect id="Rectangle_641" x="33.6" y="36.8" class="st34" width="22.7" height="5.5"/>
				
					<linearGradient id="Rectangle_642_1_" gradientUnits="userSpaceOnUse" x1="341.1208" y1="22.5854" x2="342.3291" y2="22.5854" gradientTransform="matrix(18.787 0 0 4.535 -6375.0352 25.7253)">
					<stop  offset="0" style="stop-color:#ECEDED"/>
					<stop  offset="0.361" style="stop-color:#C2C4C6"/>
					<stop  offset="0.522" style="stop-color:#AFB1B4"/>
					<stop  offset="0.652" style="stop-color:#A7AAAD"/>
					<stop  offset="0.844" style="stop-color:#949699"/>
					<stop  offset="1" style="stop-color:#7F8285"/>
				</linearGradient>
				<rect id="Rectangle_642" x="33.6" y="125.4" class="st35" width="22.7" height="5.5"/>
			</g>
			<g id="Group_633" transform="translate(132.37 82.435)">
				
					<linearGradient id="Rectangle_643_1_" gradientUnits="userSpaceOnUse" x1="142.1208" y1="-68.1154" x2="143.328" y2="-68.1154" gradientTransform="matrix(12.374 0 0 73.074 -1702.7036 5061.5674)">
					<stop  offset="0" style="stop-color:#FFFFFF"/>
					<stop  offset="0.398" style="stop-color:#E1E2E3"/>
					<stop  offset="1" style="stop-color:#AFB1B4"/>
				</linearGradient>
				<rect id="Rectangle_643" x="55.9" y="40" class="st36" width="14.9" height="88.2"/>
				
					<linearGradient id="Rectangle_644_1_" gradientUnits="userSpaceOnUse" x1="-526.1187" y1="-68.1154" x2="-524.42" y2="-68.1154" gradientTransform="matrix(1.093 0 0 73.074 642.8756 5061.5674)">
					<stop  offset="0" style="stop-color:#FFFFFF"/>
					<stop  offset="0.398" style="stop-color:#E1E2E3"/>
					<stop  offset="1" style="stop-color:#AFB1B4"/>
				</linearGradient>
				<rect id="Rectangle_644" x="68.1" y="40" class="st37" width="1.3" height="88.2"/>
				
					<linearGradient id="Rectangle_645_1_" gradientUnits="userSpaceOnUse" x1="-525.8253" y1="-68.1154" x2="-524.3079" y2="-68.1154" gradientTransform="matrix(1.094 0 0 73.074 640.4256 5061.5674)">
					<stop  offset="0" style="stop-color:#FFFFFF"/>
					<stop  offset="0.398" style="stop-color:#E1E2E3"/>
					<stop  offset="1" style="stop-color:#AFB1B4"/>
				</linearGradient>
				<rect id="Rectangle_645" x="65.4" y="40" class="st38" width="1.3" height="88.2"/>
				
					<linearGradient id="Rectangle_646_1_" gradientUnits="userSpaceOnUse" x1="-526.8978" y1="-68.1154" x2="-525.1725" y2="-68.1154" gradientTransform="matrix(1.093 0 0 73.074 638.3906 5061.5674)">
					<stop  offset="0" style="stop-color:#FFFFFF"/>
					<stop  offset="0.398" style="stop-color:#E1E2E3"/>
					<stop  offset="1" style="stop-color:#AFB1B4"/>
				</linearGradient>
				<rect id="Rectangle_646" x="62.7" y="40" class="st39" width="1.3" height="88.2"/>
				
					<linearGradient id="Rectangle_647_1_" gradientUnits="userSpaceOnUse" x1="-527.2505" y1="-68.1154" x2="-525.3939" y2="-68.1154" gradientTransform="matrix(1.093 0 0 73.074 636.1476 5061.5674)">
					<stop  offset="0" style="stop-color:#FFFFFF"/>
					<stop  offset="0.398" style="stop-color:#E1E2E3"/>
					<stop  offset="1" style="stop-color:#AFB1B4"/>
				</linearGradient>
				<rect id="Rectangle_647" x="60" y="40" class="st40" width="1.3" height="88.2"/>
				
					<linearGradient id="Rectangle_648_1_" gradientUnits="userSpaceOnUse" x1="-527.5804" y1="-68.1154" x2="-525.5185" y2="-68.1154" gradientTransform="matrix(1.093 0 0 73.074 633.9046 5061.5674)">
					<stop  offset="0" style="stop-color:#FFFFFF"/>
					<stop  offset="0.398" style="stop-color:#E1E2E3"/>
					<stop  offset="1" style="stop-color:#AFB1B4"/>
				</linearGradient>
				<rect id="Rectangle_648" x="57.3" y="40" class="st41" width="1.3" height="88.2"/>
				
					<linearGradient id="Rectangle_649_1_" gradientUnits="userSpaceOnUse" x1="164.2417" y1="19.2189" x2="165.45" y2="19.2189" gradientTransform="matrix(18.787 0 0 4.535 -3033.5796 -47.6077)">
					<stop  offset="0" style="stop-color:#ECEDED"/>
					<stop  offset="0.361" style="stop-color:#C2C4C6"/>
					<stop  offset="0.522" style="stop-color:#AFB1B4"/>
					<stop  offset="0.652" style="stop-color:#A7AAAD"/>
					<stop  offset="0.844" style="stop-color:#949699"/>
					<stop  offset="1" style="stop-color:#7F8285"/>
				</linearGradient>
				<rect id="Rectangle_649" x="52.1" y="36.8" class="st42" width="22.7" height="5.5"/>
				
					<linearGradient id="Rectangle_650_1_" gradientUnits="userSpaceOnUse" x1="164.2417" y1="22.5854" x2="165.45" y2="22.5854" gradientTransform="matrix(18.787 0 0 4.535 -3033.5796 25.7253)">
					<stop  offset="0" style="stop-color:#ECEDED"/>
					<stop  offset="0.361" style="stop-color:#C2C4C6"/>
					<stop  offset="0.522" style="stop-color:#AFB1B4"/>
					<stop  offset="0.652" style="stop-color:#A7AAAD"/>
					<stop  offset="0.844" style="stop-color:#949699"/>
					<stop  offset="1" style="stop-color:#7F8285"/>
				</linearGradient>
				<rect id="Rectangle_650" x="52.1" y="125.4" class="st43" width="22.7" height="5.5"/>
			</g>
			<g id="Group_634" transform="translate(153.159 82.435)">
				
					<linearGradient id="Rectangle_651_1_" gradientUnits="userSpaceOnUse" x1="100.8909" y1="-68.1154" x2="102.0981" y2="-68.1154" gradientTransform="matrix(12.374 0 0 73.074 -1188.2173 5061.5674)">
					<stop  offset="0" style="stop-color:#FFFFFF"/>
					<stop  offset="0.398" style="stop-color:#E1E2E3"/>
					<stop  offset="1" style="stop-color:#AFB1B4"/>
				</linearGradient>
				<rect id="Rectangle_651" x="60.3" y="40" class="st44" width="14.9" height="88.2"/>
				
					<linearGradient id="Rectangle_652_1_" gradientUnits="userSpaceOnUse" x1="-563.7552" y1="-68.1154" x2="-562.0566" y2="-68.1154" gradientTransform="matrix(1.093 0 0 73.074 688.3214 5061.5674)">
					<stop  offset="0" style="stop-color:#FFFFFF"/>
					<stop  offset="0.398" style="stop-color:#E1E2E3"/>
					<stop  offset="1" style="stop-color:#AFB1B4"/>
				</linearGradient>
				<rect id="Rectangle_652" x="72.4" y="40" class="st45" width="1.3" height="88.2"/>
				
					<linearGradient id="Rectangle_653_1_" gradientUnits="userSpaceOnUse" x1="-564.1321" y1="-68.1154" x2="-562.6147" y2="-68.1154" gradientTransform="matrix(1.093 0 0 73.074 686.0784 5061.5674)">
					<stop  offset="0" style="stop-color:#FFFFFF"/>
					<stop  offset="0.398" style="stop-color:#E1E2E3"/>
					<stop  offset="1" style="stop-color:#AFB1B4"/>
				</linearGradient>
				<rect id="Rectangle_653" x="69.7" y="40" class="st46" width="1.3" height="88.2"/>
				
					<linearGradient id="Rectangle_654_1_" gradientUnits="userSpaceOnUse" x1="-564.5345" y1="-68.1154" x2="-562.8093" y2="-68.1154" gradientTransform="matrix(1.093 0 0 73.074 683.8353 5061.5674)">
					<stop  offset="0" style="stop-color:#FFFFFF"/>
					<stop  offset="0.398" style="stop-color:#E1E2E3"/>
					<stop  offset="1" style="stop-color:#AFB1B4"/>
				</linearGradient>
				<rect id="Rectangle_654" x="67" y="40" class="st47" width="1.3" height="88.2"/>
				
					<linearGradient id="Rectangle_655_1_" gradientUnits="userSpaceOnUse" x1="-564.2197" y1="-68.1154" x2="-562.363" y2="-68.1154" gradientTransform="matrix(1.094 0 0 73.074 681.4269 5061.5674)">
					<stop  offset="0" style="stop-color:#FFFFFF"/>
					<stop  offset="0.398" style="stop-color:#E1E2E3"/>
					<stop  offset="1" style="stop-color:#AFB1B4"/>
				</linearGradient>
				<rect id="Rectangle_655" x="64.3" y="40" class="st48" width="1.3" height="88.2"/>
				
					<linearGradient id="Rectangle_656_1_" gradientUnits="userSpaceOnUse" x1="-565.217" y1="-68.1154" x2="-563.1552" y2="-68.1154" gradientTransform="matrix(1.093 0 0 73.074 679.3493 5061.5674)">
					<stop  offset="0" style="stop-color:#FFFFFF"/>
					<stop  offset="0.398" style="stop-color:#E1E2E3"/>
					<stop  offset="1" style="stop-color:#AFB1B4"/>
				</linearGradient>
				<rect id="Rectangle_656" x="61.6" y="40" class="st49" width="1.3" height="88.2"/>
				
					<linearGradient id="Rectangle_657_1_" gradientUnits="userSpaceOnUse" x1="122.8938" y1="19.2189" x2="124.1021" y2="19.2189" gradientTransform="matrix(18.787 0 0 4.535 -2252.4536 -47.6077)">
					<stop  offset="0" style="stop-color:#ECEDED"/>
					<stop  offset="0.361" style="stop-color:#C2C4C6"/>
					<stop  offset="0.522" style="stop-color:#AFB1B4"/>
					<stop  offset="0.652" style="stop-color:#A7AAAD"/>
					<stop  offset="0.844" style="stop-color:#949699"/>
					<stop  offset="1" style="stop-color:#7F8285"/>
				</linearGradient>
				<rect id="Rectangle_657" x="56.4" y="36.8" class="st50" width="22.7" height="5.5"/>
				
					<linearGradient id="Rectangle_658_1_" gradientUnits="userSpaceOnUse" x1="122.8938" y1="22.5854" x2="124.1021" y2="22.5854" gradientTransform="matrix(18.787 0 0 4.535 -2252.4536 25.7253)">
					<stop  offset="0" style="stop-color:#ECEDED"/>
					<stop  offset="0.361" style="stop-color:#C2C4C6"/>
					<stop  offset="0.522" style="stop-color:#AFB1B4"/>
					<stop  offset="0.652" style="stop-color:#A7AAAD"/>
					<stop  offset="0.844" style="stop-color:#949699"/>
					<stop  offset="1" style="stop-color:#7F8285"/>
				</linearGradient>
				<rect id="Rectangle_658" x="56.4" y="125.4" class="st51" width="22.7" height="5.5"/>
			</g>
			
				<linearGradient id="Rectangle_659_1_" gradientUnits="userSpaceOnUse" x1="467.6855" y1="-38.3437" x2="467.6855" y2="-36.2045" gradientTransform="matrix(176.955 0 0 11.477 -82615.8359 538.4052)">
				<stop  offset="0" style="stop-color:#FFFFFF"/>
				<stop  offset="0.398" style="stop-color:#E1E2E3"/>
				<stop  offset="1" style="stop-color:#AFB1B4"/>
			</linearGradient>
			<rect id="Rectangle_659" x="36.7" y="102.8" class="st52" width="213.6" height="13.9"/>
			
				<linearGradient id="Rectangle_660_1_" gradientUnits="userSpaceOnUse" x1="467.6855" y1="-11.1518" x2="467.6855" y2="-8.3511" gradientTransform="matrix(176.955 0 0 6.872 -82615.8359 289.1294)">
				<stop  offset="0" style="stop-color:#FFFFFF"/>
				<stop  offset="0.398" style="stop-color:#E1E2E3"/>
				<stop  offset="1" style="stop-color:#AFB1B4"/>
			</linearGradient>
			<rect id="Rectangle_660" x="36.7" y="216.1" class="st53" width="213.6" height="8.3"/>
			
				<linearGradient id="Rectangle_661_1_" gradientUnits="userSpaceOnUse" x1="467.6855" y1="-17.698" x2="467.6855" y2="-14.8743" gradientTransform="matrix(176.955 0 0 7.295 -82615.8359 228.9108)">
				<stop  offset="0" style="stop-color:#ECEDED"/>
				<stop  offset="0.361" style="stop-color:#C2C4C6"/>
				<stop  offset="0.522" style="stop-color:#AFB1B4"/>
				<stop  offset="0.652" style="stop-color:#A7AAAD"/>
				<stop  offset="0.844" style="stop-color:#949699"/>
				<stop  offset="1" style="stop-color:#7F8285"/>
			</linearGradient>
			<rect id="Rectangle_661" x="36.7" y="105.3" class="st54" width="213.6" height="8.8"/>
			
				<linearGradient id="Rectangle_662_1_" gradientUnits="userSpaceOnUse" x1="467.6855" y1="18.1873" x2="467.6855" y2="23.2105" gradientTransform="matrix(176.955 0 0 4.46 -82615.8359 19.1024)">
				<stop  offset="0" style="stop-color:#3A5560"/>
				<stop  offset="0.294" style="stop-color:#344E58"/>
				<stop  offset="0.726" style="stop-color:#243B45"/>
				<stop  offset="1" style="stop-color:#172D35"/>
			</linearGradient>
			<rect id="Rectangle_662" x="36.7" y="107" class="st55" width="213.6" height="5.4"/>
			<g id="Group_638" transform="translate(67.291 105.392)" class="st56">
				<g id="Group_635" transform="translate(19.512 0)">
					<path id="Path_931" class="st57" d="M66.7,51.9l-7.5,1.3c-0.2-0.8-0.6-1.5-1-2.2c-0.4-0.5-0.9-0.9-1.5-1.3v6.5
						c4.1,1.2,6.8,2.5,8.2,3.9c1.8,1.8,2.8,4.3,2.7,6.9c0,1.6-0.3,3.1-1,4.5c-0.6,1.3-1.4,2.5-2.5,3.4c-0.9,0.9-2,1.6-3.2,2
						c-1.4,0.5-2.8,0.7-4.2,0.7v4.3h-2.9v-4.3c-1.6-0.1-3.3-0.5-4.8-1.1c-1.2-0.5-2.3-1.2-3.2-2.2c-0.9-0.9-1.6-1.9-2.1-3
						c-0.5-1.2-0.9-2.5-1.1-3.8l8.2-0.8c0.1,1.1,0.5,2.2,1,3.2c0.5,0.8,1.2,1.4,2,1.8v-8c-2-0.6-3.9-1.3-5.8-2.2
						c-1.2-0.7-2.2-1.7-2.9-3c-0.9-1.5-1.3-3.2-1.2-5c-0.1-2.5,0.8-4.9,2.5-6.7c2-1.9,4.7-3,7.5-3v-2.2h2.9v2.2
						c2.5,0,4.9,0.9,6.9,2.4C65.2,47.7,66.3,49.7,66.7,51.9z M53.8,49.7c-0.7,0.2-1.3,0.6-1.8,1.2c-0.3,0.5-0.5,1.1-0.5,1.7
						c0,0.6,0.2,1.2,0.5,1.7c0.5,0.6,1.1,1,1.8,1.2V49.7z M56.7,71.9c1-0.2,1.8-0.7,2.5-1.4c0.5-0.6,0.8-1.4,0.8-2.2
						c0-0.7-0.2-1.4-0.7-2c-0.7-0.8-1.6-1.3-2.6-1.7C56.7,64.6,56.7,71.9,56.7,71.9z"/>
				</g>
				<g id="Group_636" transform="translate(0 3.674)">
					<path id="Path_932" class="st57" d="M57.4,50.4l-5.8,1c-0.2-0.6-0.5-1.2-0.8-1.7c-0.3-0.4-0.7-0.7-1.2-1v5.1c3.2,1,5.3,2,6.4,3
						c1.4,1.4,2.2,3.4,2.1,5.4c0,1.2-0.2,2.4-0.8,3.5c-0.5,1-1.1,1.9-1.9,2.7c-0.8,0.8-1.6,1.3-2.6,1.6c-1.1,0.4-2.2,0.5-3.3,0.6
						v3.3h-2.3v-3.3c-1.3-0.1-2.5-0.4-3.7-0.8c-0.9-0.4-1.8-1-2.5-1.7s-1.2-1.5-1.6-2.3c-0.4-1-0.7-2-0.8-3l6.3-0.8
						c0.1,0.9,0.4,1.7,0.8,2.5c0.4,0.6,0.9,1.1,1.6,1.4v-6.2c-1.5-0.4-3.1-1-4.5-1.7c-1-0.6-1.8-1.4-2.3-2.3c-0.7-1.2-1-2.5-1-3.9
						c-0.1-1.9,0.6-3.8,2-5.2c1.6-1.5,3.6-2.4,5.8-2.3v-1.7h2.3v1.7c1.9,0,3.8,0.7,5.4,1.9C56.2,47.1,57.1,48.7,57.4,50.4z
						 M47.3,48.7c-0.5,0.2-1,0.5-1.4,0.9c-0.3,0.4-0.4,0.8-0.4,1.3s0.1,1,0.4,1.4c0.4,0.5,0.8,0.8,1.4,1V48.7z M49.6,66
						c0.8-0.1,1.4-0.5,2-1.1c0.4-0.5,0.6-1.1,0.6-1.7c0-0.6-0.2-1.1-0.5-1.5c-0.6-0.6-1.3-1.1-2.1-1.3V66z"/>
				</g>
				<g id="Group_637" transform="translate(44.496 3.674)">
					<path id="Path_933" class="st57" d="M66.6,50.4l-5.8,1c-0.2-0.6-0.5-1.2-0.8-1.7c-0.3-0.4-0.7-0.7-1.2-1v5.1c3.2,1,5.3,2,6.4,3
						c1.4,1.4,2.2,3.4,2.1,5.4c0,1.2-0.2,2.4-0.8,3.5c-0.5,1-1.1,1.9-1.9,2.7c-0.7,0.7-1.6,1.2-2.5,1.6c-1.1,0.4-2.2,0.5-3.3,0.6
						v3.3h-2.3v-3.3c-1.3-0.1-2.5-0.4-3.7-0.8c-0.9-0.4-1.8-1-2.5-1.7s-1.2-1.5-1.6-2.3c-0.4-1-0.7-2-0.8-3l6.3-0.8
						c0.1,0.9,0.4,1.7,0.8,2.5c0.4,0.6,0.9,1.1,1.6,1.4v-6.2c-1.5-0.4-3.1-1-4.5-1.7c-1-0.6-1.8-1.4-2.3-2.3c-0.7-1.2-1-2.5-1-3.9
						c-0.1-1.9,0.6-3.8,2-5.2c1.6-1.5,3.6-2.4,5.8-2.3v-1.7h2.2v1.7c1.9,0,3.8,0.7,5.4,1.9C65.5,47.1,66.3,48.7,66.6,50.4z
						 M56.5,48.7c-0.5,0.2-1,0.5-1.4,0.9c-0.3,0.4-0.4,0.8-0.4,1.3s0.1,1,0.4,1.4c0.4,0.5,0.8,0.8,1.4,1V48.7z M58.8,66
						c0.8-0.1,1.4-0.5,2-1.1c0.4-0.5,0.6-1.1,0.6-1.7c0-0.6-0.2-1.1-0.5-1.5c-0.6-0.6-1.3-1.1-2.1-1.3V66z"/>
				</g>
			</g>
			<g id="Group_642" transform="translate(63.595 103.775)">
				<g id="Group_639" transform="translate(21.89 0)">
					
						<linearGradient id="Path_934_1_" gradientUnits="userSpaceOnUse" x1="266.3168" y1="-61.8656" x2="266.3168" y2="-60.2659" gradientTransform="matrix(23.1873 0 0 33.508 -6118.8623 2111.0596)">
						<stop  offset="0" style="stop-color:#F2D76B"/>
						<stop  offset="0.527" style="stop-color:#EFAF1E"/>
						<stop  offset="0.643" style="stop-color:#EDA71E"/>
						<stop  offset="0.814" style="stop-color:#EB9421"/>
						<stop  offset="1" style="stop-color:#E77725"/>
					</linearGradient>
					<path id="Path_934" class="st58" d="M69.4,51.6L61,52.9c-0.3-0.8-0.7-1.5-1.1-2.2c-0.5-0.5-1-0.9-1.7-1.3v6.5
						c4.6,1.2,7.6,2.5,9.2,3.9c2,1.7,3.1,4.3,3,6.9c0,1.6-0.4,3.1-1.1,4.5c-0.7,1.3-1.6,2.5-2.8,3.4c-1.1,0.9-2.3,1.6-3.6,2
						c-1.5,0.5-3.1,0.7-4.7,0.7v4.4h-3.4v-4.3c-1.8-0.1-3.6-0.5-5.4-1.1c-1.3-0.5-2.5-1.2-3.6-2.2c-0.9-0.8-1.7-1.8-2.3-3
						c-0.6-1.2-1-2.5-1.2-3.8l9.1-1.1c0.1,1.1,0.5,2.2,1.1,3.2c0.6,0.8,1.4,1.4,2.3,1.8v-8c-2.2-0.6-4.4-1.3-6.5-2.2
						c-3-1.5-4.8-4.6-4.7-8c-0.1-2.5,1-5,2.8-6.7c1.9-1.8,4.7-2.8,8.4-3v-2.2h3.3v2.2c2.8,0,5.4,0.8,7.7,2.4
						C67.7,47.3,68.9,49.3,69.4,51.6z M54.8,49.3c-0.8,0.2-1.5,0.6-2,1.2c-0.4,0.5-0.6,1.1-0.6,1.7c0,0.6,0.2,1.2,0.6,1.7
						c0.5,0.6,1.2,1,2,1.2V49.3z M58.1,71.6c1.1-0.2,2-0.7,2.8-1.4c0.6-0.6,0.9-1.4,0.9-2.2c0-0.7-0.3-1.4-0.8-2
						c-0.8-0.8-1.8-1.4-2.9-1.7V71.6z"/>
				</g>
				<g id="Group_640" transform="translate(0 3.674)">
					
						<linearGradient id="Path_935_1_" gradientUnits="userSpaceOnUse" x1="300.0002" y1="-58.4558" x2="300.0002" y2="-56.407" gradientTransform="matrix(18.1078 0 0 26.16 -5383.6914 1563.5951)">
						<stop  offset="0" style="stop-color:#F2D76B"/>
						<stop  offset="0.527" style="stop-color:#EFAF1E"/>
						<stop  offset="0.643" style="stop-color:#EDA71E"/>
						<stop  offset="0.814" style="stop-color:#EB9421"/>
						<stop  offset="1" style="stop-color:#E77725"/>
					</linearGradient>
					<path id="Path_935" class="st59" d="M58.9,50.1l-6.6,1c-0.2-0.6-0.5-1.2-0.9-1.7c-0.4-0.4-0.8-0.7-1.3-1v5.1c3.6,1,6,2,7.2,3
						c1.6,1.4,2.4,3.3,2.4,5.4c0,1.2-0.3,2.4-0.9,3.5c-0.5,1-1.3,1.9-2.2,2.7c-0.8,0.7-1.8,1.3-2.8,1.6c-1.2,0.4-2.4,0.5-3.7,0.6
						v3.3h-2.6v-3.3c-1.4-0.1-2.8-0.4-4.2-0.8c-1-0.4-2-0.9-2.8-1.7c-0.7-0.7-1.4-1.4-1.8-2.3c-0.5-0.9-0.8-2-1-3l7.1-0.8
						c0.1,0.9,0.4,1.7,0.9,2.5c0.5,0.6,1.1,1.1,1.8,1.4v-6.2c-1.7-0.4-3.4-1-5-1.7c-2.3-1.2-3.8-3.6-3.7-6.2c0-2,0.8-3.9,2.2-5.2
						c1.8-1.5,4.1-2.4,6.5-2.3v-1.7h2.6V44c2.2,0,4.3,0.7,6,1.9C57.6,46.8,58.6,48.3,58.9,50.1z M47.6,48.3
						c-0.6,0.2-1.1,0.5-1.6,0.9c-0.3,0.4-0.4,0.8-0.4,1.3s0.1,1,0.4,1.4c0.4,0.5,1,0.8,1.6,1V48.3z M50.1,65.7
						c0.8-0.1,1.6-0.5,2.2-1.1c0.4-0.5,0.7-1.1,0.7-1.7c0-0.6-0.2-1.1-0.6-1.5c-0.6-0.6-1.4-1.1-2.3-1.3L50.1,65.7z"/>
				</g>
				<g id="Group_641" transform="translate(49.92 3.674)">
					
						<linearGradient id="Path_936_1_" gradientUnits="userSpaceOnUse" x1="200.7272" y1="-58.4558" x2="200.7272" y2="-56.407" gradientTransform="matrix(18.1068 0 0 26.16 -3575.575 1563.5951)">
						<stop  offset="0" style="stop-color:#F2D76B"/>
						<stop  offset="0.527" style="stop-color:#EFAF1E"/>
						<stop  offset="0.643" style="stop-color:#EDA71E"/>
						<stop  offset="0.814" style="stop-color:#EB9421"/>
						<stop  offset="1" style="stop-color:#E77725"/>
					</linearGradient>
					<path id="Path_936" class="st60" d="M69.2,50.1l-6.6,1c-0.2-0.6-0.5-1.2-0.9-1.7c-0.4-0.4-0.8-0.7-1.3-1v5.1c3.6,1,6,2,7.2,3
						c1.6,1.4,2.4,3.3,2.4,5.4c0,1.2-0.3,2.4-0.9,3.5c-0.5,1-1.3,1.9-2.2,2.7c-0.8,0.7-1.8,1.2-2.8,1.6c-1.2,0.4-2.4,0.5-3.7,0.6
						v3.3h-2.6v-3.3c-1.4-0.1-2.8-0.4-4.2-0.8c-1-0.4-2-0.9-2.8-1.7c-0.7-0.7-1.4-1.4-1.8-2.3c-0.5-0.9-0.8-2-1-3l7.1-0.8
						c0.1,0.9,0.4,1.7,0.9,2.5c0.5,0.6,1.1,1.1,1.8,1.4v-6.2c-1.7-0.4-3.4-1-5-1.7c-2.3-1.2-3.8-3.6-3.7-6.2c0-2,0.8-3.9,2.2-5.2
						c1.8-1.5,4.1-2.4,6.5-2.3v-1.7h2.6V44c2.2,0,4.3,0.7,6,1.9C67.9,46.8,68.9,48.3,69.2,50.1z M57.9,48.3
						c-0.6,0.2-1.1,0.5-1.6,0.9c-0.3,0.4-0.4,0.8-0.4,1.3s0.1,1,0.4,1.4c0.4,0.5,1,0.8,1.6,1V48.3z M60.5,65.7
						c0.8-0.1,1.6-0.5,2.2-1.1c0.4-0.5,0.7-1.1,0.7-1.7c0-0.6-0.2-1.1-0.6-1.5c-0.6-0.6-1.4-1.1-2.3-1.3L60.5,65.7z"/>
				</g>
			</g>
		</g>
	</g>
</g>
</svg>
