<?xml version="1.0" encoding="utf-8"?>
<!-- Generator: Adobe Illustrator 22.1.0, SVG Export Plug-In . SVG Version: 6.00 Build 0)  -->
<svg version="1.1" id="Capa_1" xmlns="http://www.w3.org/2000/svg" xmlns:xlink="http://www.w3.org/1999/xlink" x="0px" y="0px"
	 viewBox="0 0 18.1 18.1" style="enable-background:new 0 0 18.1 18.1;" xml:space="preserve">
<style type="text/css">
	.st0{fill:#0287CC;}
</style>
<g>
	<g>
		<g>
			<g>
				<path class="st0" d="M13.7,12c-0.6-0.6-1.3-0.6-1.9,0c-0.4,0.4-0.9,0.9-1.3,1.3c-0.1,0.1-0.2,0.2-0.4,0.1
					c-0.3-0.2-0.6-0.3-0.9-0.5C8,12.1,6.9,11,5.9,9.9C5.4,9.3,5,8.6,4.7,7.9c-0.1-0.1,0-0.2,0.1-0.4c0.4-0.4,0.9-0.9,1.3-1.3
					c0.6-0.6,0.6-1.3,0-2C5.7,4,5.4,3.6,5,3.3C4.7,2.9,4.3,2.5,4,2.2C3.4,1.6,2.6,1.6,2,2.2C1.6,2.6,1.2,3.1,0.7,3.5
					C0.3,3.9,0.1,4.4,0,5c-0.1,0.9,0.2,1.8,0.5,2.7c0.7,1.8,1.7,3.4,2.9,4.8C5,14.4,7,16,9.3,17.1c1,0.5,2.1,0.9,3.3,1
					c0.8,0,1.5-0.2,2.1-0.8c0.4-0.4,0.8-0.8,1.2-1.2c0.6-0.6,0.6-1.3,0-1.9C15.2,13.4,14.5,12.7,13.7,12z"/>
				<path class="st0" d="M13,9l1.4-0.2c-0.2-1.3-0.8-2.4-1.7-3.3c-1-1-2.2-1.6-3.5-1.8L9,5c1,0.1,2,0.6,2.7,1.4
					C12.4,7.1,12.9,8,13,9z"/>
				<path class="st0" d="M15.2,2.9C13.6,1.3,11.6,0.3,9.3,0L9.1,1.4c1.9,0.3,3.7,1.1,5.1,2.5c1.3,1.3,2.2,3,2.5,4.8l1.4-0.2
					C17.7,6.4,16.7,4.5,15.2,2.9z"/>
			</g>
		</g>
	</g>
</g>
</svg>
