<?xml version="1.0" encoding="utf-8"?>
<!-- Generator: Adobe Illustrator 22.1.0, SVG Export Plug-In . SVG Version: 6.00 Build 0)  -->
<svg version="1.1" id="Layer_1" xmlns="http://www.w3.org/2000/svg" xmlns:xlink="http://www.w3.org/1999/xlink" x="0px" y="0px"
	 viewBox="0 0 389.9 372.5" style="enable-background:new 0 0 389.9 372.5;" xml:space="preserve">
<style type="text/css">
	.st0{fill:#1592E6;}
</style>
<g id="Group_120" transform="translate(-985.7 -99.172)">
	<g id="Group_119" transform="translate(0)">
		<g id="Group_118">
			<g id="Group_117">
				<path id="Path_308" class="st0" d="M1323.2,412.1V111.2h-237.5v31.7h205.9v269.2H1323.2z"/>
				<path id="Path_309" class="st0" d="M1038.1,162v294.2c0,1.8,1.4,3.3,3.3,3.3h231c1.8,0,3.3-1.5,3.3-3.3c0,0,0,0,0,0V162
					c0-1.8-1.4-3.3-3.3-3.3h-231C1039.6,158.7,1038.1,160.2,1038.1,162C1038.1,162,1038.1,162,1038.1,162z M1069.8,206.2H1244v15.8
					h-174.2L1069.8,206.2z M1069.8,253.7H1244v15.8h-174.2L1069.8,253.7z M1069.8,301.2H1244v15.8h-174.2L1069.8,301.2z
					 M1069.8,348.7H1244v15.8h-174.2L1069.8,348.7z M1069.8,396.3h110.9v15.8h-110.9V396.3z"/>
			</g>
		</g>
	</g>
</g>
</svg>
