<?xml version="1.0" encoding="utf-8"?>
<!-- Generator: Adobe Illustrator 22.1.0, SVG Export Plug-In . SVG Version: 6.00 Build 0)  -->
<svg version="1.1" id="Layer_1" xmlns="http://www.w3.org/2000/svg" xmlns:xlink="http://www.w3.org/1999/xlink" x="0px" y="0px"
	 viewBox="0 0 50.7 50.7" style="enable-background:new 0 0 50.7 50.7;" xml:space="preserve">
<style type="text/css">
	.st0{fill:url(#Rectangle_3_1_);}
	.st1{enable-background:new    ;}
	.st2{fill:#FFFFFF;}
</style>
<linearGradient id="Rectangle_3_1_" gradientUnits="userSpaceOnUse" x1="336.7746" y1="444.5581" x2="336.7746" y2="443.5581" gradientTransform="matrix(50.681 0 0 -50.681 -17042.7324 22530.6504)">
	<stop  offset="0" style="stop-color:#EA6D36"/>
	<stop  offset="1" style="stop-color:#F2B499"/>
</linearGradient>
<path id="Rectangle_3" class="st0" d="M8,0h34.7c4.4,0,8,3.6,8,8v34.7c0,4.4-3.6,8-8,8H8c-4.4,0-8-3.6-8-8V8C0,3.6,3.6,0,8,0z"/>
<g class="st1">
	<path class="st2" d="M39.4,28.9c0,2.6-0.7,5-1.9,7.1c-0.3,0.5-0.8,0.7-1.3,0.7H14.5c-0.5,0-1.1-0.3-1.3-0.7
		c-1.2-2.1-1.9-4.5-1.9-7.1c0-7.8,6.3-14.1,14.1-14.1S39.4,21.1,39.4,28.9z M17.5,30.4c0-0.9-0.7-1.6-1.6-1.6
		c-0.9,0-1.6,0.7-1.6,1.6S15.1,32,16,32C16.8,32,17.5,31.3,17.5,30.4z M19.9,22.6c0-0.9-0.7-1.6-1.6-1.6s-1.6,0.7-1.6,1.6
		s0.7,1.6,1.6,1.6S19.9,23.5,19.9,22.6z M29.6,19.2c-0.6-0.2-1.3,0.1-1.5,0.7l-3,9c-1.6,0.1-2.9,1.4-2.9,3.1c0,0.6,0.2,1.1,0.4,1.6
		H28c0.3-0.5,0.4-1,0.4-1.6c0-1-0.4-1.8-1.1-2.4l3-9C30.6,20,30.2,19.4,29.6,19.2z M23.8,19.5c0,0.9,0.7,1.6,1.6,1.6
		c0.3,0,0.6-0.1,0.9-0.3l0.5-1.4c0-0.1,0.1-0.2,0.2-0.3c-0.2-0.7-0.8-1.2-1.5-1.2C24.5,17.9,23.8,18.6,23.8,19.5z M32.4,24.2
		c0.9,0,1.6-0.7,1.6-1.6c0-0.9-0.7-1.6-1.6-1.6c-0.2,0-0.4,0-0.5,0.1l-0.8,2.3C31.4,23.9,31.8,24.2,32.4,24.2z M36.3,30.4
		c0-0.9-0.7-1.6-1.6-1.6s-1.6,0.7-1.6,1.6s0.7,1.6,1.6,1.6S36.3,31.3,36.3,30.4z"/>
</g>
</svg>
