<?xml version="1.0" encoding="utf-8"?>
<!-- Generator: Adobe Illustrator 22.1.0, SVG Export Plug-In . SVG Version: 6.00 Build 0)  -->
<svg version="1.1" id="Layer_1" focusable="false" xmlns="http://www.w3.org/2000/svg" xmlns:xlink="http://www.w3.org/1999/xlink"
	 x="0px" y="0px" viewBox="0 0 16.5 16.5" style="enable-background:new 0 0 16.5 16.5;" xml:space="preserve">
<style type="text/css">
	.st0{enable-background:new    ;}
	.st1{fill:#057D5A;}
</style>
<g class="st0">
	<path class="st1" d="M5.2,9.6c0.7,0,1.1,0.9,0.6,1.4l-1.4,1.4c1,1,2.4,1.5,3.8,1.5c2.6,0,4.8-1.8,5.4-4.2c0-0.2,0.2-0.3,0.4-0.3
		h1.9c0.2,0,0.4,0.2,0.4,0.5c-0.7,3.8-4.1,6.7-8.1,6.7c-2.2,0-4.2-0.9-5.7-2.3l-1.2,1.2C0.9,15.9,0,15.5,0,14.8v-4.5
		c0-0.4,0.4-0.8,0.8-0.8H5.2z M8.2,2.7c-2.6,0-4.8,1.8-5.4,4.2c0,0.2-0.2,0.3-0.4,0.3H0.5c-0.2,0-0.4-0.2-0.4-0.5
		C0.9,2.9,4.2,0,8.2,0c2.2,0,4.2,0.9,5.7,2.3l1.2-1.2c0.5-0.5,1.4-0.1,1.4,0.6v4.5c0,0.4-0.4,0.8-0.8,0.8h-4.5
		c-0.7,0-1.1-0.9-0.6-1.4L12,4.2C11,3.2,9.7,2.7,8.2,2.7z"/>
</g>
</svg>
