<?xml version="1.0" encoding="utf-8"?>
<!-- Generator: Adobe Illustrator 22.1.0, SVG Export Plug-In . SVG Version: 6.00 Build 0)  -->
<svg version="1.1" id="Layer_1" focusable="false" xmlns="http://www.w3.org/2000/svg" xmlns:xlink="http://www.w3.org/1999/xlink"
	 x="0px" y="0px" viewBox="0 0 22 16.5" style="enable-background:new 0 0 22 16.5;" xml:space="preserve">
<style type="text/css">
	.st0{enable-background:new    ;}
	.st1{fill:#014632;}
</style>
<g class="st0">
	<path class="st1" d="M7.8,9.2C2.1,5.1,1.7,4.7,0.4,3.7C0.1,3.5,0,3.2,0,2.9V2.1C0,0.9,0.9,0,2.1,0h17.9C21.1,0,22,0.9,22,2.1v0.8
		c0,0.3-0.1,0.6-0.4,0.8c-1.3,1-1.7,1.4-7.5,5.5C13.4,9.7,12,11,11,11C10,11,8.6,9.7,7.8,9.2z M22,5.7v8.8c0,1.1-0.9,2.1-2.1,2.1
		H2.1c-1.1,0-2.1-0.9-2.1-2.1V5.7c0-0.2,0.2-0.3,0.4-0.2c1,0.7,2.2,1.7,6.6,4.9c0.9,0.7,2.4,2.1,4,2c1.5,0,3.1-1.4,4-2
		c4.4-3.2,5.7-4.1,6.6-4.9C21.8,5.3,22,5.4,22,5.7z"/>
</g>
</svg>
