<?xml version="1.0" encoding="utf-8"?>
<!-- Generator: Adobe Illustrator 22.1.0, SVG Export Plug-In . SVG Version: 6.00 Build 0)  -->
<svg version="1.1" id="Layer_1" xmlns="http://www.w3.org/2000/svg" xmlns:xlink="http://www.w3.org/1999/xlink" x="0px" y="0px"
	 viewBox="0 0 18 18" style="enable-background:new 0 0 18 18;" xml:space="preserve">
<style type="text/css">
	.st0{fill:#057D5A;}
</style>
<path id="Path_1933" class="st0" d="M10.4,13.5c0.5,0,0.8-0.4,0.8-0.8c0,0,0,0,0,0V6.7h3.1c0.4,0,0.7-0.3,0.7-0.7
	c0-0.2-0.1-0.4-0.2-0.5L9.5,0.2c-0.3-0.3-0.7-0.3-1,0L3.2,5.5c-0.3,0.3-0.3,0.7,0,1c0.1,0.1,0.3,0.2,0.5,0.2h3.1v5.9
	c0,0.5,0.4,0.8,0.8,0.8c0,0,0,0,0,0H10.4z M18,13.2c0-0.5-0.4-0.8-0.8-0.8c0,0,0,0,0,0h-4.8v0.3c0,1.1-0.9,2-2,2H7.6
	c-1.1,0-2-0.9-2-2v-0.3H0.8c-0.5,0-0.8,0.4-0.8,0.8c0,0,0,0,0,0v3.9C0,17.6,0.4,18,0.8,18c0,0,0,0,0,0h16.3c0.5,0,0.8-0.4,0.8-0.8
	c0,0,0,0,0,0V13.2z M13.6,16.3c0,0.4-0.3,0.7-0.7,0.7s-0.7-0.3-0.7-0.7c0-0.4,0.3-0.7,0.7-0.7l0,0C13.3,15.6,13.6,15.9,13.6,16.3z
	 M15.9,16.3c0,0.4-0.3,0.7-0.7,0.7s-0.7-0.3-0.7-0.7c0-0.4,0.3-0.7,0.7-0.7l0,0C15.6,15.6,15.9,15.9,15.9,16.3z"/>
</svg>
