<?xml version="1.0" encoding="utf-8"?>
<!-- Generator: Adobe Illustrator 22.1.0, SVG Export Plug-In . SVG Version: 6.00 Build 0)  -->
<svg version="1.1" id="Layer_1" focusable="false" xmlns="http://www.w3.org/2000/svg" xmlns:xlink="http://www.w3.org/1999/xlink"
	 x="0px" y="0px" viewBox="0 0 22 22" style="enable-background:new 0 0 22 22;" xml:space="preserve">
<style type="text/css">
	.st0{enable-background:new    ;}
	.st1{fill:#014632;}
</style>
<g class="st0">
	<path class="st1" d="M22,2.1C22,13.1,13.1,22,2.1,22c-0.5,0-0.9-0.3-1-0.8l-1-4.5c-0.1-0.5,0.1-1,0.6-1.2l4.8-2.1
		c0.4-0.2,0.9-0.1,1.2,0.3l2.1,2.6c3.4-1.6,6.1-4.3,7.6-7.6l-2.6-2.1c-0.4-0.3-0.5-0.8-0.3-1.2l2.1-4.8c0.2-0.5,0.7-0.7,1.2-0.6
		l4.5,1C21.7,1.2,22,1.6,22,2.1z"/>
</g>
</svg>
