<?xml version="1.0" encoding="utf-8"?>
<!-- Generator: Adobe Illustrator 22.1.0, SVG Export Plug-In . SVG Version: 6.00 Build 0)  -->
<svg version="1.1" id="Layer_1" xmlns="http://www.w3.org/2000/svg" xmlns:xlink="http://www.w3.org/1999/xlink" x="0px" y="0px"
	 viewBox="0 0 23.9 23.9" style="enable-background:new 0 0 23.9 23.9;" xml:space="preserve">
<style type="text/css">
	.st0{fill:#4E4E4E;}
</style>
<g id="Group_667" transform="translate(0 0)">
	<path id="Path_697" class="st0" d="M4.8,10.3c1.9,3.8,5,6.8,8.7,8.7l2.9-2.9c0.4-0.4,0.9-0.5,1.3-0.3c1.5,0.5,3.1,0.8,4.7,0.8
		c0.7,0,1.3,0.6,1.3,1.3l0,0v4.6c0,0.7-0.6,1.3-1.3,1.3c0,0,0,0,0,0l0,0C10.1,23.9,0,13.8,0,1.3c0,0,0,0,0,0v0C0,0.6,0.6,0,1.3,0
		l0,0H6c0.7,0,1.3,0.6,1.3,1.3l0,0c0,1.6,0.3,3.2,0.8,4.7c0.2,0.5,0,1-0.3,1.4L4.8,10.3z"/>
</g>
</svg>
