<svg id="ic_home" xmlns="http://www.w3.org/2000/svg" width="21.053" height="21.053" viewBox="0 0 21.053 21.053">
  <path id="Path_881" data-name="Path 881" d="M8.114,0H1.535A1.537,1.537,0,0,0,0,1.535V5.482A1.537,1.537,0,0,0,1.535,7.018H8.114A1.537,1.537,0,0,0,9.649,5.482V1.535A1.537,1.537,0,0,0,8.114,0Zm0,0" fill="#fff"/>
  <path id="Path_882" data-name="Path 882" d="M8.114,213.332H1.535A1.537,1.537,0,0,0,0,214.867v9.211a1.537,1.537,0,0,0,1.535,1.535H8.114a1.537,1.537,0,0,0,1.535-1.535v-9.211A1.537,1.537,0,0,0,8.114,213.332Zm0,0" transform="translate(0 -204.56)" fill="#fff"/>
  <path id="Path_883" data-name="Path 883" d="M285.446,341.332h-6.579a1.537,1.537,0,0,0-1.535,1.535v3.947a1.537,1.537,0,0,0,1.535,1.535h6.579a1.537,1.537,0,0,0,1.535-1.535v-3.947A1.537,1.537,0,0,0,285.446,341.332Zm0,0" transform="translate(-265.929 -327.297)" fill="#fff"/>
  <path id="Path_884" data-name="Path 884" d="M285.446,0h-6.579a1.537,1.537,0,0,0-1.535,1.535v9.211a1.537,1.537,0,0,0,1.535,1.535h6.579a1.537,1.537,0,0,0,1.535-1.535V1.535A1.537,1.537,0,0,0,285.446,0Zm0,0" transform="translate(-265.929)" fill="#fff"/>
</svg>
