<?xml version="1.0" encoding="utf-8"?>
<!-- Generator: Adobe Illustrator 22.1.0, SVG Export Plug-In . SVG Version: 6.00 Build 0)  -->
<svg version="1.1" id="Layer_1" focusable="false" xmlns="http://www.w3.org/2000/svg" xmlns:xlink="http://www.w3.org/1999/xlink"
	 x="0px" y="0px" viewBox="0 0 20 15" style="enable-background:new 0 0 20 15;" xml:space="preserve">
<style type="text/css">
	.st0{enable-background:new    ;}
	.st1{fill:#7B7B7B;}
</style>
<g class="st0">
	<path class="st1" d="M20,1.9v11.3c0,1-0.8,1.9-1.9,1.9H1.9c-1,0-1.9-0.8-1.9-1.9V1.9C0,0.8,0.8,0,1.9,0h16.3C19.2,0,20,0.8,20,1.9z
		 M18.1,12.9V2.1c0-0.1-0.1-0.2-0.2-0.2H2.1C2,1.9,1.9,2,1.9,2.1v10.8c0,0.1,0.1,0.2,0.2,0.2h15.8C18,13.1,18.1,13,18.1,12.9z
		 M6.6,5c0,0.9-0.7,1.6-1.6,1.6S3.4,5.9,3.4,5S4.1,3.4,5,3.4S6.6,4.1,6.6,5z M3.8,9.4l1.5-1.5c0.2-0.2,0.5-0.2,0.7,0l1.5,1.5
		l4.7-4.7c0.2-0.2,0.5-0.2,0.7,0l3.4,3.4v3.1H3.8V9.4z"/>
</g>
</svg>
