<?xml version="1.0" encoding="utf-8"?>
<!-- Generator: Adobe Illustrator 22.1.0, SVG Export Plug-In . SVG Version: 6.00 Build 0)  -->
<svg version="1.1" id="Layer_1" xmlns="http://www.w3.org/2000/svg" xmlns:xlink="http://www.w3.org/1999/xlink" x="0px" y="0px"
	 viewBox="0 0 389.9 372.5" style="enable-background:new 0 0 389.9 372.5;" xml:space="preserve">
<style type="text/css">
	.st0{fill:#1592E6;}
</style>
<g id="Group_112" transform="translate(-1773.643 -97.043)">
	<g id="Group_111" transform="translate(0 0)">
		<g id="Group_100" transform="translate(6.974 15.246)">
			<g id="Group_99">
				<path id="Path_301" class="st0" d="M2030.8,350.7h-144.9c-3.2,0-5.8,2.6-5.8,5.8s2.6,5.8,5.8,5.8h144.9c3.2,0,5.8-2.6,5.8-5.8
					c0,0,0,0,0,0C2036.6,353.2,2034,350.7,2030.8,350.7z"/>
			</g>
		</g>
		<g id="Group_102" transform="translate(15.438 17.128)">
			<g id="Group_101">
				<path id="Path_302" class="st0" d="M2022.3,377.8h-14.5c-3.2,0-5.8,2.6-5.8,5.8c0,0,0,0,0,0c0,3.2,2.6,5.8,5.8,5.8h14.5
					c3.2,0,5.8-2.6,5.8-5.8C2028.1,380.4,2025.5,377.8,2022.3,377.8z"/>
			</g>
		</g>
		<g id="Group_104" transform="translate(6.974 17.128)">
			<g id="Group_103">
				<path id="Path_303" class="st0" d="M1990,377.8h-104.1c-3.2,0-5.8,2.6-5.8,5.8c0,0,0,0,0,0c0,3.2,2.6,5.8,5.8,5.8H1990
					c3.2,0,5.8-2.6,5.8-5.8C1995.8,380.4,1993.2,377.8,1990,377.8z"/>
			</g>
		</g>
		<g id="Group_106" transform="translate(6.974 13.364)">
			<g id="Group_105">
				<path id="Path_304" class="st0" d="M1943.8,323.6h-57.9c-3.2,0-5.8,2.6-5.8,5.8s2.6,5.8,5.8,5.8h57.9c3.2,0,5.8-2.6,5.8-5.8
					S1947,323.6,1943.8,323.6z"/>
			</g>
		</g>
		<g id="Group_108" transform="translate(12.626 13.364)">
			<g id="Group_107">
				<path id="Path_305" class="st0" d="M2025.1,323.6h-57.8c-3.2,0-5.8,2.6-5.8,5.8c0,3.2,2.6,5.8,5.8,5.8c0,0,0,0,0,0h57.8
					c3.2,0,5.8-2.6,5.8-5.8C2030.9,326.1,2028.3,323.6,2025.1,323.6z"/>
			</g>
		</g>
		<g id="Group_110">
			<g id="Group_109">
				<path id="Path_306" class="st0" d="M2124.7,209.3h-46.2v-74c0-3.2-2.7-4.3-5.9-4.3h-214.4c-3.2,0-5.8,1.1-5.8,4.3v74h-46.1
					c-14.2-0.3-26,11-26.4,25.2c0,0.1,0,0.3,0,0.4l-0.2,112.8c0,14.6,11.7,26.6,26.4,26.8h46.2v53.6c0,3.2,2.6,7.3,5.8,7.3h214.4
					c3.2,0,5.9-4.1,5.9-7.3v-53.6h46.1c14.7-0.4,26.4-12.4,26.4-27.1l0.2-112.1C2150.9,220.9,2139.2,209.3,2124.7,209.3
					C2124.7,209.3,2124.7,209.3,2124.7,209.3z M1820.3,292c-6.4,0-11.6-5.2-11.6-11.6c0,0,0,0,0,0c0-6.4,5.2-11.6,11.6-11.6l0,0
					c6.4,0,11.6,5.2,11.6,11.6c0,0,0,0,0,0C1831.9,286.8,1826.7,292,1820.3,292C1820.3,292,1820.2,292,1820.3,292L1820.3,292z
					 M1846.5,286.2c-3.2,0-5.8-2.6-5.8-5.8c0-3.2,2.6-5.8,5.8-5.8c3.2,0,5.8,2.6,5.8,5.8C1852.2,283.6,1849.6,286.2,1846.5,286.2
					C1846.4,286.1,1846.4,286.1,1846.5,286.2L1846.5,286.2z M2066.8,142.7v98.6h-202.9v-98.6H2066.8z M2066.8,423.9h-202.9V319.5
					h202.9V423.9z M2072.5,287.6h-28.9c-3.2,0-5.8-2.6-5.8-5.8c0-3.2,2.6-5.8,5.8-5.8h28.9c3.2,0,5.8,2.6,5.8,5.8c0,0,0,0,0,0
					C2078.3,285,2075.8,287.6,2072.5,287.6C2072.5,287.7,2072.5,287.7,2072.5,287.6L2072.5,287.6z M2097.7,286.2
					c-3.2,0-5.8-2.6-5.8-5.8c0-3.2,2.6-5.8,5.8-5.8c3.2,0,5.8,2.6,5.8,5.8C2103.5,283.6,2100.9,286.2,2097.7,286.2
					C2097.7,286.1,2097.7,286.1,2097.7,286.2L2097.7,286.2z"/>
			</g>
		</g>
	</g>
</g>
</svg>
