<?xml version="1.0" encoding="utf-8"?>
<!-- Generator: Adobe Illustrator 22.1.0, SVG Export Plug-In . SVG Version: 6.00 Build 0)  -->
<svg version="1.1" id="Layer_1" focusable="false" xmlns="http://www.w3.org/2000/svg" xmlns:xlink="http://www.w3.org/1999/xlink"
	 x="0px" y="0px" viewBox="0 0 25 20.8" style="enable-background:new 0 0 25 20.8;" xml:space="preserve">
<style type="text/css">
	.st0{enable-background:new    ;}
	.st1{fill:#576271;}
</style>
<g class="st0">
	<path class="st1" d="M25,7v13.4c0,0.2-0.1,0.3-0.3,0.3h-3.1c-0.2,0-0.3-0.1-0.3-0.3v-9.7c0-0.7-0.6-1.3-1.3-1.3H5
		c-0.7,0-1.3,0.6-1.3,1.3v9.7c0,0.2-0.1,0.3-0.3,0.3H0.3c-0.2,0-0.3-0.1-0.3-0.3V7c0-0.8,0.5-1.4,1.2-1.7l10.6-4.4
		c0.2-0.1,0.5-0.1,0.7-0.1s0.5,0.1,0.7,0.1l10.6,4.4C24.5,5.6,25,6.3,25,7z M20,18.5v1.9c0,0.2-0.1,0.3-0.3,0.3H5.3
		c-0.2,0-0.3-0.1-0.3-0.3l0-1.9c0-0.2,0.1-0.3,0.3-0.3h14.4C19.9,18.2,20,18.4,20,18.5z M20,14.8v1.9c0,0.2-0.1,0.3-0.3,0.3H5.3
		C5.2,17,5,16.8,5,16.7l0-1.9c0-0.2,0.1-0.3,0.3-0.3h14.4C19.9,14.5,20,14.6,20,14.8z M20,11v1.9c0,0.2-0.1,0.3-0.3,0.3H5.3
		c-0.2,0-0.3-0.1-0.3-0.3L5,11c0-0.2,0.1-0.3,0.3-0.3h14.4C19.9,10.7,20,10.9,20,11z"/>
</g>
</svg>
