<?xml version="1.0" encoding="utf-8"?>
<!-- Generator: Adobe Illustrator 22.1.0, SVG Export Plug-In . SVG Version: 6.00 Build 0)  -->
<svg version="1.1" id="Layer_1" xmlns="http://www.w3.org/2000/svg" xmlns:xlink="http://www.w3.org/1999/xlink" x="0px" y="0px"
	 viewBox="0 0 17.5 17.5" style="enable-background:new 0 0 17.5 17.5;" xml:space="preserve">
<style type="text/css">
	.st0{fill:#576271;}
</style>
<path id="Path_1929" class="st0" d="M0,7.5h7.5V0H0V7.5z M2.5,2.5H5V5H2.5V2.5z M10,0v7.5h7.5V0H10z M15,5h-2.5V2.5H15V5z M0,17.5
	h7.5V10H0V17.5z M2.5,12.5H5V15H2.5V12.5z M16.3,10v1.3h-2.5V10H10v7.5h2.5v-3.8h1.3V15h3.8v-5H16.3z M16.3,16.3v1.3h1.3v-1.3H16.3z
	 M13.8,16.3v1.3H15v-1.3H13.8z"/>
</svg>
