<?xml version="1.0" encoding="utf-8"?>
<!-- Generator: Adobe Illustrator 22.1.0, SVG Export Plug-In . SVG Version: 6.00 Build 0)  -->
<svg version="1.1" id="Layer_1" xmlns="http://www.w3.org/2000/svg" xmlns:xlink="http://www.w3.org/1999/xlink" x="0px" y="0px"
	 viewBox="0 0 173 39.8" style="enable-background:new 0 0 173 39.8;" xml:space="preserve">
<style type="text/css">
	.st0{fill:#E46026;}
	.st1{fill:#014632;}
</style>
<g>
	<path id="Path_1" class="st0" d="M24.4,29.3v5H5V14.9h4.8v-5H4.5C2,9.9,0,11.9,0,14.4v20.3c0,2.5,2,4.5,4.5,4.5h20.3
		c2.5,0,4.5-2,4.5-4.5v-5.4H24.4z"/>
	<path id="Path_2" class="st1" d="M34.5,0H14.3c-2.5,0-4.5,2-4.5,4.5v5.4h5V5h19.4v19.4h-4.8v5h5.2c2.5,0,4.5-2,4.5-4.5V4.5
		C39,2,37,0,34.5,0z"/>
	<g id="Group_1" transform="translate(49.941 13.661)">
		<path id="Path_3" class="st1" d="M0,25.5V6.4h4.6v19.2H0z M0.5,4.2V0.9h3.7v3.3L0.5,4.2z"/>
		<path id="Path_4" class="st1" d="M8.3,25.5V6.4h4.2v1.8h0.1c0.6-0.8,1.4-1.4,2.2-1.8c1.9-0.8,4.1-0.8,6,0c0.9,0.4,1.8,1,2.5,1.7
			c0.2,0.2,0.4,0.3,0.5,0.6c0.6,0.9,1.1,1.9,1.3,2.9c0.2,1.3,0.3,2.6,0.3,4v9.9h-4.6v-9c0-0.9,0-1.8-0.1-2.7
			c-0.1-0.7-0.3-1.3-0.6-1.9c-0.3-0.5-0.8-0.9-1.3-1.2c-0.5-0.3-1.1-0.4-1.8-0.4c-0.6,0-1.3,0.2-1.8,0.5c-0.6,0.3-1,0.7-1.4,1.2
			c-0.4,0.6-0.6,1.4-0.6,2.1c-0.1,0.8-0.1,1.7-0.1,2.8v8.7L8.3,25.5z"/>
		<path id="Path_5" class="st1" d="M29.5,25.5V0h5.8c1,0,2.1,0,3.1,0.2C39.3,0.3,40.2,0.6,41,1c0.7,0.4,1.3,0.8,1.8,1.4
			c0.5,0.6,1,1.3,1.3,2c0.3,0.7,0.5,1.5,0.5,2.3c0,1-0.2,2-0.7,2.9c-0.5,0.9-1.2,1.6-2.1,2c1.3,0.4,2.4,1.2,3.2,2.3
			c0.8,1.1,1.2,2.5,1.1,3.9c0,1.2-0.3,2.3-0.8,3.4c-0.6,1.1-1.3,2-2.3,2.7c-0.9,0.7-1.9,1.1-3,1.3c-1.3,0.2-2.7,0.4-4.1,0.4
			L29.5,25.5z M34.3,9.8h0.9c1.1,0.1,2.2-0.1,3.2-0.4c0.4-0.2,0.8-0.5,1.1-1c0.3-0.4,0.4-0.9,0.4-1.4c0-0.5-0.1-1-0.4-1.4
			c-0.3-0.4-0.7-0.7-1.2-0.9c-0.5-0.2-1.1-0.3-1.6-0.3c-0.3,0-0.6,0-0.8,0c-0.2,0-0.4,0-0.7,0h-0.9L34.3,9.8z M34.3,21h2
			c0.7,0,1.5,0,2.2-0.2c0.6-0.1,1.2-0.4,1.7-0.7c0.8-0.5,1.3-1.5,1.2-2.5c0-0.5-0.1-1.1-0.4-1.5c-0.3-0.5-0.8-0.8-1.3-1.1
			c-0.5-0.2-1-0.4-1.5-0.4c-0.5-0.1-1.1-0.1-1.9-0.1h-2.1L34.3,21z"/>
		<path id="Path_6" class="st1" d="M49.1,25.5V6.4h4.2v1.7h0.1c0.4-0.7,1-1.4,1.7-1.8c0.7-0.4,1.5-0.6,2.4-0.5h0.4v4.5
			c-1,0-2,0.3-2.8,0.9c-0.4,0.3-0.7,0.7-0.9,1.1c-0.2,0.4-0.3,0.8-0.4,1.3c0,0.4-0.1,1-0.1,1.7v10.3H49.1z"/>
		<path id="Path_7" class="st1" d="M79.6,6.4v19.2h-4.2v-2.6h-0.1c-0.7,1-1.7,1.8-2.9,2.3c-1.1,0.6-2.4,0.9-3.6,0.9
			c-1.4,0-2.7-0.3-4-0.8c-1.2-0.6-2.3-1.4-3.1-2.4c-1.6-2-2.5-4.4-2.4-7c0-0.8,0.1-1.7,0.2-2.5c0.2-0.8,0.4-1.6,0.8-2.3
			c0.4-0.8,0.9-1.5,1.4-2.1c0.9-1.1,2-1.9,3.2-2.5c1.2-0.5,2.6-0.8,3.9-0.8c1.3,0,2.5,0.3,3.6,0.8c1.1,0.6,2.1,1.4,2.8,2.5V6.4
			L79.6,6.4z M75.2,15.9c0-0.8-0.1-1.5-0.4-2.3c-0.3-0.7-0.6-1.3-1.1-1.8c-0.5-0.5-1.1-0.9-1.8-1.2c-0.7-0.3-1.5-0.4-2.2-0.4
			c-1.5-0.1-3,0.6-4.1,1.7c-1.1,1.1-1.7,2.6-1.6,4.2c0,1.5,0.6,2.9,1.7,3.9c1.9,1.8,4.7,2.1,6.9,0.9c0.8-0.5,1.5-1.2,2-2.1
			C75,18,75.2,17,75.2,15.9L75.2,15.9z"/>
		<path id="Path_8" class="st1" d="M83,25.5V6.4h4.2v1.8h0.1c0.6-0.8,1.3-1.4,2.2-1.8c1.9-0.8,4.1-0.8,6,0c0.9,0.4,1.8,1,2.5,1.7
			c0.2,0.2,0.4,0.3,0.5,0.6c0.6,0.9,1.1,1.9,1.3,2.9c0.2,1.3,0.3,2.6,0.3,4v9.9h-4.6v-9c0-0.9,0-1.8-0.1-2.7
			c-0.1-0.7-0.3-1.3-0.6-1.9c-0.3-0.5-0.8-0.9-1.3-1.2c-0.5-0.3-1.1-0.4-1.8-0.4c-0.6,0-1.3,0.2-1.8,0.5c-0.6,0.3-1,0.7-1.4,1.2
			c-0.4,0.6-0.6,1.4-0.6,2.1c-0.1,0.8-0.1,1.7-0.1,2.8v8.7L83,25.5z"/>
		<path id="Path_9" class="st1" d="M123.1,0v25.5h-4.2v-2.6h-0.1c-0.4,0.7-1,1.3-1.6,1.8c-0.7,0.5-1.4,0.9-2.2,1.1
			c-0.8,0.2-1.6,0.4-2.5,0.4c-1.3,0-2.6-0.3-3.8-0.9c-1.2-0.6-2.2-1.4-3.1-2.4c-0.8-0.9-1.5-2-1.9-3.2c-1.4-3.7-0.7-7.8,1.9-10.7
			c0.6-0.7,1.3-1.2,2-1.7c0.8-0.5,1.6-0.9,2.4-1.1c0.8-0.3,1.7-0.4,2.6-0.4c0.7,0,1.5,0.1,2.2,0.3c0.7,0.2,1.4,0.5,2,0.9
			c0.6,0.4,1.2,0.9,1.7,1.4V0H123.1z M118.8,15.9c0-0.8-0.1-1.5-0.4-2.2c-0.3-0.7-0.7-1.3-1.2-1.8c-1.1-1.1-2.5-1.7-4.1-1.7
			c-0.7,0-1.4,0.1-2.1,0.4c-1.4,0.6-2.4,1.7-3,3c-0.3,0.7-0.4,1.4-0.4,2.1c0,1,0.2,2,0.7,2.9c0.5,0.9,1.2,1.6,2,2.1
			c0.9,0.5,1.9,0.8,2.9,0.8c1,0,2-0.3,2.8-0.8C117.7,19.9,118.8,18,118.8,15.9L118.8,15.9z"/>
	</g>
</g>
</svg>
