<?xml version="1.0" encoding="utf-8"?>
<!-- Generator: Adobe Illustrator 22.1.0, SVG Export Plug-In . SVG Version: 6.00 Build 0)  -->
<svg version="1.1" id="Layer_1" xmlns="http://www.w3.org/2000/svg" xmlns:xlink="http://www.w3.org/1999/xlink" x="0px" y="0px"
	 viewBox="0 0 991.5 386.8" style="enable-background:new 0 0 991.5 386.8;" xml:space="preserve">
<style type="text/css">
	.st0{fill:#0E83C4;}
	.st1{clip-path:url(#SVGID_2_);fill:url(#SVGID_3_);}
	.st2{fill:none;stroke:#DDD54A;stroke-width:1.1903;stroke-miterlimit:10;}
	.st3{fill:#383838;}
</style>
<g>
	<polygon class="st0" points="170.8,254.7 201.7,133.3 236.3,133.3 208.9,240.4 289.8,351.1 258.9,376.1 	"/>
	<g>
		<defs>
			<polygon id="SVGID_1_" points="184.5,305.3 244,386.2 0,386.2 0,0 441,0 441,386.8 338.6,386.8 245.8,260.7 			"/>
		</defs>
		<clipPath id="SVGID_2_">
			<use xlink:href="#SVGID_1_"  style="overflow:visible;"/>
		</clipPath>
		<linearGradient id="SVGID_3_" gradientUnits="userSpaceOnUse" x1="16.8311" y1="220.4823" x2="349.9841" y2="220.4823">
			<stop  offset="0" style="stop-color:#109BF8"/>
			<stop  offset="1" style="stop-color:#0E83C4"/>
		</linearGradient>
		<path class="st1" d="M331,118.2c-42.6-61.5-143.2-65.5-224.8-9c-81.5,56.5-113,152.2-70.4,213.6s143.2,65.5,224.8,9
			C342.1,275.3,373.6,179.6,331,118.2z M238.5,299.3c-58.6,39.6-130.2,36.1-159.9-7.9s-6.4-111.8,52.2-151.4
			c58.6-39.6,130.2-36.1,159.9,7.9S297,259.7,238.5,299.3z"/>
	</g>
	<path class="st2" d="M283.9,314.2"/>
	<path class="st2" d="M262.5,284.5"/>
	<g>
		<path class="st3" d="M376.9,305.3l16.4-94H418l-16.4,94H376.9z M395.2,200.5l3.9-22h24.7l-3.7,22H395.2z"/>
		<path class="st3" d="M428,305.3l16.5-94h22.7l-2.7,14.5c9.5-11.6,20.2-17.4,31.9-17.4c8.2,0,14.8,2.2,19.7,6.6
			c5.2,4.7,7.7,11,7.7,19.1c0,3.4-0.3,7.1-1,10.9l-10.8,60.3h-24.9l10.4-59.6c0.5-2.6,0.7-4.6,0.7-6c0-7.1-3.9-10.6-11.8-10.6
			c-6.9,0-12.6,2.6-17.1,7.8c-4,4.6-6.7,10.5-7.9,17.7l-8.9,50.6H428z"/>
		<path class="st3" d="M555,305.3l-13.2-94h24.5l6.5,64.7l29.4-64.7H628l-46.2,94H555z"/>
		<path class="st3" d="M630.6,264.9c0-16.2,4.9-29.6,14.6-40.1c10-10.9,23.1-16.3,39.3-16.3c13.5,0,24.1,3.8,31.7,11.5
			c7.6,7.7,11.4,18.3,11.4,31.8c0,16.1-4.8,29.4-14.4,40c-9.9,10.9-22.9,16.4-38.8,16.4c-13.4,0-24-3.9-31.9-11.6
			C634.6,288.7,630.6,278.2,630.6,264.9z M683.1,228.7c-8.5,0-15.4,4.1-20.7,12.4c-4.5,7.2-6.8,15.3-6.8,24.3
			c0,6.7,1.6,11.9,4.8,15.8c3.4,4.2,8.4,6.4,14.9,6.4c8.6,0,15.5-4,20.6-12.1c4.4-7,6.5-15.1,6.5-24.2c0-6.7-1.5-12-4.6-15.9
			C694.5,230.9,689.6,228.7,683.1,228.7z"/>
		<path class="st3" d="M741.3,305.3l16.4-94h24.7l-16.4,94H741.3z M759.6,200.5l3.9-22h24.7l-3.7,22H759.6z"/>
		<path class="st3" d="M858.5,271.6h24.9c-2.1,11.7-7.1,20.7-14.9,27c-7.8,6.3-17.7,9.4-29.7,9.4c-13.9,0-24.5-4-31.9-12
			c-7.1-7.7-10.7-18.6-10.7-32.6c0-15.7,4.2-28.6,12.7-38.6c9-10.7,21.1-16.1,36.5-16.1c12.1,0,21.6,2.8,28.4,8.5
			c7.3,6.1,11.2,15,11.6,26.9h-24.8c-0.2-10.1-5.4-15.2-15.6-15.2c-8.3,0-14.6,4.2-18.9,12.7c-3.4,6.7-5.1,14.6-5.1,23.8
			c0,14.6,6.2,21.9,18.5,21.9C849.4,287.3,855.7,282,858.5,271.6z"/>
		<path class="st3" d="M960.6,278.3h27c-2.7,9.9-8.4,17.4-17.1,22.6c-7.8,4.8-17.1,7.1-28,7.1c-13.3,0-23.5-4.1-30.7-12.4
			c-6.7-7.8-10.1-18.5-10.1-32c0-15.3,4.2-28.1,12.5-38.4c9-11,21-16.4,36-16.4c12.9,0,23,3.6,30.3,10.9
			c7.3,7.3,10.9,17.4,10.9,30.3c0,3.4-0.5,8.8-1.5,16.4h-63.6v0.6c0,13.8,5.9,20.8,17.6,20.8C951.4,287.8,957,284.6,960.6,278.3z
			 M928.5,249h38c0-0.3,0-0.9,0.1-1.6c0.1-0.7,0.1-1.2,0.1-1.6c0-11.8-5.5-17.7-16.4-17.7C938.5,228.2,931.3,235.1,928.5,249z"/>
	</g>
	<g>
		<path class="st3" d="M376.2,366.5l2.2-14.5H375l0.5-3.7h3.4l2.1-13.9h10.6c3.9,0,7,1.3,9.2,3.8c2.3,2.6,3.1,5.8,2.5,9.8l-0.7,4.9
			c-0.6,4.2-2.4,7.5-5.3,9.9c-2.9,2.5-6.4,3.7-10.5,3.7H376.2z M389.4,352h-5.7l-1.5,10.2h5.2c2.5,0,4.6-0.9,6.4-2.6
			c1.8-1.8,2.9-4,3.4-6.7l0.7-4.9c0.4-2.8,0-5-1.2-6.7c-1.2-1.7-3.2-2.5-5.8-2.5h-5.2l-1.4,9.6h5.7L389.4,352z"/>
		<path class="st3" d="M405.8,354.4c0.5-3.7,1.9-6.6,4.2-8.8c2.3-2.2,5.1-3.3,8.5-3.3c1.5,0,2.9,0.3,4.1,0.8
			c1.2,0.5,2.2,1.3,3.1,2.3c1.1-0.4,1.9-1.1,2.6-2.1s1.1-2.2,1.4-3.7h4.3c-0.4,2.2-1.1,4.1-2.2,5.5c-1.1,1.4-2.6,2.4-4.5,3
			c0.3,0.9,0.5,1.9,0.6,3c0.1,1.1,0,2.2-0.1,3.4l-0.1,0.5c-0.6,3.7-2,6.7-4.2,8.9c-2.2,2.2-5.1,3.3-8.5,3.3c-3.3,0-5.8-1.1-7.4-3.4
			s-2.2-5.2-1.7-8.7L405.8,354.4z M411,354.8c-0.4,2.4-0.2,4.3,0.5,5.7s2,2.1,3.9,2.1c1.8,0,3.3-0.7,4.5-2.2c1.2-1.5,2-3.4,2.3-5.6
			l0.1-0.5c0.4-2.4,0.2-4.3-0.5-5.7c-0.7-1.4-2-2.1-3.9-2.1c-1.8,0-3.3,0.7-4.5,2.2s-1.9,3.4-2.3,5.6L411,354.8z"/>
		<path class="st3" d="M438.3,346c1-1.2,2.1-2.1,3.4-2.8s2.7-1,4.1-1c2.4,0,4.2,0.8,5.4,2.3c1.2,1.5,1.6,3.9,1.1,7.1l-2.2,14.8h-5.4
			l2.2-14.8c0.3-1.9,0.1-3.3-0.5-4c-0.6-0.7-1.6-1.1-3.1-1.1c-1.1,0-2.1,0.2-3,0.7c-0.9,0.4-1.7,1.1-2.3,1.9l-2.6,17.3H430l3.6-23.8
			h4.9L438.3,346z"/>
		<path class="st3" d="M465.8,354.9c0.6-3.9,1.9-7,3.8-9.3s4.4-3.4,7.4-3.4c1.4,0,2.6,0.3,3.6,1c1,0.6,1.8,1.5,2.4,2.7l1-3.2h4.4
			l-3.6,23.8c-0.5,3.2-1.8,5.6-3.9,7.2c-2.1,1.6-4.9,2.4-8.5,2.4c-1.1,0-2.4-0.2-3.7-0.5c-1.3-0.3-2.5-0.8-3.4-1.3l1.5-4.2
			c0.8,0.5,1.8,0.8,2.9,1.1s2.2,0.4,3.4,0.4c1.9,0,3.3-0.4,4.4-1.3c1-0.8,1.7-2.1,2-3.8l0.4-2.4c-0.9,1-1.9,1.7-3,2.2
			s-2.3,0.7-3.6,0.7c-2.8,0-4.9-1.1-6.3-3.2s-1.8-4.9-1.3-8.4L465.8,354.9z M471.1,355.4c-0.4,2.3-0.2,4.1,0.5,5.3
			c0.7,1.3,1.9,1.9,3.8,1.9c1.1,0,2.1-0.2,3-0.7c0.9-0.5,1.6-1.2,2.3-2.1l1.6-10.4c-0.4-0.9-0.9-1.6-1.6-2.1
			c-0.7-0.5-1.6-0.7-2.8-0.7c-1.8,0-3.2,0.8-4.3,2.3c-1.1,1.6-1.9,3.5-2.2,6L471.1,355.4z"/>
		<path class="st3" d="M495.2,366.5h-5.4l3.6-23.8h5.4L495.2,366.5z M499.7,336.8h-5.4l0.7-4.7h5.4L499.7,336.8z"/>
		<path class="st3" d="M514.6,366.5c-0.1-0.6-0.2-1.1-0.2-1.7c0-0.6,0-1.2,0-1.7c-0.9,1.1-2,2.1-3.3,2.8c-1.3,0.8-2.7,1.1-4.2,1.1
			c-2.4,0-4.2-0.6-5.4-1.9c-1.2-1.3-1.6-3-1.3-5.2c0.4-2.4,1.5-4.2,3.5-5.5s4.7-1.9,8-1.9h4.2l0.3-2.1c0.2-1.3,0-2.3-0.6-3
			c-0.6-0.7-1.6-1-3-1c-1.2,0-2.2,0.3-3,0.9c-0.8,0.6-1.3,1.3-1.4,2.3l-5.1,0l0-0.1c0.2-2,1.3-3.6,3.3-5.1c2-1.4,4.4-2.1,7.3-2.1
			c2.7,0,4.8,0.7,6.3,2.1c1.5,1.4,2.1,3.4,1.7,6.1L520,361c-0.1,1-0.2,2-0.2,2.9s0.1,1.8,0.2,2.6H514.6z M508.7,362.7
			c1.3,0,2.5-0.3,3.7-1c1.2-0.7,2.1-1.5,2.5-2.3l0.5-3.5h-4.2c-1.5,0-2.8,0.4-3.8,1.2c-1,0.8-1.6,1.7-1.8,2.7
			c-0.1,0.9,0,1.7,0.6,2.2C506.7,362.4,507.5,362.7,508.7,362.7z M511.8,338.7l0.3-3.2c1.1-0.1,1.9-0.2,2.4-0.4
			c0.5-0.2,0.8-0.6,0.8-1.1c0.1-0.5-0.2-0.9-0.7-1.2s-1.3-0.4-2.3-0.4l0.5-2.7c2.5,0,4.3,0.4,5.4,1.1c1.2,0.7,1.6,1.8,1.4,3.1
			c-0.1,1-0.6,1.8-1.3,2.3c-0.7,0.5-1.5,0.9-2.5,1l-0.2,1.5H511.8z"/>
		<path class="st3" d="M532.1,346c1-1.2,2.1-2.1,3.4-2.8c1.3-0.7,2.7-1,4.1-1c2.4,0,4.2,0.8,5.4,2.3c1.2,1.5,1.6,3.9,1.1,7.1
			l-2.2,14.8h-5.4l2.2-14.8c0.3-1.9,0.1-3.3-0.5-4c-0.6-0.7-1.6-1.1-3.1-1.1c-1.1,0-2.1,0.2-3,0.7c-0.9,0.4-1.7,1.1-2.3,1.9
			l-2.6,17.3h-5.4l3.6-23.8h4.9L532.1,346z"/>
		<path class="st3" d="M563.8,355h-13l0.7-4.3h13L563.8,355z"/>
		<path class="st3" d="M593.1,366.5h-5.4L577,343.4l-0.1,0l-3.4,23.1h-5.4l4.8-32.1h5.4l10.7,23.1l0.1,0l3.5-23.1h5.4L593.1,366.5z"
			/>
		<path class="st3" d="M606.8,345.6c1-1.1,2-1.9,3.3-2.5c1.2-0.6,2.5-0.9,3.9-0.9c2.4,0,4.3,0.8,5.5,2.4c1.2,1.6,1.6,4.1,1.1,7.3
			l-2.2,14.5H613l2.2-14.6c0.3-1.9,0.1-3.3-0.5-4.1c-0.6-0.8-1.6-1.2-3.1-1.2c-1.1,0-2.1,0.2-3,0.6c-0.9,0.4-1.7,1-2.3,1.8
			l-2.6,17.5h-5.4l5.1-34.4h5.4L606.8,345.6z"/>
		<path class="st3" d="M637.4,366.5c-0.1-0.6-0.2-1.1-0.2-1.7c0-0.6,0-1.2,0-1.7c-0.9,1.1-2,2.1-3.3,2.8c-1.3,0.8-2.7,1.1-4.2,1.1
			c-2.4,0-4.2-0.6-5.4-1.9c-1.2-1.3-1.6-3-1.3-5.2c0.4-2.4,1.5-4.2,3.5-5.5s4.7-1.9,8-1.9h4.2l0.3-2.1c0.2-1.3,0-2.3-0.6-3
			c-0.6-0.7-1.6-1-3-1c-1.2,0-2.2,0.3-3,0.9c-0.8,0.6-1.3,1.3-1.4,2.3l-5.1,0l0-0.1c0.2-2,1.3-3.6,3.3-5.1s4.4-2.1,7.3-2.1
			c2.7,0,4.8,0.7,6.3,2.1c1.5,1.4,2.1,3.4,1.7,6.1l-1.6,10.6c-0.1,1-0.2,2-0.2,2.9s0.1,1.8,0.2,2.6H637.4z M631.4,362.7
			c1.3,0,2.5-0.3,3.7-1c1.2-0.7,2.1-1.5,2.5-2.3l0.5-3.5h-4.2c-1.5,0-2.8,0.4-3.8,1.2c-1,0.8-1.6,1.7-1.8,2.7
			c-0.1,0.9,0,1.7,0.6,2.2C629.4,362.4,630.3,362.7,631.4,362.7z"/>
		<path class="st3" d="M654.8,346c1-1.2,2.1-2.1,3.4-2.8c1.3-0.7,2.7-1,4.1-1c2.4,0,4.2,0.8,5.4,2.3c1.2,1.5,1.6,3.9,1.1,7.1
			l-2.2,14.8h-5.3l2.2-14.8c0.3-1.9,0.1-3.3-0.5-4c-0.6-0.7-1.6-1.1-3.1-1.1c-1.1,0-2.1,0.2-3,0.7c-0.9,0.4-1.7,1.1-2.3,1.9
			l-2.6,17.3h-5.4l3.6-23.8h4.9L654.8,346z"/>
		<path class="st3" d="M679.6,345.6c1-1.1,2-1.9,3.3-2.5c1.2-0.6,2.5-0.9,3.9-0.9c2.4,0,4.3,0.8,5.5,2.4c1.2,1.6,1.6,4.1,1.1,7.3
			l-2.2,14.5h-5.4l2.2-14.6c0.3-1.9,0.1-3.3-0.5-4.1c-0.6-0.8-1.6-1.2-3.1-1.2c-1.1,0-2.1,0.2-3,0.6c-0.9,0.4-1.7,1-2.3,1.8
			l-2.6,17.5h-5.4l5.1-34.4h5.4L679.6,345.6z"/>
		<path class="st3" d="M716.4,362.7c1.2,0,2.3-0.4,3.2-1.2c1-0.8,1.6-1.7,1.7-2.9h4.8l0,0.1c-0.3,2.3-1.5,4.3-3.5,5.8
			c-2.1,1.6-4.4,2.4-7,2.4c-3.3,0-5.8-1.1-7.3-3.4c-1.6-2.3-2.1-5.1-1.6-8.5l0.1-0.8c0.5-3.6,1.9-6.5,4.1-8.7c2.2-2.2,5-3.3,8.4-3.3
			c2.7,0,4.8,0.8,6.3,2.5c1.5,1.7,2.1,3.8,1.6,6.3l0,0.1h-4.9c0.2-1.4,0-2.5-0.7-3.4c-0.7-0.9-1.6-1.3-3-1.3c-1.8,0-3.3,0.7-4.4,2.2
			s-1.8,3.3-2.1,5.4l-0.1,0.8c-0.3,2.3-0.2,4.2,0.4,5.6S714.4,362.7,716.4,362.7z"/>
		<path class="st3" d="M737,345.6c1-1.1,2-1.9,3.3-2.5c1.2-0.6,2.5-0.9,3.9-0.9c2.4,0,4.3,0.8,5.5,2.4c1.2,1.6,1.6,4.1,1.1,7.3
			l-2.2,14.5h-5.4l2.2-14.6c0.3-1.9,0.1-3.3-0.5-4.1c-0.6-0.8-1.6-1.2-3.1-1.2c-1.1,0-2.1,0.2-3,0.6c-0.9,0.4-1.7,1-2.3,1.8
			l-2.6,17.5h-5.4l5.1-34.4h5.4L737,345.6z"/>
		<path class="st3" d="M754,354.4c0.5-3.7,1.9-6.6,4.2-8.8c2.3-2.2,5.1-3.3,8.5-3.3c3.3,0,5.8,1.1,7.4,3.4c1.7,2.3,2.3,5.2,1.7,8.7
			l-0.1,0.5c-0.6,3.7-2,6.7-4.2,8.9s-5.1,3.3-8.5,3.3c-3.3,0-5.8-1.1-7.4-3.4s-2.2-5.2-1.7-8.7L754,354.4z M759.3,354.8
			c-0.4,2.4-0.2,4.3,0.5,5.7c0.7,1.4,2,2.1,3.9,2.1c1.8,0,3.3-0.7,4.5-2.2c1.2-1.5,2-3.4,2.3-5.6l0.1-0.5c0.4-2.4,0.2-4.3-0.5-5.7
			c-0.7-1.4-2-2.1-3.9-2.1c-1.8,0-3.3,0.7-4.5,2.2s-1.9,3.4-2.3,5.6L759.3,354.8z M769.7,332.5h6l0,0.1l-6.8,5.7h-4.1l0-0.1
			L769.7,332.5z"/>
		<path class="st3" d="M786,346c1-1.2,2.1-2.1,3.4-2.8c1.3-0.7,2.7-1,4.1-1c2.4,0,4.2,0.8,5.4,2.3c1.2,1.5,1.6,3.9,1.1,7.1
			l-2.2,14.8h-5.4l2.2-14.8c0.3-1.9,0.1-3.3-0.5-4c-0.6-0.7-1.6-1.1-3.1-1.1c-1.1,0-2.1,0.2-3,0.7c-0.9,0.4-1.7,1.1-2.3,1.9
			l-2.6,17.3h-5.4l3.6-23.8h4.9L786,346z"/>
		<path class="st3" d="M803.3,354.9c0.6-3.9,1.9-7,3.8-9.3c2-2.3,4.4-3.4,7.4-3.4c1.4,0,2.6,0.3,3.6,1c1,0.6,1.8,1.5,2.4,2.7l1-3.2
			h4.4l-3.6,23.8c-0.5,3.2-1.8,5.6-3.9,7.2c-2.1,1.6-4.9,2.4-8.5,2.4c-1.1,0-2.4-0.2-3.7-0.5c-1.3-0.3-2.5-0.8-3.4-1.3l1.5-4.2
			c0.8,0.5,1.8,0.8,2.9,1.1c1.1,0.3,2.2,0.4,3.4,0.4c1.9,0,3.3-0.4,4.4-1.3c1-0.8,1.7-2.1,2-3.8l0.4-2.4c-0.9,1-1.9,1.7-3,2.2
			c-1.1,0.5-2.3,0.7-3.6,0.7c-2.8,0-4.9-1.1-6.3-3.2s-1.8-4.9-1.3-8.4L803.3,354.9z M808.6,355.4c-0.4,2.3-0.2,4.1,0.5,5.3
			c0.7,1.3,1.9,1.9,3.8,1.9c1.1,0,2.1-0.2,3-0.7c0.9-0.5,1.6-1.2,2.3-2.1l1.6-10.4c-0.4-0.9-0.9-1.6-1.6-2.1
			c-0.7-0.5-1.6-0.7-2.8-0.7c-1.8,0-3.2,0.8-4.3,2.3c-1.1,1.6-1.9,3.5-2.2,6L808.6,355.4z"/>
		<path class="st3" d="M842.4,355h-13l0.7-4.3h13L842.4,355z"/>
		<path class="st3" d="M873.2,338.7h-9.9l-4.2,27.8h-5.4l4.2-27.8h-9.8l0.6-4.3h25L873.2,338.7z"/>
		<path class="st3" d="M877.3,366.5H872l3.6-23.8h5.4L877.3,366.5z M881.8,336.8h-5.4l0.7-4.7h5.4L881.8,336.8z"/>
		<path class="st3" d="M890.6,346c1-1.2,2.1-2.1,3.4-2.8c1.3-0.7,2.7-1,4.1-1c2.4,0,4.2,0.8,5.4,2.3c1.2,1.5,1.6,3.9,1.1,7.1
			l-2.2,14.8H897l2.2-14.8c0.3-1.9,0.1-3.3-0.5-4c-0.6-0.7-1.6-1.1-3.1-1.1c-1.1,0-2.1,0.2-3,0.7c-0.9,0.4-1.7,1.1-2.3,1.9
			l-2.6,17.3h-5.4l3.6-23.8h4.9L890.6,346z"/>
		<path class="st3" d="M927.5,362.7c1.2,0,2.3-0.4,3.2-1.2c1-0.8,1.6-1.7,1.7-2.9h4.8l0,0.1c-0.3,2.3-1.5,4.3-3.5,5.8
			c-2.1,1.6-4.4,2.4-7,2.4c-3.3,0-5.8-1.1-7.3-3.4c-1.6-2.3-2.1-5.1-1.6-8.5l0.1-0.8c0.5-3.6,1.9-6.5,4.1-8.7c2.2-2.2,5-3.3,8.4-3.3
			c2.7,0,4.8,0.8,6.3,2.5c1.5,1.7,2.1,3.8,1.6,6.3l0,0.1h-4.9c0.2-1.4,0-2.5-0.7-3.4c-0.7-0.9-1.6-1.3-3-1.3c-1.8,0-3.3,0.7-4.4,2.2
			s-1.8,3.3-2.1,5.4l-0.1,0.8c-0.3,2.3-0.2,4.2,0.4,5.6C924.3,362,925.6,362.7,927.5,362.7z"/>
		<path class="st3" d="M954.1,366.5c-0.1-0.6-0.2-1.1-0.2-1.7c0-0.6,0-1.2,0-1.7c-0.9,1.1-2,2.1-3.3,2.8c-1.3,0.8-2.7,1.1-4.2,1.1
			c-2.4,0-4.2-0.6-5.4-1.9c-1.2-1.3-1.6-3-1.3-5.2c0.4-2.4,1.5-4.2,3.5-5.5s4.7-1.9,8-1.9h4.2l0.3-2.1c0.2-1.3,0-2.3-0.6-3
			c-0.6-0.7-1.6-1-3-1c-1.2,0-2.2,0.3-3,0.9c-0.8,0.6-1.3,1.3-1.4,2.3l-5.1,0l0-0.1c0.2-2,1.3-3.6,3.3-5.1s4.4-2.1,7.3-2.1
			c2.7,0,4.8,0.7,6.3,2.1c1.5,1.4,2.1,3.4,1.7,6.1l-1.6,10.6c-0.1,1-0.2,2-0.2,2.9s0.1,1.8,0.2,2.6H954.1z M949.7,374h-5.9l0.7-4.9
			h5.9L949.7,374z M948.1,362.7c1.3,0,2.5-0.3,3.7-1c1.2-0.7,2.1-1.5,2.5-2.3l0.5-3.5h-4.2c-1.5,0-2.8,0.4-3.8,1.2
			c-1,0.8-1.6,1.7-1.8,2.7c-0.1,0.9,0,1.7,0.6,2.2C946.2,362.4,947,362.7,948.1,362.7z M960.8,337.9l-0.1,0.5h-4.3l-2.7-3.1
			l-3.6,3.1h-4.3l0.1-0.6l6.6-5.3h3.2L960.8,337.9z"/>
		<path class="st3" d="M972.3,356.9l0.2,2.4l0.1,0l7.7-16.7h5.9l-14,27.4c-0.9,1.7-2,3.1-3.3,4.3c-1.3,1.2-3,1.8-5.1,1.8
			c-0.4,0-0.9,0-1.4-0.1c-0.5-0.1-1-0.2-1.4-0.3l1.2-4.1c0.2,0,0.4,0,0.8,0.1c0.3,0,0.6,0,0.8,0c0.9,0,1.7-0.3,2.5-1
			c0.7-0.7,1.3-1.4,1.8-2.3l1.2-2.1l-5.1-23.6h5.8L972.3,356.9z"/>
	</g>
</g>
</svg>
