<?xml version="1.0" encoding="utf-8"?>
<!-- Generator: Adobe Illustrator 22.1.0, SVG Export Plug-In . SVG Version: 6.00 Build 0)  -->
<svg version="1.1" id="Layer_1" xmlns="http://www.w3.org/2000/svg" xmlns:xlink="http://www.w3.org/1999/xlink" x="0px" y="0px"
	 viewBox="0 0 148.5 34.2" style="enable-background:new 0 0 148.5 34.2;" xml:space="preserve">
<style type="text/css">
	.st0{fill:#FFFFFF;}
</style>
<g id="Group_2298" transform="translate(-2017.095 840.884)">
	<path id="Path_967" class="st0" d="M2038-815.7v4.3h-16.7v-16.7h4.1v-4.3h-4.5c-2.1,0-3.9,1.7-3.9,3.9v17.4c0,2.1,1.7,3.9,3.9,3.9
		h17.4c2.1,0,3.9-1.7,3.9-3.9v-4.6L2038-815.7z"/>
	<path id="Path_968" class="st0" d="M2046.7-840.9h-17.4c-2.1,0-3.9,1.7-3.9,3.9v4.6h4.3v-4.3h16.7v16.7h-4.1v4.3h4.5
		c2.1,0,3.9-1.7,3.9-3.9V-837C2050.6-839.1,2048.9-840.9,2046.7-840.9z"/>
	<g id="Group_672" transform="translate(2059.969 -829.156)">
		<path id="Path_969" class="st0" d="M0,21.9V5.5h3.9v16.5H0z M0.4,3.6V0.7h3.1v2.9L0.4,3.6z"/>
		<path id="Path_970" class="st0" d="M7.1,21.9V5.5h3.6V7h0.1c0.5-0.7,1.2-1.2,1.9-1.5C13.6,5.1,14.4,5,15.3,5
			c0.9,0,1.8,0.2,2.6,0.5C18.7,5.8,19.4,6.4,20,7c0.2,0.1,0.3,0.3,0.4,0.5c0.6,0.7,0.9,1.6,1.1,2.5c0.2,1.1,0.2,2.3,0.2,3.4v8.5
			h-3.9v-7.8c0-0.8,0-1.6-0.1-2.3c-0.1-0.6-0.3-1.2-0.6-1.7c-0.3-0.4-0.7-0.8-1.1-1c-0.5-0.2-1-0.4-1.5-0.4c-0.5,0-1.1,0.1-1.6,0.4
			c-0.5,0.2-0.9,0.6-1.2,1.1c-0.3,0.6-0.5,1.2-0.6,1.8c-0.1,0.7-0.1,1.5-0.1,2.4v7.5L7.1,21.9z"/>
		<path id="Path_971" class="st0" d="M25.4,21.9V0h5c0.9,0,1.8,0,2.7,0.1c0.8,0.1,1.5,0.3,2.2,0.7c0.6,0.3,1.1,0.7,1.6,1.2
			c0.5,0.5,0.8,1.1,1.1,1.7c0.3,0.6,0.4,1.3,0.4,2c0,0.9-0.2,1.7-0.6,2.5c-0.4,0.7-1,1.3-1.8,1.7c1.1,0.3,2.1,1,2.8,2
			c0.7,1,1,2.1,1,3.3c0,1-0.2,2-0.7,2.9c-0.5,0.9-1.2,1.7-2,2.3c-0.8,0.6-1.7,0.9-2.6,1.1c-1.2,0.2-2.3,0.3-3.5,0.3L25.4,21.9z
			 M29.4,8.4h0.8c0.9,0.1,1.9-0.1,2.8-0.3c0.4-0.2,0.7-0.5,0.9-0.8c0.2-0.4,0.3-0.8,0.3-1.2c0-0.4-0.1-0.8-0.4-1.2
			c-0.2-0.4-0.6-0.6-1-0.8c-0.4-0.2-0.9-0.3-1.4-0.2c-0.3,0-0.5,0-0.7,0c-0.2,0-0.4,0-0.6,0h-0.7L29.4,8.4z M29.4,18h1.7
			c0.6,0,1.2,0,1.9-0.2c0.5-0.1,1-0.3,1.5-0.6c0.7-0.5,1.1-1.3,1.1-2.1c0-0.5-0.1-0.9-0.4-1.3c-0.3-0.4-0.7-0.7-1.1-0.9
			c-0.4-0.2-0.8-0.3-1.3-0.4c-0.5,0-1.1-0.1-1.6-0.1h-1.8L29.4,18z"/>
		<path id="Path_972" class="st0" d="M42.2,21.9V5.5h3.6V7h0.1c0.4-0.6,0.9-1.2,1.5-1.5c0.6-0.3,1.3-0.5,2-0.5h0.3v3.8
			c-0.9,0-1.7,0.2-2.4,0.8c-0.3,0.3-0.6,0.6-0.8,0.9c-0.2,0.3-0.3,0.7-0.3,1.1c0,0.4-0.1,0.9-0.1,1.5v8.9L42.2,21.9z"/>
		<path id="Path_973" class="st0" d="M68.3,5.5v16.5h-3.6v-2.2h-0.1c-0.6,0.9-1.5,1.6-2.5,2c-1,0.5-2,0.7-3.1,0.8
			c-1.2,0-2.3-0.2-3.4-0.7c-1-0.5-1.9-1.2-2.7-2c-1.4-1.7-2.1-3.8-2.1-6c0-0.7,0.1-1.4,0.2-2.2c0.1-0.7,0.4-1.3,0.7-2
			C52.1,9,52.6,8.4,53,7.8c0.8-0.9,1.7-1.6,2.8-2.1C56.9,5.2,58,4.9,59.2,5c1.1,0,2.2,0.2,3.1,0.7c1,0.5,1.8,1.2,2.4,2.1V5.5
			L68.3,5.5z M64.6,13.7c0-0.7-0.1-1.3-0.3-1.9c-0.2-0.6-0.5-1.1-1-1.5c-0.4-0.4-0.9-0.8-1.5-1c-0.6-0.2-1.3-0.4-1.9-0.4
			c-1.3,0-2.6,0.5-3.5,1.4c-0.9,1-1.4,2.3-1.4,3.6c0,1.3,0.5,2.5,1.4,3.4c0.9,0.9,2.1,1.4,3.4,1.4c0.9,0,1.7-0.2,2.5-0.6
			c0.7-0.4,1.3-1,1.7-1.8C64.4,15.4,64.6,14.6,64.6,13.7L64.6,13.7z"/>
		<path id="Path_974" class="st0" d="M71.3,21.9V5.5h3.6V7H75c0.5-0.7,1.2-1.2,1.9-1.5C77.7,5.1,78.6,5,79.5,5
			c0.9,0,1.8,0.2,2.6,0.5c0.8,0.3,1.5,0.9,2.1,1.5c0.2,0.1,0.3,0.3,0.4,0.5c0.6,0.7,0.9,1.6,1.1,2.5c0.2,1.1,0.2,2.3,0.2,3.4v8.5
			h-3.9v-7.8c0-0.8,0-1.6-0.1-2.3c-0.1-0.6-0.3-1.2-0.6-1.7c-0.3-0.4-0.7-0.8-1.1-1c-0.5-0.2-1-0.4-1.5-0.4c-0.5,0-1.1,0.1-1.6,0.4
			c-0.5,0.2-0.9,0.6-1.2,1.1c-0.3,0.6-0.5,1.2-0.6,1.8c-0.1,0.7-0.1,1.5-0.1,2.4v7.5L71.3,21.9z"/>
		<path id="Path_975" class="st0" d="M105.7,0v21.9h-3.6v-2.2H102c-0.4,0.6-0.8,1.1-1.4,1.5c-0.6,0.4-1.2,0.7-1.9,0.9
			c-0.7,0.2-1.4,0.3-2.1,0.3c-1.1,0-2.3-0.2-3.3-0.7c-1-0.5-1.9-1.2-2.7-2c-0.7-0.8-1.3-1.7-1.6-2.8c-0.4-1-0.6-2.1-0.6-3.2
			c0-2.2,0.8-4.4,2.2-6c0.5-0.6,1.1-1.1,1.7-1.5c0.6-0.4,1.4-0.7,2.1-1C95.1,5.1,95.9,5,96.6,5c0.6,0,1.3,0.1,1.9,0.2
			c0.6,0.2,1.2,0.4,1.8,0.7c0.5,0.3,1,0.7,1.5,1.2V0L105.7,0z M102,13.7c0-0.7-0.1-1.3-0.4-1.9c-0.2-0.6-0.6-1.1-1-1.5
			c-0.5-0.4-1-0.8-1.6-1c-0.6-0.3-1.3-0.4-1.9-0.4c-0.6,0-1.2,0.1-1.8,0.4c-0.6,0.2-1.1,0.6-1.5,1c-0.5,0.4-0.8,1-1.1,1.6
			c-0.3,0.6-0.4,1.2-0.4,1.8c0,0.9,0.2,1.7,0.6,2.5c0.4,0.8,1,1.4,1.7,1.8c0.7,0.5,1.6,0.7,2.5,0.7c0.9,0,1.7-0.2,2.4-0.7
			c0.7-0.4,1.3-1.1,1.8-1.8C101.8,15.4,102,14.5,102,13.7L102,13.7z"/>
	</g>
</g>
</svg>
