<?xml version="1.0" encoding="utf-8"?>
<!-- Generator: Adobe Illustrator 22.1.0, SVG Export Plug-In . SVG Version: 6.00 Build 0)  -->
<svg version="1.1" id="Layer_1" xmlns="http://www.w3.org/2000/svg" xmlns:xlink="http://www.w3.org/1999/xlink" x="0px" y="0px"
	 viewBox="0 0 22.5 20.8" style="enable-background:new 0 0 22.5 20.8;" xml:space="preserve">
<style type="text/css">
	.st0{enable-background:new    ;}
	.st1{fill:#576271;}
</style>
<g>
	<g class="st0">
		<path class="st1" d="M10,12.6v7.5c0,0.3-0.3,0.6-0.6,0.6H0.6c-0.3,0-0.6-0.3-0.6-0.6v-7.5C0,12.3,0.3,12,0.6,12h3.1v3.8L5,14.9
			l1.3,0.8V12h3.1C9.7,12,10,12.3,10,12.6z M6.3,8.8V1.3c0-0.3,0.3-0.6,0.6-0.6H10v3.8l1.3-0.8l1.3,0.8V0.7h3.1
			c0.3,0,0.6,0.3,0.6,0.6v7.5c0,0.3-0.3,0.6-0.6,0.6H6.9C6.5,9.5,6.3,9.2,6.3,8.8z M22.5,12.6v7.5c0,0.3-0.3,0.6-0.6,0.6h-8.8
			c-0.3,0-0.6-0.3-0.6-0.6v-7.5c0-0.3,0.3-0.6,0.6-0.6h3.1v3.8l1.3-0.8l1.3,0.8V12h3.1C22.2,12,22.5,12.3,22.5,12.6z"/>
	</g>
</g>
</svg>
