<?xml version="1.0" encoding="utf-8"?>
<!-- Generator: Adobe Illustrator 22.1.0, SVG Export Plug-In . SVG Version: 6.00 Build 0)  -->
<svg version="1.1" id="Layer_1" focusable="false" xmlns="http://www.w3.org/2000/svg" xmlns:xlink="http://www.w3.org/1999/xlink"
	 x="0px" y="0px" viewBox="0 0 22.5 20" style="enable-background:new 0 0 22.5 20;" xml:space="preserve">
<style type="text/css">
	.st0{fill:#057D5A;}
</style>
<path id="Path_1930" class="st0" d="M21.9,11.3h-3.1V15l-1.3-0.8L16.3,15v-3.8h-3.1c-0.3,0-0.6,0.3-0.6,0.6v7.5
	c0,0.3,0.3,0.6,0.6,0.6h8.8c0.3,0,0.6-0.3,0.6-0.6v-7.5C22.5,11.5,22.2,11.3,21.9,11.3z M6.9,8.8h8.8c0.3,0,0.6-0.3,0.6-0.6V0.6
	C16.2,0.3,16,0,15.6,0h-3.1v3.8l-1.3-0.8L10,3.8V0H6.9C6.5,0,6.3,0.3,6.3,0.6v7.5C6.3,8.5,6.5,8.7,6.9,8.8z M9.4,11.3H6.3V15L5,14.2
	L3.8,15v-3.8H0.6c-0.3,0-0.6,0.3-0.6,0.6v7.5C0,19.7,0.3,20,0.6,20h8.8c0.3,0,0.6-0.3,0.6-0.6v-7.5C10,11.5,9.7,11.3,9.4,11.3z"/>
</svg>
