<?xml version="1.0" encoding="utf-8"?>
<!-- Generator: Adobe Illustrator 22.1.0, SVG Export Plug-In . SVG Version: 6.00 Build 0)  -->
<svg version="1.1" id="Layer_1" focusable="false" xmlns="http://www.w3.org/2000/svg" xmlns:xlink="http://www.w3.org/1999/xlink"
	 x="0px" y="0px" viewBox="0 0 22.5 20.8" style="enable-background:new 0 0 22.5 20.8;" xml:space="preserve">
<style type="text/css">
	.st0{enable-background:new    ;}
	.st1{fill:#057D5A;}
</style>
<g class="st0">
	<path class="st1" d="M22.5,12.6v3.7c0,1-0.8,1.9-1.9,1.9H1.9c-1,0-1.9-0.8-1.9-1.9v-3.7c1,0,1.9-0.8,1.9-1.9S1,8.8,0,8.8V5.1
		c0-1,0.8-1.9,1.9-1.9h18.8c1,0,1.9,0.8,1.9,1.9v3.8c-1,0-1.9,0.8-1.9,1.9S21.5,12.6,22.5,12.6z M17.8,5.7H4.7
		c-0.5,0-0.9,0.4-0.9,0.9v8.1c0,0.5,0.4,0.9,0.9,0.9h13.1c0.5,0,0.9-0.4,0.9-0.9V6.7C18.8,6.1,18.3,5.7,17.8,5.7z M17.5,7v7.5H5V7
		H17.5z"/>
</g>
</svg>
