<?xml version="1.0" encoding="utf-8"?>
<!-- Generator: Adobe Illustrator 21.0.0, SVG Export Plug-In . SVG Version: 6.00 Build 0)  -->
<svg version="1.1" id="Layer_1" xmlns="http://www.w3.org/2000/svg" xmlns:xlink="http://www.w3.org/1999/xlink" x="0px" y="0px"
	 viewBox="0 0 14.4 14.4" style="enable-background:new 0 0 14.4 14.4;" xml:space="preserve">
<style type="text/css">
	.st0{fill:#757575;}
</style>
<g id="Group_178">
	<path id="Path_334" class="st0" d="M8.7,3.8c-1.4-1.4-3.6-1.4-5,0s-1.4,3.6,0,5c1.2,1.2,3.1,1.4,4.5,0.4c0,0.1,0.1,0.2,0.2,0.4l2,2
		c0.3,0.3,0.7,0.2,1.1,0c0.3-0.3,0.3-0.7,0-1.1l-2-2C9.3,8.3,9.2,8.3,9.1,8.3C10.1,6.8,9.9,5,8.7,3.8z M8.1,8.1c-1,1-2.7,1-3.7,0
		c-1-1-1-2.7,0.1-3.7s2.7-1,3.7,0l0,0C9.1,5.4,9.1,7.1,8.1,8.1L8.1,8.1z"/>
</g>
</svg>
