<?xml version="1.0" encoding="utf-8"?>
<!-- Generator: Adobe Illustrator 22.1.0, SVG Export Plug-In . SVG Version: 6.00 Build 0)  -->
<svg version="1.1" id="Layer_1" xmlns="http://www.w3.org/2000/svg" xmlns:xlink="http://www.w3.org/1999/xlink" x="0px" y="0px"
	 viewBox="0 0 22.5 26.8" style="enable-background:new 0 0 22.5 26.8;" xml:space="preserve">
<style type="text/css">
	.st0{fill:#4E4E4E;}
</style>
<g id="Group_670" transform="translate(0)">
	<g id="Group_669" transform="translate(0)">
		<path id="Path_962" class="st0" d="M14.1,18.4H8.4c-4.6,0-8.4,3.8-8.4,8.4h22.5C22.4,22.2,18.7,18.4,14.1,18.4z"/>
		<path id="Path_963" class="st0" d="M12.2,14.6c0.4,0,0.8,0.1,1.2,0.4h2c2.2-2.3,2.1-6-0.2-8.2c-2.3-2.2-6-2.1-8.2,0.2
			C6,8,5.4,9.5,5.4,11c0,2.1,1.1,4.1,3,5.1c0.2-0.9,1-1.5,1.8-1.5L12.2,14.6z"/>
		<path id="Path_964" class="st0" d="M2.6,11.5C2.7,12.1,3,12.6,3.4,13c0.3,0.3,0.7,0.6,1.2,0.7c0-0.1,0-0.2,0-0.3V8.7
			c0-0.1,0-0.2,0-0.3C4.1,8.6,3.7,8.8,3.4,9.1L3.3,9.2V9c0-0.5,0-0.9,0.1-1.4c0.1-0.5,0.2-0.9,0.4-1.3c0.1-0.4,0.3-0.9,0.6-1.2
			C4.6,4.7,4.9,4.3,5.2,4c0,0,0-0.1,0-0.1c0.2,0,0.4,0,0.6-0.2c3-3,7.8-3,10.8,0c0.2,0.2,0.4,0.2,0.6,0.2c0,0,0,0.1,0,0.1
			c0.3,0.3,0.6,0.7,0.8,1.1c0.2,0.4,0.4,0.8,0.6,1.3c0.1,0.4,0.3,0.9,0.4,1.3c0.1,0.5,0.1,0.9,0.1,1.4v0.2c0,0-0.1-0.1-0.1-0.1
			c-0.3-0.3-0.7-0.6-1.2-0.7c0,0.1,0,0.2,0,0.3v4.7c0,0.1,0,0.2,0,0.3c0.1,0,0.2-0.1,0.4-0.1v1.5c0,0.2,0,0.3,0,0.5
			c0,0.1-0.1,0.2-0.1,0.3C17.9,16,17.8,16,17.8,16c-0.1,0-0.2,0-0.3,0h-4.5c-0.1-0.3-0.4-0.4-0.7-0.4h-2c-0.4,0-0.8,0.4-0.8,0.8
			c0,0.4,0.4,0.8,0.8,0.8h2c0.3,0,0.6-0.2,0.7-0.4h4.7c0.2,0,0.3,0,0.5-0.1c0.2-0.1,0.4-0.2,0.5-0.3c0.1-0.2,0.2-0.3,0.3-0.5
			c0.1-0.2,0.1-0.5,0.1-0.7v-2l0.1-0.1c0.4-0.4,0.7-1,0.8-1.6c0,0,0,0,0,0c0.1-0.1,0.1-0.2,0.1-0.3v-2c0-0.5,0-1-0.1-1.5
			c-0.1-0.5-0.3-1-0.4-1.5c-0.2-0.5-0.4-1-0.7-1.4c-0.2-0.4-0.5-0.9-0.9-1.3c0,0-0.1-0.1-0.1-0.1c0-0.2,0-0.5-0.2-0.7
			c-1.7-1.7-4-2.6-6.4-2.6C8.8,0,6.5,1,4.8,2.6C4.6,2.8,4.6,3.1,4.6,3.3c0,0-0.1,0.1-0.1,0.1C4.1,3.8,3.8,4.2,3.6,4.7
			C3.3,5.1,3.1,5.6,2.9,6.1C2.8,6.5,2.6,7,2.5,7.6c-0.1,0.5-0.1,1-0.1,1.5v2C2.4,11.2,2.5,11.3,2.6,11.5C2.6,11.4,2.6,11.4,2.6,11.5
			z"/>
	</g>
</g>
</svg>
