<?xml version="1.0" encoding="utf-8"?>
<!-- Generator: Adobe Illustrator 22.1.0, SVG Export Plug-In . SVG Version: 6.00 Build 0)  -->
<svg version="1.1" id="Layer_1" xmlns="http://www.w3.org/2000/svg" xmlns:xlink="http://www.w3.org/1999/xlink" x="0px" y="0px"
	 viewBox="0 0 389.9 372.5" style="enable-background:new 0 0 389.9 372.5;" xml:space="preserve">
<style type="text/css">
	.st0{fill:#1592E6;}
</style>
<g id="Group_124" transform="translate(-1198.651 -98.404)">
	<g id="Group_123" transform="translate(0)">
		<g id="Group_122">
			<g id="Group_121">
				<path id="Path_310" class="st0" d="M1539.9,261.7h-123.4V138.3c-3.2-12.7-16-20.3-28.7-17.1c-8.4,2.1-15,8.7-17.1,17.1v123.4
					h-123.5c-12.7,3.2-20.3,16-17.1,28.7c2.1,8.4,8.7,15,17.1,17.1h123.4V431c3.2,12.7,16,20.3,28.7,17.1c8.4-2.1,15-8.7,17.1-17.1
					V307.5h123.4c12.7-3.2,20.3-16,17.1-28.7C1554.9,270.4,1548.4,263.8,1539.9,261.7L1539.9,261.7z"/>
			</g>
		</g>
	</g>
</g>
</svg>
