<?xml version="1.0" encoding="utf-8"?>
<!-- Generator: Adobe Illustrator 22.1.0, SVG Export Plug-In . SVG Version: 6.00 Build 0)  -->
<svg version="1.1" xmlns="http://www.w3.org/2000/svg" xmlns:xlink="http://www.w3.org/1999/xlink" x="0px" y="0px"
	 viewBox="0 0 578.6 491.9" style="enable-background:new 0 0 578.6 491.9;" xml:space="preserve">
<style type="text/css">
	.st0{fill:#F3F3F3;}
	.st1{clip-path:url(#SVGID_2_);}
	.st2{fill:#FFD2A8;}
	.st3{opacity:0.4;fill:#FFD2A8;}
	.st4{fill:#65B161;}
	.st5{fill:#FCECD2;}
	.st6{opacity:0.6;fill:#FCECD2;}
	.st7{fill:#77C373;}
	.st8{fill:#3C3C3B;}
	.st9{opacity:0.4;fill:#77C373;}
	.st10{clip-path:url(#SVGID_4_);}
	.st11{fill:#F4C198;}
	.st12{fill:#E5AE89;}
	.st13{fill:#2A9A51;}
	.st14{fill:#2FA754;}
	.st15{fill:#23944E;}
	.st16{fill:#FFF4E3;}
	.st17{opacity:0.5;fill:#EADECE;}
	.st18{opacity:0.3;fill:#2FA754;}
</style>
<g id="BACKGROUND">
</g>
<g id="OBJECTS">
</g>
<g id="DESIGNED_BY_FREEPIK">
	<g>
		<circle class="st0" cx="270.2" cy="198.3" r="160"/>
		<g>
			<defs>
				<rect id="SVGID_1_" x="57" width="480.7" height="288.4"/>
			</defs>
			<clipPath id="SVGID_2_">
				<use xlink:href="#SVGID_1_"  style="overflow:visible;"/>
			</clipPath>
			<g class="st1">
				<path class="st2" d="M281,104.3l29.2,6.3l2.2,0.3c5.7-8.2,11.7-15.1,24-17.3c17.7-3.2,57.1-17.7,78.8,33.4
					c0,0-24.1,6.5-36.9,10.8c0,0,1,5.9,0.3,13.1c21.5-8.2,50.3-16.7,58.5-26.7c8.2-10,22.4-18.4,34.4-21.4c12-3,23.5-7.4,23.5-7.4
					S494,63,473.1,35.1c0,0-39.8,16-51.4,25c-11,8.5-28,9.4-45.7,17.1c-2.2,1-4.6,1.6-7,1.9c-25.2,3.1-28.2-0.1-37.6,1.3
					c-9.9,1.4-21.4,8.9-30,11.1C298.6,92.3,290.2,97,281,104.3z"/>
				<path class="st3" d="M354,90.2c0,0-37.9,1.2-47.1,19.7C326.3,115.7,347.4,98.5,354,90.2z"/>
				<path class="st2" d="M346.2,139.3c0,0,0.1,0,0.2,0c0-0.1,0-0.3,0-0.5C346.3,139,346.2,139.2,346.2,139.3z"/>
				<path class="st2" d="M256,172.9c7.3,7.9,18.2,17,22.7,11.5c2.6-2.9,3.9-6.7,2.6-10.6c-0.4-1-0.9-2-1.7-3c-0.3,0-0.5,0.1-0.8,0.1
					C271.4,171.6,263.8,172.3,256,172.9z"/>
				<path class="st2" d="M346.2,139.3c0,0,0.1,0,0.2,0c0-0.1,0-0.3,0-0.5C346.3,139,346.2,139.2,346.2,139.3z"/>
				<path class="st2" d="M339.6,181c0.2,0.2,0.4,0.3,0.6,0.5c2.4,2,7.2,5.3,11.9,4.8c4.5-0.5,9.2-4,14.1-9.6
					c2.6-2.5,3.5-3.4,4.6-4.2c1.4-1.1,5-5.8,6.8-15.8c0,0,0,0,0,0c0.3-1.7,0.6-3.6,0.8-5.7c0,0,0,0,0.1,0c0.6-7.2-0.3-13.1-0.3-13.1
					c-1,0.4-2,0.7-2.9,1c-2.1,0.8-4.6,1.3-7.1,1.6c-2.1,6.8-7.7,24.3-11.7,28.3C354.1,171.3,347.3,176.5,339.6,181z"/>
				<path class="st2" d="M378.5,151.1c-0.2,2-0.5,3.9-0.8,5.7C378.1,154.8,378.4,152.9,378.5,151.1
					C378.5,151,378.5,151.1,378.5,151.1z"/>
				<path class="st3" d="M339.6,181c0.2,0.2,0.4,0.3,0.6,0.5c2.4,2,7.2,5.3,11.9,4.8c4.5-0.5,9.2-4,14.1-9.6
					c2.6-2.5,3.5-3.4,4.6-4.2c1.4-1.1,5-5.8,6.8-15.8c0,0,0,0,0,0c0.4-1.9,0.7-3.8,0.8-5.7c21.5-8.2,50.3-16.7,58.5-26.7
					c8.2-10,22.4-18.4,34.4-21.4c12-3,23.5-7.4,23.5-7.4s-0.1-2.5-0.6-6.7c-6.4,2.7-16.5,6.8-24,8.7c-12,3-26.2,11.4-34.4,21.4
					c-8.2,10-37,18.4-58.5,26.7c-0.2,1.8-0.4,3.8-0.8,5.7c0,0,0,0,0,0c-1.8,10-5.4,14.7-6.8,15.8c-1.1,0.8-2,1.8-4.6,4.2
					c-4.8,5.6-9.6,9.2-14.1,9.6c-2.8,0.3-5.6-0.8-8-2.1C342,179.6,340.8,180.3,339.6,181z"/>
				<path class="st2" d="M314.9,189.1c0.2,0.2,0.5,0.4,0.8,0.5c0.6,0.2,1.3,0.3,2.2,0.2c3.8-0.3,8.3-1.9,12.9-4.1c0,0,0,0,0,0
					c1.9-0.9,3.8-1.9,5.7-2.9c1.1-0.6,2.2-1.2,3.2-1.9c4.3-2.5,8.2-5.2,11.3-7.6c0.4-0.3,0.8-0.6,1.1-0.9c0.3-0.2,0.5-0.4,0.7-0.6
					c1.6-1.3,2.9-2.4,3.7-3.2c3.9-4,9.6-21.5,11.7-28.3c-0.7,0.1-1.4,0.1-2.1,0.2c-0.5,0-1.1,0.1-1.6,0.1
					c-6.2,0.3-12.8-0.4-18.2-1.5c-0.4,6.3-2.5,12.5-6.1,17.4c-1.1,1.4-3.2,2.7-6.3,4c0,3.3-3,6.3-7.2,10c-3.6,3.3-7,8.8-11.7,12.5
					c-0.7,0.5-1.4,1-2.1,1.4c-0.3,0.2-0.4,0.2-0.3,0.9C312.7,187.1,314.1,188.3,314.9,189.1z"/>
				<path class="st2" d="M346.2,139.3c0,0,0.1,0,0.2,0c0-0.1,0-0.3,0-0.5C346.3,139,346.2,139.2,346.2,139.3z"/>
				<path class="st2" d="M346.2,139.3c0,0,0.1,0,0.2,0c0-0.1,0-0.3,0-0.5C346.3,139,346.2,139.2,346.2,139.3z"/>
				<path class="st2" d="M281.3,173.8c4.5,5,12,11.8,20.3,13.1c1.8,0.3,3.6,0.3,5.1,0.1c0,0,0,0,0,0c0.6-0.1,1.2-0.2,1.8-0.3
					c0,0,0,0,0,0c1.6-0.4,3-1.1,4.4-1.9c0.7-0.4,1.4-0.9,2.1-1.4c4.8-3.7,8.1-9.2,11.7-12.5c4.1-3.8,7.2-6.8,7.2-10
					c0-0.6-0.1-1.3-0.3-1.9c-0.4-1.1-1.2-2.3-2.4-3.5c-5.6-5.8-15.4-0.2-15.4-0.2c-4.6,1.9-14.1,11.6-15.6,13
					c-0.1,0.1-0.4,0.2-0.8,0.3c0,0-0.1,0-0.1,0c-0.3,0.1-0.7,0.1-1.1,0.2c-0.1,0-0.1,0-0.1,0c-5.8,0.8-12,1.5-18.4,2.2
					c0,0-0.1,0-0.1,0C280.3,171.8,280.9,172.8,281.3,173.8z"/>
				<path class="st3" d="M333.6,158.8c0.2,0.7,0.4,1.3,0.3,1.9c0,3.3-3,6.3-7.2,10c-3.6,3.3-7,8.8-11.7,12.5c-0.7,0.5-1.4,1-2.1,1.4
					c-1.4,0.8-2.8,1.5-4.4,1.9c0,0,0,0,0,0c-0.6,0.1-1.2,0.3-1.8,0.3c0,0,0,0,0,0c-1.6,0.2-3.3,0.2-5.1-0.1
					c-8.3-1.3-15.8-8.1-20.3-13.1c-0.3-0.7-0.6-1.4-1.1-2.2c4.6,4.9,11.7,11,19.5,12.2c1.8,0.3,3.6,0.3,5.1,0.1c0,0,0,0,0,0
					c0.6-0.1,1.2-0.2,1.8-0.3c0,0,0,0,0,0c1.6-0.4,3-1.1,4.4-1.9c0.7-0.4,1.4-0.9,2.1-1.4c4.8-3.7,8.1-9.2,11.7-12.5
					c4.1-3.8,7.2-6.8,7.2-10c0-0.6-0.1-1.3-0.3-1.9C332.6,156.8,333.3,157.8,333.6,158.8z"/>
				<path class="st4" d="M165.8,171.7c-0.7,1.8,0.5,3.8,2.5,3.9c19.5,0.8,54.4-0.2,87.7-2.7c7.7-0.6,15.4-1.3,22.7-2
					c0.3,0,0.5,0,0.8-0.1c0.1,0,0.1,0,0.1,0c6.4-0.7,12.6-1.4,18.4-2.2c0.1,0,0.1,0,0.1,0c0.4-0.1,0.7-0.1,1.1-0.2c0,0,0.1,0,0.1,0
					c0.4-0.1,0.7-0.2,0.8-0.3c1.5-1.4,11-11.1,15.6-13c0,0,9.8-5.7,15.4,0.2c1.2,1.2,2,2.4,2.4,3.5c0.2,0.7,0.4,1.3,0.3,1.9
					c3.1-1.3,5.2-2.6,6.3-4c3.6-4.8,5.7-11.1,6.1-17.4c-0.1,0-0.1,0-0.2,0c-4-0.7-7.3-1.6-9.3-2.4c-6.7-2.6-12.3-1.8-18.2,4.6
					c-5.9,6.4-24.5,21.1-42,20c-17.5-1.1-19-11.9-16.7-14.7c2.3-2.8,3.7-6.2,19.3-8.9c8.7-2.4,15.6-3,25.2-15.6
					c2.9-3.8,5.4-7.7,7.9-11.3c-2.2-0.3-2.2-0.3-2.2-0.3l-29.2-6.3L177.9,81.9c-1-0.2-1.9,0.5-1.9,1.5
					C176.2,94,176.3,145.3,165.8,171.7z"/>
				<path class="st5" d="M376,140.2c0,0,1.5,7-1.9,7.6c-3.5,0.6-6.7-1.5-6.3-6.9C371.4,139.6,376,140.2,376,140.2z"/>
				<path class="st6" d="M369.2,146.4c1.2,1.3,3,1.8,4.9,1.5c3.5-0.6,1.9-7.6,1.9-7.6s-0.3,0-0.9-0.1c0.3,1.8,0.7,6.4-2.1,6.9
					C371.7,147.2,370.3,147.1,369.2,146.4z"/>
				<path class="st5" d="M333.5,161.4c0,0-9.4-3.5-11.2-2.6c-1.8,0.8-7.8,7.8-5,11C320.9,174,327.8,170.5,333.5,161.4z"/>
				<path class="st6" d="M317.3,169.9c3.7,4.2,10.5,0.6,16.2-8.4c0,0-0.3-0.1-0.7-0.2c-5.5,7.9-11.7,10.8-15.2,6.8
					c-0.5-0.6-0.8-1.4-0.7-2.2C316.4,167.3,316.3,168.8,317.3,169.9z"/>
				<path class="st3" d="M314.9,189.1c0.2,0.2,0.5,0.4,0.8,0.5c0.6,0.2,1.3,0.3,2.2,0.2c3.8-0.3,8.3-1.9,12.9-4.1c0,0,0,0,0,0
					c6.8-3.3,14.4-8.1,20.2-12.4c0.4-0.3,0.8-0.6,1.1-0.9c0.3-0.2,0.5-0.4,0.7-0.6c11-9.2,13.2-30.4,13.3-31.3c0,0,0,0,0,0l-1.6,0.1
					C364.7,176.8,314.9,189.1,314.9,189.1z"/>
				<path class="st5" d="M364.3,142c0,0-0.1,11.3-6,12.1c-5.9,0.8-7.5-4.9-7-6.3c0.5-1.4,1.3-7.3,1.3-7.3S363.3,140.1,364.3,142z"/>
				<path class="st6" d="M358.3,154.1c5.9-0.8,6-12.1,6-12.1c-0.1-0.3-0.5-0.5-1.1-0.7c-0.1,2.1-0.8,10.9-6,11.6
					c-2.2,0.3-3.8-0.3-4.9-1.2C353.4,153.2,355.2,154.5,358.3,154.1z"/>
				<path class="st3" d="M304.2,164.2c0,0-6.3,5.9-5.6,9.1c-3-4.4-3-4.4-3-4.4l4.7-0.8L304.2,164.2z"/>
				<path class="st3" d="M275.4,171.2c0,0,6.1,2.4,5.7,9.4c2.4-4.4-1.6-9.8-1.6-9.8L275.4,171.2z"/>
				<path class="st7" d="M176,167c47.7,0.3,100.1-0.8,128.7-3.3c3.5-3.3,8.2-7.5,11.1-8.6c0,0,9.8-5.7,15.4,0.2l0.1,0.1
					c4.3-4.8,7.9-11.7,8.4-17.5c-1.1-0.3-2.1-0.6-2.9-0.9c-6.7-2.6-12.3-1.8-18.2,4.6c-5.9,6.4-24.5,21.1-42,20
					c-17.5-1.1-19-11.9-16.7-14.7c2.3-2.8,3.7-6.2,19.3-8.9c8.7-2.4,15.6-3,25.2-15.6c1.3-1.8,2.6-3.5,3.8-5.3l-125-25.7
					C183.2,91.2,185.2,132.8,176,167z"/>
				<path class="st2" d="M276.7,161.5c17.5,1.1,36.1-13.6,42-20c5.9-6.4,11.5-7.2,18.2-4.6c2,0.8,5.3,1.7,9.3,2.4
					c0.1-0.1,0.1-0.3,0.2-0.4c0,0.2,0,0.3,0,0.5c5.4,1,12.1,1.7,18.2,1.5c1.3,0,2.5-0.1,3.7-0.3c2.6-0.3,5-0.8,7.1-1.6
					c0.9-0.3,1.8-0.7,2.9-1c12.8-4.3,36.9-10.8,36.9-10.8C393.4,76,354,90.5,336.3,93.7c-12.3,2.2-18.3,9.1-24,17.3
					c-2.5,3.6-5,7.5-7.9,11.3c-9.6,12.6-16.4,13.2-25.2,15.6c-15.6,2.7-17,6.1-19.3,8.9C257.7,149.6,259.2,160.4,276.7,161.5z"/>
				<path class="st5" d="M279,141.2c0,0,2.6,11.7,1.7,12.6c-0.9,0.9-12.8,4.7-15.8,2.3s-5.7-11.6,1.5-13.5
					C273.5,140.7,279,141.2,279,141.2z"/>
				<path class="st3" d="M401.4,121.2c0,0-16.5,17.7-29.6,18.7c-13.1,1.1-26.5,0-36.2-3.5C363.6,137.5,360.7,145.1,401.4,121.2z"/>
				<path class="st6" d="M267.6,156.9c4.6,0.2,12.3-2.4,13.1-3.1c0.9-0.9-1.7-12.6-1.7-12.6s-0.1,0-0.4,0
					C279.8,145.6,280.9,155,267.6,156.9z"/>
				<path class="st5" d="M472.5,118.6l10.3-4.2l-33.4-82.1l-10.3,4.2c-0.8,0.3-1.2,1.3-0.9,2.1l32.2,79.2
					C470.7,118.5,471.7,118.9,472.5,118.6z"/>
				<path class="st8" d="M490.1,123.2l36.6-13.8l-41.1-101l-36.6,13.8c-1.8,0.7-2.6,2.7-1.9,4.5l38.5,94.6
					C486.4,123.1,488.4,124,490.1,123.2z"/>
				<path class="st9" d="M260,146.7c-1.5,1.9-1.3,7.5,4.5,11.3c-15-0.6-27-9.6-27-20.8c0-11.5,12.7-20.8,28.5-20.8
					c13.5,0,24.9,6.9,27.7,16.1c-4.8,3-9.2,3.8-14.4,5.2C263.7,140.5,262.2,143.9,260,146.7z"/>
			</g>
		</g>
		<g>
			<defs>
				<rect id="SVGID_3_" x="57" y="87.5" width="388.7" height="301.9"/>
			</defs>
			<clipPath id="SVGID_4_">
				<use xlink:href="#SVGID_3_"  style="overflow:visible;"/>
			</clipPath>
			<g class="st10">
				<path class="st11" d="M266.5,295.2c8.1,0.5,15,0.6,19.3,0.6c4.4-3.6,5.6-8.5,5.3-13C282.6,286.9,274.3,291,266.5,295.2z"/>
				<path class="st11" d="M236.9,313.1c13.4,2.4,26.4,3.6,35.2,4.2c0,0,0,0,0,0c8-2.1,11.3-10.3,11-19.7c0.6-0.3,1.1-0.7,1.6-1
					c-4.3,0.4-11.1,0.7-20.5-0.1h0C254.3,301.9,245.1,307.4,236.9,313.1z"/>
				<path class="st11" d="M204.4,326.8c11.2,8.5,39.7,12.1,52.3,13.4c12.9-1.7,12.2-14,9.9-21.6c-8.1-0.2-17.4-1.3-30.9-4.6
					c-5.5,3.9-10.5,7.8-14.9,11.7c-1.6-2.4-3-4.6-4.4-6.6c-1.2,0.9-2.5,1.9-3.6,2.8c-4.2-3.2-9.6-8.9-14.8-14.9
					c-1.2,0.9-2.5,1.7-3.8,2.5c0,0,0,0,0,0c0,0,0,0,0,0C193.6,310.2,190.6,316.4,204.4,326.8z"/>
				<path class="st11" d="M98.3,270.6v86.5l36-0.3c0,0,11.1,3.2,35.3,6.8c17.6,2.6,34.6-0.7,50-1.9c-16.4-4.2-26.4-17.7-25.2-24.2
					c1.3-7,8.8-7.1,9.3-7.1c-0.3,0.1-6.1,2.5-7.3,6.6c-1.6,12.1,17.6,21.2,25.8,24.4c7.2,3.1,11,3.5,15.5,3.1
					c17-1.4,14.6-19,10.7-24.4c-7.7-1-16.8-2.1-23.1-2.9c-12.8-1.7-26.7-9.6-30.7-17c-3.7-6.8-0.9-10.1-0.4-10.7
					c-13.7,8.2-32.4,12.5-56.2,3.4c-25-9.5-25.9-26-19.6-41.1C107.1,273,98.3,270.6,98.3,270.6z"/>
				<path class="st12" d="M264.2,296.5c9.4,0.8,16.2,0.5,20.5,0.1c0.4-0.3,0.7-0.5,1-0.8c-4.2,0-11.2-0.1-19.3-0.6
					C265.7,295.6,265,296.1,264.2,296.5z"/>
				<path class="st12" d="M266.6,318.6c-0.1-0.2-0.2-0.5-0.2-0.7c2.1,0.1,4-0.1,5.7-0.6c-8.8-0.7-21.8-1.9-35.2-4.2h0
					c-0.4,0.3-0.8,0.6-1.2,0.9C249.2,317.3,258.5,318.4,266.6,318.6z"/>
				<path class="st12" d="M194.4,320.2c4,7.4,17.9,15.3,30.7,17c6.3,0.8,15.4,2,23.1,2.9c0,0,0-0.1-0.1-0.1c3.3,0.5,6.1,0.5,8.5,0.2
					c-12.6-1.3-41.1-4.9-52.3-13.4c-13.8-10.5-10.8-16.7-10.4-17.3C193.5,310,190.7,313.4,194.4,320.2z"/>
				<path class="st12" d="M219.5,361.6C219.5,361.6,219.5,361.6,219.5,361.6c0.9-0.1,1.8-0.1,2.6-0.2c-8.1-3.3-27.4-12.3-25.8-24.4
					c1.3-4.1,7-6.5,7.3-6.6c-0.6,0-8.1,0.1-9.3,7.1C193.1,343.9,203.1,357.3,219.5,361.6z"/>
				<path class="st13" d="M197.9,307c5.2,5.9,10.7,11.7,14.8,14.9c1.2-0.9,2.4-1.9,3.6-2.8c3.3-2.5,6.8-5,10.4-7.4
					c0.2-0.1,0.3-0.3,0.5-0.4c8.1-5.5,16.7-10.9,25.7-16.1c0.5-0.3,1-0.6,1.5-0.9c11.3-6.5,23.2-12.7,35.2-18.5
					c58.8-28.7,113.1-45.5,113.1-45.5s-10.5-14.7-33.3-30.4c-11.4,1.9-29.6,12-73.1,32c-4.4,2.1-8.9,4.1-13.3,6.2
					c2.1,0,4.4,0.6,6.9,2.1c11.4,6.8-1.8,20.7-4.6,23.2c-0.4,0.3-1.2,0.1-1.3,0.6c-7.2,3.1-13.6,6.8-20.2,9.8
					c-10.7,2.9-24.6,4.9-41.5,3.5c-0.9,3.2-6.7,14.2-17.3,24c0,0,0,0,0,0C202.7,303.3,200.4,305.2,197.9,307z"/>
				<path class="st14" d="M391.1,226.1c0,0-54.3,16.8-113.1,45.5c-12,5.8-23.8,12-35.2,18.5c-0.5,0.3-1,0.5-1.5,0.9
					c-9,5.2-17.6,10.5-25.7,16.1c-0.2,0.1-0.3,0.2-0.5,0.4c-3.5,2.4-6.9,4.9-10.2,7.3c-2.3-2.4-4.8-5.1-7.1-7.8
					c2.5-1.8,4.9-3.7,7-5.7c0,0,0,0,0,0c10.6-9.7,16.4-20.7,17.3-24c16.9,1.4,30.8-0.6,41.5-3.5c6.7-3,13.1-6.7,20.2-9.8
					c0.1-0.4,0.9-0.2,1.3-0.6c2.8-2.5,16-16.4,4.6-23.2c-2.5-1.5-4.8-2.1-6.9-2.1c4.5-2.1,8.9-4.1,13.3-6.2
					c38.4-17.7,57.1-27.6,68.8-31C382.9,214.5,391.1,226.1,391.1,226.1z"/>
				<path class="st15" d="M216.4,319.1c1.4,2.1,2.8,4.2,4.4,6.6c4.4-3.9,9.4-7.9,14.9-11.7c0.4-0.3,0.8-0.6,1.2-0.9h0
					c8.2-5.7,17.4-11.2,27.3-16.6h0c0.8-0.4,1.5-0.9,2.3-1.3c7.9-4.2,16.1-8.3,24.6-12.3c63.9-30.1,110.1-42.4,110.1-42.4l-6.3-7.6
					c-14,4.4-46.4,14.3-105.3,43c-12,5.8-23.8,12-35.2,18.5c-0.5,0.3-1,0.5-1.5,0.9c-9,5.2-17.6,10.5-25.7,16.1
					c-0.2,0.1-0.3,0.2-0.5,0.4C223.1,314.1,219.7,316.6,216.4,319.1z"/>
				<path class="st11" d="M137.8,312.9c23.8,9,42.5,4.8,56.2-3.4c0,0,0,0,0,0c0,0,0,0,0,0c1.3-0.8,2.6-1.6,3.8-2.5
					c2.5-1.8,4.9-3.7,7-5.7c0,0,0,0,0,0c10.6-9.7,16.4-20.7,17.3-24c16.9,1.4,30.8-0.6,41.5-3.5c6.7-3,11.6-5.2,18.7-8.3
					c0.1-0.4,2.5-1.7,2.8-2.1c2.8-2.5,16-16.4,4.6-23.2c-2.5-1.5-4.8-2.1-6.9-2.1h0c-0.7,0-1.3,0.1-1.9,0.2c-3.6,0.7-6.7,3-9.3,5
					c0,0-0.1,0-0.1,0.1c-1.6,1.3-3.1,2.4-4.5,2.8c-0.2,0.1-0.4,0.1-0.5,0.1c-0.5,0.1-1.1,0.2-1.8,0.2c-6.4,0.4-19.4-1.9-28.2-1.6
					c-9.6,0.3-16.4-1.1-26.4-4.3c-10-3.2-54.1,12.5-71.9,24.2c-6.6,4.4-13.8,6.3-20.3,7C111.8,286.9,112.8,303.5,137.8,312.9z"/>
				<path class="st16" d="M267.3,246.2c1.2,2.1,3.8,4.6,6.6,5.6c4.4,1.7,12-5.6,12-7.8c-1.3-3.8-3.3-5.2-4.8-5.7
					c-3.6,0.7-6.7,3-9.3,5c0,0-0.1,0-0.1,0.1C270.1,244.6,268.6,245.8,267.3,246.2z"/>
				<path class="st17" d="M285.9,244c0,2.3-7.6,9.5-12,7.8c-2.9-1-5.4-3.5-6.6-5.6c0.5-0.2,1-0.4,1.5-0.7c1.3,1.5,3.2,2.9,5.2,3.6
					c3.7,1.4,9.7-3.5,11.5-6.5C285.5,243.1,285.7,243.5,285.9,244z"/>
				<path class="st12" d="M222.2,277.3c0,0-15.9,42.8-66.3,42.2C163.8,315.9,195.5,317.8,222.2,277.3z"/>
				<g>
					<path class="st16" d="M205.1,332.8c-0.8-0.1-1.6,0.1-2.1,0.7c-1.7,1.9-5.3,6.4-3.3,9.9c2.6,4.5,7.8,5.7,9.6,3.9
						c1.8-1.8,5.2-7.4,4.1-10.5C212.6,334.4,207.5,333.2,205.1,332.8z"/>
					<path class="st17" d="M213.6,338.8c-0.4,3.1-2.9,7-4.3,8.5c-1.8,1.8-7,0.6-9.6-3.9c-0.9-1.6-0.7-3.4,0-5
						c-0.1,0.9,0.1,1.8,0.5,2.7c2.6,4.5,7.8,5.7,9.6,3.9C211,343.8,212.7,341.3,213.6,338.8z"/>
				</g>
				<g>
					<path class="st16" d="M199,308.3c0,0-4,4-3.2,6.2c0.8,2.2,4.7,7.7,8.9,5.1c2.9-2.2,2.9-2.2,2.9-2.2L199,308.3z"/>
					<path class="st17" d="M207.6,317.3c0,0,0,0-2.9,2.2c-4.2,2.6-8.1-3-8.9-5.1c-0.2-0.5-0.1-1,0.1-1.6c0.9,2.3,4.7,7.4,8.8,4.9
						c0.9-0.7,1.5-1.1,1.9-1.5L207.6,317.3z"/>
				</g>
				<path class="st18" d="M317.3,233c0,14.2-11.5,25.7-25.7,25.7c-0.7,0-1.3,0-2-0.1c4.2-5.4,8.3-13.7,0.3-18.5
					c-2.5-1.5-4.8-2.1-6.9-2.1c4.5-2.1,8.9-4.1,13.3-6.2c6.9-3.2,13.2-6.1,18.9-8.8C316.6,226.1,317.3,229.5,317.3,233z"/>
				<path class="st5" d="M101.7,364.5H88.2v-100h13.5c2.7,0,4.9,2.2,4.9,4.9v90.3C106.5,362.3,104.3,364.5,101.7,364.5z"/>
				<path class="st8" d="M86.8,369.7H56.4V259h30.4c1.8,0,3.3,1.5,3.3,3.3v104C90.1,368.2,88.6,369.7,86.8,369.7z"/>
			</g>
		</g>
		<g>
			<path d="M22.4,491.3h-9.8v-38.2H0v-8.2h35v8.2H22.4V491.3z"/>
			<path d="M80.2,491.3h-9.8v-20H52v20h-9.8v-46.4H52v18.2h18.4v-18.2h9.8V491.3z"/>
			<path d="M120.3,491.3l-3.4-11H100l-3.4,11H86.1l16.4-46.6h12l16.4,46.6H120.3z M114.6,472c-3.1-10-4.9-15.7-5.3-17
				c-0.4-1.3-0.7-2.3-0.8-3.1c-0.7,2.7-2.7,9.4-6,20.1H114.6z"/>
			<path d="M177.9,491.3h-12.5l-20.2-35.1h-0.3c0.4,6.2,0.6,10.6,0.6,13.3v21.8h-8.8v-46.4h12.4l20.2,34.8h0.2
				c-0.3-6-0.5-10.3-0.5-12.8v-22h8.9V491.3z"/>
			<path d="M227.6,491.3h-9.8v-20h-18.4v20h-9.8v-46.4h9.8v18.2h18.4v-18.2h9.8V491.3z"/>
			<path d="M274.1,491.3h-9.8v-38.2h-12.6v-8.2h35v8.2h-12.6V491.3z"/>
			<path d="M336,468c0,7.7-1.9,13.6-5.7,17.7c-3.8,4.1-9.3,6.2-16.4,6.2s-12.6-2.1-16.4-6.2c-3.8-4.1-5.7-10-5.7-17.8
				c0-7.7,1.9-13.6,5.7-17.7c3.8-4.1,9.3-6.1,16.4-6.1c7.1,0,12.6,2.1,16.4,6.2C334.1,454.4,336,460.3,336,468z M302.1,468
				c0,5.2,1,9.1,3,11.7c2,2.6,4.9,3.9,8.8,3.9c7.8,0,11.8-5.2,11.8-15.6c0-10.5-3.9-15.7-11.7-15.7c-3.9,0-6.9,1.3-8.9,4
				C303.1,458.9,302.1,462.9,302.1,468z"/>
			<path d="M374,491.3l-3.4-11h-16.9l-3.4,11h-10.6l16.4-46.6h12l16.4,46.6H374z M368.3,472c-3.1-10-4.9-15.7-5.3-17
				c-0.4-1.3-0.7-2.3-0.8-3.1c-0.7,2.7-2.7,9.4-6,20.1H368.3z M356.9,441.2v-0.9c3.6-4.2,6.1-7.4,7.5-9.6h10.9v0.7
				c-1.1,1.1-3,2.7-5.6,4.9c-2.7,2.2-4.7,3.8-6.2,4.8H356.9z"/>
			<path d="M431.6,491.3h-12.5l-20.2-35.1h-0.3c0.4,6.2,0.6,10.6,0.6,13.3v21.8h-8.8v-46.4h12.4l20.2,34.8h0.2
				c-0.3-6-0.5-10.3-0.5-12.8v-22h8.9V491.3z"/>
			<path d="M487.6,478.4c0,4.2-1.5,7.5-4.5,9.9c-3,2.4-7.2,3.6-12.6,3.6c-5,0-9.3-0.9-13.1-2.8V480c3.1,1.4,5.8,2.4,8,3
				c2.2,0.6,4.2,0.9,6,0.9c2.2,0,3.8-0.4,5-1.2c1.2-0.8,1.7-2.1,1.7-3.7c0-0.9-0.3-1.7-0.8-2.4c-0.5-0.7-1.3-1.4-2.2-2
				c-1-0.7-3-1.7-6-3.1c-2.8-1.3-5-2.6-6.4-3.8c-1.4-1.2-2.5-2.7-3.4-4.3c-0.8-1.6-1.3-3.5-1.3-5.7c0-4.1,1.4-7.3,4.2-9.7
				s6.6-3.5,11.5-3.5c2.4,0,4.7,0.3,6.9,0.9c2.2,0.6,4.5,1.4,6.9,2.4l-3.2,7.6c-2.5-1-4.5-1.7-6.1-2.1c-1.6-0.4-3.2-0.6-4.8-0.6
				c-1.9,0-3.3,0.4-4.3,1.3c-1,0.9-1.5,2-1.5,3.4c0,0.9,0.2,1.6,0.6,2.3c0.4,0.6,1,1.3,1.9,1.9c0.9,0.6,3,1.7,6.2,3.3
				c4.3,2.1,7.3,4.2,8.9,6.2C486.8,472.8,487.6,475.4,487.6,478.4z"/>
			<path d="M524.4,491.3l-3.4-11h-16.9l-3.4,11h-10.6l16.4-46.6h12l16.4,46.6H524.4z M518.7,472c-3.1-10-4.9-15.7-5.3-17
				c-0.4-1.3-0.7-2.3-0.8-3.1c-0.7,2.7-2.7,9.4-6,20.1H518.7z"/>
			<path d="M578.6,444.9v30c0,3.4-0.8,6.4-2.3,9c-1.5,2.6-3.8,4.6-6.6,5.9c-2.9,1.4-6.3,2.1-10.3,2.1c-6,0-10.6-1.5-13.9-4.6
				s-5-7.2-5-12.6v-29.9h9.8v28.4c0,3.6,0.7,6.2,2.2,7.9c1.4,1.7,3.8,2.5,7.1,2.5c3.2,0,5.5-0.8,7-2.5c1.4-1.7,2.2-4.3,2.2-7.9
				v-28.3H578.6z"/>
		</g>
	</g>
</g>
</svg>
