<?xml version="1.0" encoding="utf-8"?>
<!-- Generator: Adobe Illustrator 22.1.0, SVG Export Plug-In . SVG Version: 6.00 Build 0)  -->
<svg version="1.1" id="Layer_1" xmlns="http://www.w3.org/2000/svg" xmlns:xlink="http://www.w3.org/1999/xlink" x="0px" y="0px"
	 viewBox="0 0 389.9 372.5" style="enable-background:new 0 0 389.9 372.5;" xml:space="preserve">
<style type="text/css">
	.st0{fill:#005F88;}
</style>
<g id="profile" transform="translate(0 -13.415)">
	<path id="Path_649" class="st0" d="M191.9,222.9c50.1-0.1,90.7-40.8,90.7-90.9c-0.1-50.1-40.8-90.7-90.9-90.7
		c-50,0.1-90.6,40.6-90.7,90.7C100.9,182.2,141.7,222.9,191.9,222.9z M191.9,65c37,0,67,30,67,67s-30,67-67,67s-67-30-67-67l0,0
		C125,95,154.9,65.1,191.9,65L191.9,65z"/>
	<path id="Path_650" class="st0" d="M34.5,364.9h315.8c6.5,0.1,11.9-5.2,12-11.7c0-0.1,0-0.2,0-0.3c-0.1-63-51.1-114-114.1-114.1
		H136.6c-63,0.1-114,51.1-114.1,114.1c-0.1,6.5,5.2,11.9,11.7,12C34.4,364.9,34.4,364.9,34.5,364.9z M136.6,262.8h111.6
		c45.1,0,83.3,33.4,89.3,78.1H47.4C53.5,296.2,91.6,262.9,136.6,262.8L136.6,262.8z"/>
</g>
</svg>
