<?xml version="1.0" encoding="utf-8"?>
<!-- Generator: Adobe Illustrator 22.1.0, SVG Export Plug-In . SVG Version: 6.00 Build 0)  -->
<svg version="1.1" id="Layer_1" xmlns="http://www.w3.org/2000/svg" xmlns:xlink="http://www.w3.org/1999/xlink" x="0px" y="0px"
	 viewBox="0 0 595.3 841.9" style="enable-background:new 0 0 595.3 841.9;" xml:space="preserve">
<style type="text/css">
	.st0{fill:#007CAC;}
	.st1{fill:none;stroke:#007CAC;stroke-width:1.0411;stroke-miterlimit:10;}
</style>
<g>
	<path class="st0" d="M8.2,9.1v824h578.9V9.1H8.2z M582.8,828.8H12.2V13.3h570.6V828.8z"/>
	<path class="st1" d="M41.7,15.7h510.8 M41.7,826.4h510.8 M14.8,44.2v754.1 M580.1,44.2v754.1"/>
	<g>
		<g>
			<g>
				<path class="st0" d="M20.4,38.5c0.8-2.3-0.1-4.7-1.1-6.7c-1.3-2.8-3-7.4,0.4-9c0.1,0,0.2,0,0.2,0c0.9,0,1.8,0.4,2.4,0.9
					c0.1,0.2,0.3,0.3,0.5,0.5c0.4,0.4,0.6,0.9,0.7,1.5c0.2,1.2-0.5,2.9-1.9,2.9c-1.9,0-1.8-2.3-0.5-3c0,0,0-0.1,0-0.1
					c-2.5-0.3-2.4,3.2-0.4,3.9c2.7,1,4.2-2.1,3.6-4.3c2.3,0.6,5.3-0.9,4.3-3.6c-0.7-2-4.2-2.1-3.9,0.4c0,0,0.1,0.1,0.1,0
					c0.6-1.3,2.5-1.5,2.9,0.1c0.4,1.4-0.9,2.3-2.2,2.3c-0.9,0-1.6-0.3-2.2-0.8c-0.1-0.1-0.2-0.2-0.4-0.4c-0.6-0.7-0.9-1.6-1-2.5
					c0-0.1,0-0.2,0-0.2c1.6-3.3,6-1.9,8.8-0.6c2.2,1,4.6,2.1,7,1.2c1.6-0.6,3-2.1,2.7-3.9c-0.3-1.8-2.2-3.2-3.9-2.5
					c-1.1,0.4-0.5,1.9,0.6,1.5c0.5-0.2,1,0,1.4,0.3c0.4,0.9,0,1.8-0.8,2.2c-1,0.6-2.4,0.6-3.6,0.6c-2.1,0-4-0.5-6-1.1
					c0,0-0.1,0-0.1,0c-1.8-0.5-4.4-0.4-5.7,1c0.4-0.9,1.1-1.6,2-1.9c1.3-0.5,2.4,0.2,3.7,0.2c0.9,0,1.3-1.1,0.7-1.7
					c-2-2.2-6.2,0-7.3,2.1c-0.7,1.3-0.7,2.9-0.2,4.3c-1.4-0.5-3-0.5-4.3,0.2c-2.2,1.1-4.3,5.3-2.1,7.3c0.6,0.6,1.7,0.2,1.7-0.7
					c0-1.2-0.6-2.2-0.2-3.5c0.3-1,1.1-1.8,2-2.2c-1.3,1.3-1.4,3.9-1,5.7c0,0-0.1,0,0,0.1c0.6,1.9,1.1,3.9,1.1,6c0,1.1,0,2.2-0.4,3.2
					c-0.1,0.4-0.3,0.8-0.6,1.1c-0.5,0.1-1.1,0.2-1.6,0.3c0,0,0,0-0.1,0c-0.4-0.4-0.6-0.9-0.4-1.5c0.5-1.1-1.1-1.7-1.5-0.6
					c-0.6,1.8,0.7,3.6,2.5,3.9C18.3,41.5,19.8,40.2,20.4,38.5z M33.1,19.4c1.6,0.2,3.5,0.4,5-0.3c0.5-0.2,1-0.6,1.4-1.1
					c0,0.5-0.2,0.9-0.6,1.4c-0.8,0.9-2,1.3-3.2,1.3c-2,0-3.8-1-5.5-1.9C31.2,19.1,32.1,19.3,33.1,19.4z M18.5,38.8
					c0.7-1.5,0.4-3.5,0.3-5c-0.1-1-0.3-2-0.6-2.9c0.8,1.8,1.9,3.6,1.9,5.5c0,1.2-0.4,2.4-1.3,3.2c-0.4,0.4-0.9,0.6-1.4,0.6
					C17.9,39.8,18.3,39.3,18.5,38.8z"/>
				<path class="st0" d="M16.5,33.1c0-0.2,0-0.5-0.2-0.7c-0.1-0.2-0.3-0.3-0.5-0.5c-0.3-0.2-0.8-0.2-1.1,0c-0.2,0.1-0.3,0.2-0.5,0.5
					c-0.1,0.2-0.2,0.4-0.2,0.7c0,0.3,0.1,0.6,0.3,0.8c0.2,0.2,0.5,0.4,0.8,0.3C16,34.3,16.5,33.8,16.5,33.1z"/>
				<path class="st0" d="M31.4,15.4c-0.2,0.3-0.2,0.8,0,1.1c0.1,0.2,0.2,0.3,0.5,0.5c0.2,0.1,0.4,0.2,0.7,0.2c0.3,0,0.6-0.1,0.8-0.3
					c0.2-0.2,0.4-0.5,0.3-0.8c0-0.7-0.5-1.1-1.2-1.2c-0.2,0-0.5,0-0.7,0.2C31.6,15.1,31.5,15.2,31.4,15.4z"/>
				<path class="st0" d="M18.5,18.1c-0.2-0.9-0.5-2.1-0.9-2.6c-0.4-0.4-1.7-0.8-2.7-1c-0.6-0.1-1.1,0.4-1,1c0.2,1,0.6,2.3,1,2.7
					c0.4,0.4,1.6,0.7,2.6,0.9C18.1,19.2,18.6,18.7,18.5,18.1z"/>
			</g>
			<g>
				<path class="st0" d="M557.5,21c2.3,0.8,4.7-0.1,6.7-1.1c2.8-1.3,7.4-3,9,0.4c0,0.1,0,0.2,0,0.2c0,0.9-0.4,1.8-0.9,2.4
					c-0.2,0.1-0.3,0.3-0.5,0.5c-0.4,0.4-0.9,0.6-1.5,0.7c-1.2,0.2-2.9-0.5-2.9-1.9c0-1.9,2.3-1.8,3-0.5c0,0,0.1,0,0.1,0
					c0.3-2.5-3.2-2.4-3.9-0.4c-1,2.7,2.1,4.2,4.3,3.6c-0.6,2.3,0.9,5.3,3.6,4.3c2-0.7,2.1-4.2-0.4-3.9c0,0-0.1,0.1,0,0.1
					c1.3,0.6,1.5,2.5-0.1,2.9c-1.4,0.4-2.3-0.9-2.3-2.2c0-0.9,0.3-1.6,0.8-2.2c0.1-0.1,0.2-0.2,0.4-0.4c0.7-0.6,1.6-0.9,2.5-1
					c0.1,0,0.2,0,0.2,0c3.3,1.6,1.9,6,0.6,8.8c-1,2.2-2.1,4.6-1.2,7c0.6,1.6,2.1,3,3.9,2.7c1.8-0.3,3.2-2.2,2.5-3.9
					c-0.4-1.1-1.9-0.5-1.5,0.6c0.2,0.5,0,1-0.3,1.4c-0.9,0.4-1.8,0-2.2-0.8c-0.6-1-0.6-2.4-0.6-3.6c0-2.1,0.5-4,1.1-6
					c0,0,0-0.1,0-0.1c0.5-1.8,0.4-4.4-1-5.7c0.9,0.4,1.6,1.1,1.9,2c0.5,1.3-0.2,2.4-0.2,3.7c0,0.9,1.1,1.3,1.7,0.7
					c2.2-2,0-6.2-2.1-7.3c-1.3-0.7-2.9-0.7-4.3-0.2c0.5-1.4,0.5-3-0.2-4.3c-1.1-2.2-5.3-4.3-7.3-2.1c-0.6,0.6-0.2,1.7,0.7,1.7
					c1.2,0,2.2-0.6,3.5-0.2c1,0.3,1.8,1.1,2.2,2c-1.3-1.3-3.9-1.4-5.7-1c0,0,0-0.1-0.1,0c-1.9,0.6-3.9,1.1-6,1.1
					c-1.1,0-2.2,0-3.2-0.4c-0.4-0.1-0.8-0.3-1.1-0.6c-0.1-0.5-0.2-1.1-0.3-1.6c0,0,0,0,0-0.1c0.4-0.4,0.9-0.6,1.5-0.4
					c1.1,0.5,1.7-1.1,0.6-1.5c-1.8-0.6-3.6,0.7-3.9,2.5C554.5,18.9,555.9,20.4,557.5,21z M576.7,33.7c-0.2,1.6-0.4,3.5,0.3,5
					c0.2,0.5,0.6,1,1.1,1.4c-0.5,0-0.9-0.2-1.4-0.6c-0.9-0.8-1.3-2-1.3-3.2c0-2,1-3.8,1.9-5.5C576.9,31.8,576.8,32.7,576.7,33.7z
					 M557.3,19.1c1.5,0.7,3.5,0.4,5,0.3c1-0.1,2-0.3,2.9-0.6c-1.8,0.8-3.6,1.9-5.5,1.9c-1.2,0-2.4-0.4-3.2-1.3
					c-0.4-0.4-0.6-0.9-0.6-1.4C556.3,18.5,556.8,18.9,557.3,19.1z"/>
				<path class="st0" d="M563,17.1c0.2,0,0.5,0,0.7-0.2c0.2-0.1,0.3-0.3,0.5-0.5c0.2-0.3,0.2-0.8,0-1.1c-0.1-0.2-0.2-0.3-0.5-0.5
					c-0.2-0.1-0.4-0.2-0.7-0.2c-0.3,0-0.6,0.1-0.8,0.3c-0.2,0.2-0.4,0.5-0.3,0.8C561.8,16.6,562.3,17.1,563,17.1z"/>
				<path class="st0" d="M580.7,32c-0.3-0.2-0.8-0.2-1.1,0c-0.2,0.1-0.3,0.2-0.5,0.5c-0.1,0.2-0.2,0.4-0.2,0.7
					c0,0.3,0.1,0.6,0.3,0.8c0.2,0.2,0.5,0.4,0.8,0.3c0.7,0,1.1-0.5,1.2-1.2c0-0.2,0-0.5-0.2-0.7C581,32.2,580.9,32.1,580.7,32z"/>
				<path class="st0" d="M578,19.1c0.9-0.2,2.1-0.5,2.6-0.9c0.4-0.4,0.8-1.7,1-2.7c0.1-0.6-0.4-1.1-1-1c-1,0.2-2.3,0.6-2.7,1
					c-0.4,0.4-0.7,1.6-0.9,2.6C576.9,18.7,577.4,19.2,578,19.1z"/>
			</g>
			<g>
				<path class="st0" d="M575.1,803.3c-0.8,2.3,0.1,4.7,1.1,6.7c1.3,2.8,3,7.4-0.4,9c-0.1,0-0.2,0-0.2,0c-0.9,0-1.8-0.4-2.4-0.9
					c-0.1-0.2-0.3-0.3-0.5-0.5c-0.4-0.4-0.6-0.9-0.7-1.5c-0.2-1.2,0.5-2.9,1.9-2.9c1.9,0,1.8,2.3,0.5,3c0,0,0,0.1,0,0.1
					c2.5,0.3,2.4-3.2,0.4-3.9c-2.7-1-4.2,2.1-3.6,4.3c-2.3-0.6-5.3,0.9-4.3,3.6c0.7,2,4.2,2.1,3.9-0.4c0,0-0.1-0.1-0.1,0
					c-0.6,1.3-2.5,1.5-2.9-0.1c-0.4-1.4,0.9-2.3,2.2-2.3c0.9,0,1.6,0.3,2.2,0.8c0.1,0.1,0.2,0.2,0.4,0.4c0.6,0.7,0.9,1.6,1,2.5
					c0,0.1,0,0.2,0,0.2c-1.6,3.3-6,1.9-8.8,0.6c-2.2-1-4.6-2.1-7-1.2c-1.6,0.6-3,2.1-2.7,3.9c0.3,1.8,2.2,3.2,3.9,2.5
					c1.1-0.4,0.5-1.9-0.6-1.5c-0.5,0.2-1,0-1.4-0.3c-0.4-0.9,0-1.8,0.8-2.2c1-0.6,2.4-0.6,3.6-0.6c2.1,0,4,0.5,6,1.1
					c0,0,0.1,0,0.1,0c1.8,0.5,4.4,0.4,5.7-1c-0.4,0.9-1.1,1.6-2,1.9c-1.3,0.5-2.4-0.2-3.7-0.2c-0.9,0-1.3,1.1-0.7,1.7
					c2,2.2,6.2,0,7.3-2.1c0.7-1.3,0.7-2.9,0.2-4.3c1.4,0.5,3,0.5,4.3-0.2c2.2-1.1,4.3-5.3,2.1-7.3c-0.6-0.6-1.7-0.2-1.7,0.7
					c0,1.2,0.6,2.2,0.2,3.5c-0.3,1-1.1,1.8-2,2.2c1.3-1.3,1.4-3.9,1-5.7c0,0,0.1,0,0-0.1c-0.6-1.9-1.1-3.9-1.1-6
					c0-1.1,0-2.2,0.4-3.2c0.1-0.4,0.3-0.8,0.6-1.1c0.5-0.1,1.1-0.2,1.6-0.3c0,0,0,0,0.1,0c0.4,0.4,0.6,0.9,0.4,1.5
					c-0.5,1.1,1.1,1.7,1.5,0.6c0.6-1.8-0.7-3.6-2.5-3.9C577.2,800.3,575.7,801.6,575.1,803.3z M562.3,822.4c-1.6-0.2-3.5-0.4-5,0.3
					c-0.5,0.2-1,0.6-1.4,1.1c0-0.5,0.2-0.9,0.6-1.4c0.8-0.9,2-1.3,3.2-1.3c2,0,3.8,1,5.5,1.9C564.3,822.7,563.3,822.5,562.3,822.4z
					 M576.9,803.1c-0.7,1.5-0.4,3.5-0.3,5c0.1,1,0.3,2,0.6,2.9c-0.8-1.8-1.9-3.6-1.9-5.5c0-1.2,0.4-2.4,1.3-3.2
					c0.4-0.4,0.9-0.6,1.4-0.6C577.6,802.1,577.2,802.6,576.9,803.1z"/>
				<path class="st0" d="M578.9,808.7c0,0.2,0,0.5,0.2,0.7c0.1,0.2,0.3,0.3,0.5,0.5c0.3,0.2,0.8,0.2,1.1,0c0.2-0.1,0.3-0.2,0.5-0.5
					c0.1-0.2,0.2-0.4,0.2-0.7c0-0.3-0.1-0.6-0.3-0.8c-0.2-0.2-0.5-0.4-0.8-0.3C579.5,807.6,579,808.1,578.9,808.7z"/>
				<path class="st0" d="M564.1,826.5c0.2-0.3,0.2-0.8,0-1.1c-0.1-0.2-0.2-0.3-0.5-0.5c-0.2-0.1-0.4-0.2-0.7-0.2
					c-0.3,0-0.6,0.1-0.8,0.3c-0.2,0.2-0.4,0.5-0.3,0.8c0,0.7,0.5,1.1,1.2,1.2c0.2,0,0.5,0,0.7-0.2
					C563.9,826.8,563.9,826.7,564.1,826.5z"/>
				<path class="st0" d="M577,823.8c0.2,0.9,0.5,2.1,0.9,2.6c0.4,0.4,1.7,0.8,2.7,1c0.6,0.1,1.1-0.4,1-1c-0.2-1-0.6-2.3-1-2.7
					c-0.4-0.4-1.6-0.7-2.6-0.9C577.4,822.7,576.9,823.2,577,823.8z"/>
			</g>
			<g>
				<path class="st0" d="M36.9,820.9c-2.3-0.8-4.7,0.1-6.7,1.1c-2.8,1.3-7.4,3-9-0.4c0-0.1,0-0.2,0-0.2c0-0.9,0.4-1.8,0.9-2.4
					c0.2-0.1,0.3-0.3,0.5-0.5c0.4-0.4,0.9-0.6,1.5-0.7c1.2-0.2,2.9,0.5,2.9,1.9c0,1.9-2.3,1.8-3,0.5c0,0-0.1,0-0.1,0
					c-0.3,2.5,3.2,2.4,3.9,0.4c1-2.7-2.1-4.2-4.3-3.6c0.6-2.3-0.9-5.3-3.6-4.3c-2,0.7-2.1,4.2,0.4,3.9c0,0,0.1-0.1,0-0.1
					c-1.3-0.6-1.5-2.5,0.1-2.9c1.4-0.4,2.3,0.9,2.3,2.2c0,0.9-0.3,1.6-0.8,2.2c-0.1,0.1-0.2,0.2-0.4,0.4c-0.7,0.6-1.6,0.9-2.5,1
					c-0.1,0-0.2,0-0.2,0c-3.3-1.6-1.9-6-0.6-8.8c1-2.2,2.1-4.6,1.2-7c-0.6-1.6-2.1-3-3.9-2.7c-1.8,0.3-3.2,2.2-2.5,3.9
					c0.4,1.1,1.9,0.5,1.5-0.6c-0.2-0.5,0-1,0.3-1.4c0.9-0.4,1.8,0,2.2,0.8c0.6,1,0.6,2.4,0.6,3.6c0,2.1-0.5,4-1.1,6c0,0,0,0.1,0,0.1
					c-0.5,1.8-0.4,4.4,1,5.7c-0.9-0.4-1.6-1.1-1.9-2c-0.5-1.3,0.2-2.4,0.2-3.7c0-0.9-1.1-1.3-1.7-0.7c-2.2,2,0,6.2,2.1,7.3
					c1.3,0.7,2.9,0.7,4.3,0.2c-0.5,1.4-0.5,3,0.2,4.3c1.1,2.2,5.3,4.3,7.3,2.1c0.6-0.6,0.2-1.7-0.7-1.7c-1.2,0-2.2,0.6-3.5,0.2
					c-1-0.3-1.8-1.1-2.2-2c1.3,1.3,3.9,1.4,5.7,1c0,0,0,0.1,0.1,0c1.9-0.6,3.9-1.1,6-1.1c1.1,0,2.2,0,3.2,0.4
					c0.4,0.1,0.8,0.3,1.1,0.6c0.1,0.5,0.2,1.1,0.3,1.6c0,0,0,0,0,0.1c-0.4,0.4-0.9,0.6-1.5,0.4c-1.1-0.5-1.7,1.1-0.6,1.5
					c1.8,0.6,3.6-0.7,3.9-2.5C39.9,823,38.6,821.4,36.9,820.9z M17.8,808.1c0.2-1.6,0.4-3.5-0.3-5c-0.2-0.5-0.6-1-1.1-1.4
					c0.5,0,0.9,0.2,1.4,0.6c0.9,0.8,1.3,2,1.3,3.2c0,2-1,3.8-1.9,5.5C17.5,810.1,17.7,809.1,17.8,808.1z M37.1,822.7
					c-1.5-0.7-3.5-0.4-5-0.3c-1,0.1-2,0.3-2.9,0.6c1.8-0.8,3.6-1.9,5.5-1.9c1.2,0,2.4,0.4,3.2,1.3c0.4,0.4,0.6,0.9,0.6,1.4
					C38.2,823.3,37.7,822.9,37.1,822.7z"/>
				<path class="st0" d="M31.5,824.7c-0.2,0-0.5,0-0.7,0.2c-0.2,0.1-0.3,0.3-0.5,0.5c-0.2,0.3-0.2,0.8,0,1.1
					c0.1,0.2,0.2,0.3,0.5,0.5c0.2,0.1,0.4,0.2,0.7,0.2c0.3,0,0.6-0.1,0.8-0.3c0.2-0.2,0.4-0.5,0.3-0.8
					C32.7,825.2,32.2,824.8,31.5,824.7z"/>
				<path class="st0" d="M13.8,809.9c0.3,0.2,0.8,0.2,1.1,0c0.2-0.1,0.3-0.2,0.5-0.5c0.1-0.2,0.2-0.4,0.2-0.7c0-0.3-0.1-0.6-0.3-0.8
					c-0.2-0.2-0.5-0.4-0.8-0.3c-0.7,0-1.1,0.5-1.2,1.2c0,0.2,0,0.5,0.2,0.7C13.5,809.6,13.6,809.7,13.8,809.9z"/>
				<path class="st0" d="M16.5,822.8c-0.9,0.2-2.1,0.5-2.6,0.9c-0.4,0.4-0.8,1.7-1,2.7c-0.1,0.6,0.4,1.1,1,1c1-0.2,2.3-0.6,2.7-1
					c0.4-0.4,0.7-1.6,0.9-2.6C17.6,823.2,17.1,822.7,16.5,822.8z"/>
			</g>
		</g>
	</g>
</g>
</svg>
