<?xml version="1.0" encoding="utf-8"?>
<!-- Generator: Adobe Illustrator 22.1.0, SVG Export Plug-In . SVG Version: 6.00 Build 0)  -->
<svg version="1.1" id="Layer_1" xmlns="http://www.w3.org/2000/svg" xmlns:xlink="http://www.w3.org/1999/xlink" x="0px" y="0px"
	 viewBox="0 0 676.5 382.4" style="enable-background:new 0 0 676.5 382.4;" xml:space="preserve">
<style type="text/css">
	.st0{enable-background:new    ;}
	.st1{fill:#141414;}
	.st2{clip-path:url(#SVGID_2_);}
	.st3{fill:#FFFFFF;}
	.st4{fill:#ED1C24;enable-background:new    ;}
	.st5{fill:#005BAB;enable-background:new    ;}
</style>
<g class="st0">
	<path class="st1" d="M261.5,287.6h9.4l-14.9,44h-10.2l-14.9-44h9.4l8.3,26.2c0.5,1.5,0.9,3.3,1.4,5.4s0.8,3.5,0.9,4.3
		c0.2-1.8,1-5.1,2.3-9.7L261.5,287.6z"/>
	<path class="st1" d="M315.4,331.5h-11.8l-19.1-33.2h-0.3c0.4,5.9,0.6,10.1,0.6,12.6v20.7h-8.3v-44h11.8l19.1,32.9h0.2
		c-0.3-5.7-0.5-9.8-0.5-12.1v-20.8h8.4v43.9H315.4z"/>
	<path class="st1" d="M372.8,301.3c0,4.7-1.5,8.3-4.4,10.9c-3,2.5-7.2,3.8-12.6,3.8h-4v15.6h-9.3v-44h14c5.3,0,9.4,1.1,12.2,3.4
		C371.4,293.3,372.8,296.7,372.8,301.3z M351.8,308.2h3.1c2.9,0,5-0.6,6.4-1.7s2.1-2.8,2.1-4.9c0-2.2-0.6-3.8-1.8-4.8
		s-3.1-1.6-5.6-1.6h-4.2V308.2z"/>
	<path class="st1" d="M408,331.5l-3.2-10.5h-16l-3.2,10.5h-10l15.5-44.1h11.4l15.6,44.1H408z M402.6,313.2c-2.9-9.5-4.6-14.8-5-16.1
		c-0.4-1.2-0.6-2.2-0.8-2.9c-0.7,2.6-2.6,8.9-5.7,19H402.6z"/>
	<path class="st1" d="M437.3,305.7l9.2-18.1h10l-14.6,26.8v17.1h-9.3v-16.8L418,287.6h10.1L437.3,305.7z"/>
</g>
<g>
	<defs>
		<rect id="SVGID_1_" x="4.6" y="83.4" width="667.3" height="121"/>
	</defs>
	<clipPath id="SVGID_2_">
		<use xlink:href="#SVGID_1_"  style="overflow:visible;"/>
	</clipPath>
	<g class="st2">
		<path class="st3" d="M594.9,84.3c26.2,0,52.4,0,78.6,0c0,40.7,0,81.4,0,122.2c-222.7,0-445.4,0-668.3,0c0-40.6,0-81.2,0-122.2
			c192.7,0,385.6,0,578.5,0c-2.5,0.9-5,1.8-7.4,2.8c-12.1,4.8-19.2,16.7-17.8,29.7c1.6,14.5,10.5,26.4,22.5,26.8
			c9,0.3,15.7,3.3,22.1,8.9c1.8,1.6,4.2,2.7,6.5,3.5c6.9,2.5,13.3,1.4,18.1-2.6c-6.8-4.7-13.6-9.4-20.6-14.3
			c2.2-2.9,3.5-4.5,4.7-6.2c9-13.1,7.4-31.9-4-41.3C604.1,88.4,599.2,86.7,594.9,84.3z"/>
		<path class="st3" d="M155.6,127.7c0.4-0.2,0.9-0.3,1.3-0.5c1.3,1.5,2.7,3,3.9,4.6c14.9,18.4,29.8,36.8,44.6,55.3
			c9,11.2,21,16.3,36,17.6c0-2.6,0-4.8,0-6.9c0-29.1,0.3-58.2-0.2-87.2c-0.1-8.9,0.9-16.8,7.7-23.2c0.2-0.2,0-0.8,0-1.2
			c-10.4,0-20.8,0-30.3,0c2,5.7,5.2,11.2,5.5,16.8c0.7,16.4,0.3,32.8,0.2,49.2c0,1.6-0.3,3.3-0.6,6.3c-2.5-2.9-4-4.6-5.4-6.3
			c-16.8-20.9-33.6-41.7-50.4-62.6c-1.2-1.5-3-3.7-4.5-3.7c-11.1-0.3-22.1-0.2-34.1-0.2c1.7,2.9,2.6,4.8,3.9,6.3
			c4.5,5.6,5.8,11.9,5.6,19.1c-0.4,17.9,0.2,35.7-0.3,53.6c-0.3,12.5,3.7,25.9-8,37c12.1,0,22.5,0,33,0c-2.8-4.8-7.3-9.1-7.5-13.6
			C155.1,168,155.6,147.8,155.6,127.7z"/>
		<path class="st3" d="M457.5,201.2c-3.9-7.6-8.3-14.8-11.3-22.6c-11.1-28.8-21.7-57.8-32.6-86.6c-0.8-2.2-2.9-5.6-4.5-5.7
			c-12.7-0.5-25.4-0.3-39.5-0.3c7.4,6.5,6.4,13.1,3.9,19.9c-11.9,31.8-20.4,64.9-35.2,95c9.3,0,19.4,0,31,0
			c-6.7-5.6-5.7-11.4-3.5-17.3c1.5-4.1,3.1-8.2,4.2-12.3c1-3.5,2.8-5.1,6.6-4.9c7,0.3,14.1,0,21.2,0.1c11.7,0.1,9.4-1.5,13.1,9.5
			c2.7,8.3,7.5,16.7-1.1,25.3C426.6,201.2,442.5,201.2,457.5,201.2z"/>
		<path class="st3" d="M301.6,152c10.4,0.2,19.6-1,28.3-5.2c13.8-6.7,20.3-19.7,17.6-35.1c-2.4-13.4-13-23.6-27.6-24.5
			c-18.4-1.1-36.9-0.9-55.4-1.2c-1.5,0-3,0.3-2.7,0.3c1.5,6.2,4,12,4.1,17.9c0.5,24.1,0.1,48.2,0.2,72.3c0,8.5,0.4,17-5.7,24.4
			c14.7,0,28.6,0,42,0c-1.7-4.4-4.5-8.4-4.5-12.4c-0.4-28.4-0.2-56.8-0.2-85.2c8-1.2,14.1,2.6,17,10.7
			C319.5,127.9,315.6,139.9,301.6,152z"/>
		<path class="st3" d="M7.6,85.7c11.7,29.8,23.3,58.4,34,87.3c6.2,16.6,17.9,25.8,34.4,30.3c4.3,1.2,6.1,0.4,7.7-4
			c12.4-35.4,25.1-70.7,37.7-106.1c0.8-2.2,1.4-4.5,2.2-7.2c-9.1,0-17.3,0-26.1,0c0.6,1.5,0.9,2.8,1.5,3.7c3.9,5.5,3.3,10.9,0.9,17
			c-7.4,18.9-14.2,38.1-21.3,57.1c-0.9,2.4-1.9,4.7-3.6,8.6c-1.3-3.6-2.1-5.7-2.9-7.7c-8.9-24.6-17.6-49.2-26.7-73.7
			c-0.8-2.1-3.2-4.9-4.9-5C29.8,85.4,19,85.7,7.6,85.7z"/>
		<path class="st3" d="M557.7,86.4c-13.2,0-25,0-35.2,0c0.4,4.6,2.5,9.9,0.8,13.3c-4.9,9.9-11.4,18.9-17.9,29.3
			c-2.1-3.1-3.3-4.7-4.4-6.4c-6.7-10.7-13.4-21.5-20.2-32.2c-1.1-1.7-3.2-4-4.9-4.1c-12.5-0.3-25.1-0.2-36.9-0.2
			c8.9,13,16.9,26.5,26.6,38.4c13.1,16,18.7,33.4,16.2,54c-0.9,7.7,0.3,15.7-5.8,22.5c15.1,0,29.5,0,44.6,0c-7.1-9.1-6-19.3-7-29.1
			c-1.5-15.5,2.5-28.4,12.4-40.7C537.4,117.3,546.8,102.1,557.7,86.4z"/>
		<path class="st3" d="M640.2,142.8c0-7.5,0-14.5,0-23.3c3,5.6,5.3,9.8,7.5,13.9c5.8,11,11.3,12.9,23.1,8.5
			c-5.3-8.8-10.6-17.6-16-26.5c1.2-1,1.9-1.5,2.5-2c6.4-4.8,8.7-10,7.1-16.5c-1.6-6.2-6.6-10.5-14.3-10.8c-9.2-0.4-18.5-0.1-27-0.1
			c0,19.2,0,37.8,0,56.8C628.6,142.8,634.5,142.8,640.2,142.8z"/>
		<path class="st4" d="M594.9,84.3c4.3,2.3,9.2,4.1,12.9,7.1c11.4,9.5,13,28.3,4,41.3c-1.2,1.7-2.5,3.3-4.7,6.2
			c7,4.9,13.8,9.6,20.6,14.3c-4.9,4-11.2,5.1-18.1,2.6c-2.3-0.8-4.7-1.9-6.5-3.5c-6.4-5.6-13.1-8.5-22.1-8.9
			c-12-0.4-20.8-12.3-22.5-26.8c-1.5-13,5.6-24.9,17.8-29.7c2.5-1,5-1.8,7.4-2.8C587.4,84.3,591.2,84.3,594.9,84.3z M602.6,115.8
			c-1.6-5.1-2.6-11.4-5.4-16.7c-4.7-8.7-16-8.4-20.6,0c-4.7,8.6-2.6,25.6,4.1,32.9c6.1,6.7,15.9,5.3,19.2-3
			C601.3,125.3,601.5,121.1,602.6,115.8z"/>
		<path class="st4" d="M155.6,127.7c0,20.1-0.4,40.2,0.3,60.3c0.2,4.5,4.7,8.8,7.5,13.6c-10.5,0-20.9,0-33,0
			c11.7-11.1,7.7-24.5,8-37c0.4-17.9-0.2-35.7,0.3-53.6c0.2-7.2-1.1-13.5-5.6-19.1c-1.3-1.6-2.1-3.5-3.9-6.3c12,0,23.1-0.2,34.1,0.2
			c1.6,0,3.3,2.2,4.5,3.7c16.9,20.8,33.6,41.7,50.4,62.6c1.4,1.7,2.9,3.4,5.4,6.3c0.3-3,0.6-4.6,0.6-6.3c0-16.4,0.5-32.8-0.2-49.2
			c-0.3-5.6-3.5-11.1-5.5-16.8c9.5,0,19.9,0,30.3,0c0,0.4,0.2,1,0,1.2c-6.8,6.3-7.8,14.2-7.7,23.2c0.4,29.1,0.2,58.2,0.2,87.2
			c0,2.2,0,4.4,0,6.9c-15-1.3-27-6.4-36-17.6c-14.8-18.4-29.7-36.9-44.6-55.3c-1.3-1.6-2.6-3.1-3.9-4.6
			C156.5,127.4,156,127.6,155.6,127.7z"/>
		<path class="st5" d="M457.5,201.2c-15.1,0-31,0-47.9,0c8.6-8.6,3.9-17,1.1-25.3c-3.6-11-1.4-9.4-13.1-9.5
			c-7.1-0.1-14.1,0.2-21.2-0.1c-3.8-0.1-5.6,1.4-6.6,4.9c-1.2,4.2-2.8,8.2-4.2,12.3c-2.1,5.9-3.1,11.7,3.5,17.3c-11.6,0-21.7,0-31,0
			c14.8-30.1,23.3-63.2,35.2-95c2.5-6.8,3.5-13.3-3.9-19.9c14.1,0,26.8-0.2,39.5,0.3c1.6,0.1,3.7,3.4,4.5,5.7
			c10.9,28.9,21.5,57.8,32.6,86.6C449.2,186.4,453.7,193.6,457.5,201.2z M390,116.3c-0.6,0-1.2-0.1-1.8-0.1
			c-3.8,11.2-7.5,22.4-11.4,34c8.8,0,16.7,0,25.2,0C397.8,138.4,393.9,127.4,390,116.3z"/>
		<path class="st5" d="M301.6,152c14-12.2,17.9-24.1,12.9-38c-2.9-8.1-9-11.9-17-10.7c0,28.4-0.2,56.8,0.2,85.2
			c0.1,4,2.9,8,4.5,12.4c-13.4,0-27.3,0-42,0c6.1-7.4,5.7-15.9,5.7-24.4c-0.1-24.1,0.2-48.2-0.2-72.3c-0.1-5.9-2.6-11.7-4.1-17.9
			c-0.2,0,1.3-0.3,2.7-0.3c18.5,0.3,37,0.1,55.4,1.2c14.7,0.9,25.3,11.1,27.6,24.5c2.7,15.4-3.8,28.4-17.6,35.1
			C321.2,151,312,152.2,301.6,152z"/>
		<path class="st4" d="M7.6,85.7c11.4,0,22.2-0.2,33,0.2c1.7,0.1,4.1,3,4.9,5c9,24.5,17.8,49.1,26.7,73.7c0.7,2.1,1.5,4.2,2.9,7.7
			c1.6-3.9,2.7-6.2,3.6-8.6c7.1-19,13.9-38.2,21.3-57.1c2.4-6.1,3-11.5-0.9-17c-0.7-0.9-0.9-2.2-1.5-3.7c8.8,0,17,0,26.1,0
			c-0.8,2.6-1.4,4.9-2.2,7.2c-12.6,35.4-25.3,70.7-37.7,106.1c-1.5,4.4-3.4,5.2-7.7,4c-16.5-4.5-28.2-13.7-34.4-30.3
			C30.9,144,19.2,115.4,7.6,85.7z"/>
		<path class="st5" d="M557.7,86.4c-10.9,15.7-20.3,31-31.4,44.8c-9.9,12.3-13.9,25.2-12.4,40.7c0.9,9.9-0.1,20,7,29.1
			c-15.2,0-29.5,0-44.6,0c6.1-6.7,4.8-14.8,5.8-22.5c2.5-20.5-3.1-37.9-16.2-54c-9.8-12-17.7-25.4-26.6-38.4
			c11.8,0,24.3-0.2,36.9,0.2c1.7,0,3.7,2.3,4.9,4.1c6.9,10.6,13.5,21.4,20.2,32.2c1.1,1.7,2.3,3.3,4.4,6.4
			c6.5-10.3,12.9-19.4,17.9-29.3c1.7-3.4-0.4-8.7-0.8-13.3C532.7,86.4,544.5,86.4,557.7,86.4z"/>
		<path class="st4" d="M640.2,142.8c-5.7,0-11.6,0-17.2,0c0-19,0-37.7,0-56.8c8.5,0,17.8-0.3,27,0.1c7.7,0.4,12.8,4.6,14.3,10.8
			c1.6,6.5-0.6,11.8-7.1,16.5c-0.7,0.5-1.3,1-2.5,2c5.4,8.9,10.7,17.7,16,26.5c-11.8,4.4-17.3,2.5-23.1-8.5
			c-2.2-4.1-4.4-8.3-7.5-13.9C640.2,128.3,640.2,135.3,640.2,142.8z M639.8,113.6c7-1.5,10.2-6,9.1-12.4c-0.9-4.8-3.4-7.8-9.1-6.8
			C639.8,100.9,639.8,107.2,639.8,113.6z"/>
		<path class="st3" d="M602.6,115.8c-1,5.2-1.2,9.5-2.7,13.2c-3.3,8.3-13.1,9.7-19.2,3c-6.6-7.3-8.8-24.3-4.1-32.9
			c4.6-8.4,15.9-8.7,20.6,0C600,104.4,601,110.7,602.6,115.8z"/>
		<path class="st3" d="M390,116.3c3.9,11,7.8,22.1,12,33.8c-8.6,0-16.4,0-25.2,0c3.9-11.6,7.7-22.8,11.4-34
			C388.8,116.3,389.4,116.3,390,116.3z"/>
		<path class="st3" d="M639.8,113.6c0-6.4,0-12.7,0-19.2c5.7-0.9,8.2,2,9.1,6.8C650,107.7,646.8,112.1,639.8,113.6z"/>
	</g>
</g>
</svg>
