<?xml version="1.0" encoding="utf-8"?>
<!-- Generator: Adobe Illustrator 22.1.0, SVG Export Plug-In . SVG Version: 6.00 Build 0)  -->
<svg version="1.1" id="Layer_1" xmlns="http://www.w3.org/2000/svg" xmlns:xlink="http://www.w3.org/1999/xlink" x="0px" y="0px"
	 viewBox="0 0 23.2 23.3" style="enable-background:new 0 0 23.2 23.3;" xml:space="preserve">
<style type="text/css">
	.st0{fill:#4E4E4E;}
</style>
<path id="Path_1928" class="st0" d="M15.8,7.1C15.1,2.9,13.5,0,11.6,0S8.2,2.9,7.5,7.1H15.8z M7.1,11.6c0,1,0.1,2,0.2,3H16
	c0.1-1,0.2-2,0.2-3c0-1-0.1-2-0.2-3H7.3C7.2,9.6,7.1,10.6,7.1,11.6z M22.3,7.1c-1.4-3.2-4.1-5.6-7.4-6.6c1.3,2,2.1,4.3,2.3,6.6H22.3
	z M8.3,0.5C5,1.5,2.3,3.9,0.9,7.1H6C6.2,4.8,7,2.5,8.3,0.5z M22.8,8.6h-5.4c0.1,1,0.2,2,0.2,3s-0.1,2-0.2,3h5.4c0.3-1,0.4-2,0.4-3
	C23.2,10.6,23.1,9.6,22.8,8.6z M5.6,11.6c0-1,0.1-2,0.2-3H0.4c-0.3,1-0.4,2-0.4,3c0,1,0.1,2,0.4,3h5.4C5.7,13.6,5.6,12.6,5.6,11.6z
	 M7.5,16.1c0.7,4.2,2.3,7.1,4.1,7.1s3.5-2.9,4.1-7.1H7.5z M14.9,22.8c3.3-1,6.1-3.4,7.4-6.6h-5.1C17,18.5,16.2,20.8,14.9,22.8z
	 M0.9,16.1c1.4,3.2,4.1,5.6,7.4,6.6c-1.3-2-2.1-4.3-2.3-6.6H0.9z"/>
</svg>
