<svg width="35" height="26" viewBox="0 0 35 26" fill="none" xmlns="http://www.w3.org/2000/svg">
<path d="M32.4058 9.72008C32.3224 9.63667 32.3224 9.63667 32.2528 9.56716C32.0999 9.41424 31.8636 9.26132 31.7107 9.10839C30.4734 8.17695 29.0832 7.63477 27.54 7.56526H26.692C25.1489 7.56526 23.8421 6.32797 23.8421 4.71533V4.56241C23.7587 2.08784 21.9931 0.0859375 19.8244 0.0859375C17.5861 0.0859375 15.8067 2.17125 15.8067 4.79875C15.8067 7.34283 17.5861 9.51155 19.8244 9.51155C20.1302 9.51155 20.4361 9.42814 20.7558 9.35863C21.6038 9.27522 22.9106 9.12229 23.5362 9.12229C25.4686 9.12229 25.6911 9.66448 25.6911 9.66448C25.2323 10.0537 24.843 10.5959 24.5372 11.1381C24.3843 11.4439 24.2313 11.7498 24.0784 12.0695C23.995 12.1529 23.6892 13.0705 22.9941 15.2392C22.5353 16.6294 20.8392 16.546 20.8392 16.546H17.9059C16.0569 16.546 15.2784 13.9185 15.2784 13.9185C14.1245 10.3735 11.3441 7.74599 7.86858 7.74599C3.46162 7.66257 0 11.7637 0 16.7823C0 21.801 3.47552 25.8882 7.79907 25.8882C10.2736 25.8048 12.5814 24.5814 13.9021 22.4961C14.4443 21.7176 15.056 21.0225 15.8345 20.4942C16.4462 19.952 17.2247 19.5628 17.9893 19.2569C18.5315 19.104 18.9903 18.9511 19.5324 18.9511H22.9245C23.9255 18.9511 24.8569 19.2569 25.705 19.7296C25.705 19.7296 25.9413 19.8825 26.0108 19.9659C26.2471 20.2023 26.553 20.3552 26.8588 20.5081C27.4705 20.8139 28.1656 20.9669 28.8607 20.9669C31.8775 20.9669 34.2686 18.1865 34.2686 14.6414C34.3382 12.8063 33.6431 11.0269 32.4058 9.72008ZM19.3517 4.78484C19.3517 3.31122 20.0468 2.15735 20.9782 2.15735C21.9097 2.15735 22.6048 3.31122 22.6048 4.78484C22.6048 6.25846 21.9097 7.41234 20.9782 7.41234C20.0468 7.41234 19.3517 6.17505 19.3517 4.78484ZM10.6351 22.3015C8.85563 22.3015 7.39591 19.9798 7.39591 17.0465C7.39591 14.1131 8.86953 11.7915 10.6351 11.7915C12.4007 11.7915 13.8743 14.1131 13.8743 17.0465C13.8743 19.9937 12.4146 22.3015 10.6351 22.3015ZM30.5429 18.1308C29.389 18.1308 28.3881 16.5877 28.3881 14.5858C28.3881 12.5839 29.389 11.0408 30.5429 11.0408C31.6968 11.0408 32.6977 12.6673 32.6977 14.5858C32.7116 16.5182 31.7802 18.1308 30.5429 18.1308Z" fill="#098850"/>
</svg>
