<svg width="29" height="29" viewBox="0 0 29 29" fill="none" xmlns="http://www.w3.org/2000/svg">
<path d="M6.82446 11.9948C7.61538 11.8885 8.40631 12.1601 8.96704 12.7208L10.3836 14.1374L11.7235 12.8034L9.78748 10.8733C9.48645 10.5723 9.48645 10.0824 9.78748 9.78137C10.0885 9.48035 10.5784 9.48035 10.8794 9.78137L12.8154 11.7174L14.1553 10.3834L12.7328 8.96094C12.1721 8.4002 11.9006 7.60338 12.0068 6.81835C12.2429 5.02401 11.6704 3.14704 10.2951 1.76587C8.89031 0.361088 6.96611 -0.205546 5.14226 0.0659659C4.85304 0.107283 4.73499 0.467332 4.94158 0.673917L6.76543 2.49777C7.63309 3.36543 7.63309 4.77021 6.76543 5.63196L5.64397 6.75342C4.77631 7.62108 3.37153 7.62108 2.50978 6.75342L0.68002 4.92957C0.473435 4.72299 0.119289 4.84104 0.0720695 5.13026C-0.199443 6.95411 0.367191 8.8783 1.77197 10.2831C3.15314 11.6583 5.03012 12.2309 6.82446 11.9948Z" fill="#098850"/>
<path d="M18.1689 14.397L16.829 15.7309L24.7855 23.6874C25.0865 23.9884 25.0865 24.4783 24.7855 24.7794C24.4845 25.0804 23.9946 25.0804 23.6936 24.7794L15.7371 16.8229L14.3972 18.1568L22.5957 26.3553C23.6345 27.3941 25.3167 27.3882 26.3556 26.3494C27.3944 25.3106 27.3944 23.6284 26.3615 22.5896L18.1689 14.397Z" fill="#098850"/>
<path d="M21.2439 9.0848H24.7795L28.3151 2.01959L26.5502 0.254761L19.4791 3.78442V7.31998L9.86996 16.8996L8.14054 15.1761L1.17567 22.141C-0.27633 23.593 -0.27633 25.9422 1.17567 27.3942C2.62767 28.8462 4.97684 28.8462 6.42884 27.3942L13.3937 20.4293L11.6289 18.6645L21.2439 9.0848Z" fill="#D12027"/>
</svg>
