<svg width="30" height="28" viewBox="0 0 30 28" fill="none" xmlns="http://www.w3.org/2000/svg">
<path d="M13.6008 16.3813L16.3353 5.65527H19.3843L16.9654 15.1189L24.1161 24.8982L21.3817 27.1063L13.6008 16.3813Z" fill="#0E83C4"/>
<path d="M27.7545 4.31697C23.9887 -1.11346 15.0996 -1.46867 7.8986 3.5242C0.697618 8.51706 -2.08714 16.9666 1.67757 22.397C5.44228 27.8274 14.3325 28.1826 21.5335 23.1897C28.7345 18.1969 31.5192 9.74739 27.7545 4.31697ZM19.5789 20.3236C14.4053 23.823 8.08046 23.5107 5.45083 19.6251C2.82121 15.7395 4.88597 9.75169 10.0596 6.2523C15.2333 2.75291 21.5581 3.06525 24.1877 6.95085C26.8174 10.8364 24.7526 16.8232 19.5789 20.3226V20.3236Z" fill="url(#paint0_linear_218_7337)"/>
<defs>
<linearGradient id="paint0_linear_218_7337" x1="0" y1="13.357" x2="29.4321" y2="13.357" gradientUnits="userSpaceOnUse">
<stop stop-color="#109BF8"/>
<stop offset="1" stop-color="#0E83C4"/>
</linearGradient>
</defs>
</svg>
