<svg width="27" height="27" viewBox="0 0 27 27" fill="none" xmlns="http://www.w3.org/2000/svg">
<path d="M26.5732 11.2549C26.5732 11.2549 27.2938 4.56327 21.117 2.40138C14.9401 0.239477 8.24853 5.18096 5.98368 9.91655C3.71884 14.6521 5.05715 19.5936 9.07211 20.6231C11.7487 21.1378 14.4254 20.6231 16.7932 19.2848C16.7932 19.2848 12.6753 22.5791 8.55737 22.4761C4.43947 22.3732 -0.913806 19.7995 1.45399 11.1519C3.82178 2.50432 18.6462 -5.62853 25.4408 5.18096C26.4702 7.03402 26.882 9.19592 26.5732 11.2549Z" fill="#D12027"/>
<path d="M0.115816 15.2698C0.115816 15.2698 -0.604814 21.9614 5.57204 24.1233C11.7489 26.2852 18.4405 21.3437 20.7053 16.6081C22.9702 11.8725 21.6319 6.93104 17.6169 5.90156C14.9403 5.38682 12.2636 5.90156 9.89584 7.23988C9.89584 7.23988 14.0137 3.94556 18.1316 4.04851C22.2495 4.15145 27.6028 6.72514 25.235 15.3727C22.8672 24.0203 7.83689 32.2561 1.04235 21.4466C0.115817 19.4906 -0.193027 17.3287 0.115816 15.2698Z" fill="#098850"/>
<path d="M22.6613 26.4912L22.2495 26.0794L24.4114 23.9175L24.8232 24.3293C25.235 24.7411 25.235 25.3587 24.8232 25.6676L23.9996 26.4912C23.5878 26.8 22.9701 26.8 22.6613 26.4912Z" fill="#D12027"/>
<path d="M16.7573 20.5429L17.8897 19.4105L18.9192 18.381L24.1696 23.6313L22.0077 25.7932L16.7573 20.5429Z" fill="#D12027"/>
<path d="M18.5299 18.1812L16.5739 20.1372L15.5444 17.1517L18.5299 18.1812Z" fill="#D12027"/>
</svg>
