<svg width="26" height="29" viewBox="0 0 26 29" fill="none" xmlns="http://www.w3.org/2000/svg">
<path d="M25.0739 8.8377L13.753 13.5785C13.6635 13.6232 13.6021 13.7239 13.6021 13.8357V16.9608H16.2296C16.6489 16.9608 16.9844 17.3466 16.9844 17.8218V24.1671C16.9844 24.6423 16.6433 25.028 16.2296 25.028H13.6021V28.4551C13.6021 28.6507 13.7754 28.7905 13.9375 28.7122L24.9174 24.3963C25.2137 24.2621 25.415 23.9323 25.415 23.5633V9.09486C25.415 8.8936 25.2361 8.75943 25.0739 8.8377Z" fill="#098850"/>
<path d="M9.80591 23.9155H12.3329V21.3885H9.80591V23.9155V23.9155ZM10.5942 22.2607H11.4663V23.1328H10.5942V22.2607Z" fill="#D12027"/>
<path d="M9.80591 20.6003H12.3329V18.0734H9.80591V20.6003V20.6003ZM10.5942 18.856H11.4663V19.7282H10.5942V18.856Z" fill="#D12027"/>
<path d="M13.1211 23.9155H13.9932V22.6073H14.3398V23.0434H15.648V21.3885H15.212V21.8246H14.3398V21.3885H13.1211V23.9155Z" fill="#D12027"/>
<path d="M15.648 18.0734H13.1211V20.6003H15.648V18.0734ZM13.9932 19.7282V18.856H14.8654V19.7282H13.9932Z" fill="#D12027"/>
<path d="M18.5049 3.47072L13.1156 0.954953C12.8752 0.843141 12.6012 0.843141 12.3608 0.954953L0.246028 6.63499C0.0279948 6.73562 0.0335855 7.05428 0.257209 7.14373L5.74716 9.4806L18.5049 3.47072Z" fill="#098850"/>
<path d="M25.1688 6.63499L19.4608 3.91797L6.7478 9.8999L12.6235 12.3765C12.6906 12.4045 12.7689 12.4045 12.8415 12.3765L25.1632 7.14374C25.3868 7.0487 25.3924 6.73562 25.1688 6.63499Z" fill="#098850"/>
<path d="M5.45641 11.0571L0.341026 8.88799C0.178899 8.80972 0 8.9439 0 9.14516V23.6192C0 23.9826 0.19567 24.3124 0.497562 24.4522L11.4775 28.8296C11.6396 28.9023 11.8129 28.7681 11.8129 28.5724V25.0895H9.10707C8.68777 25.0895 8.35234 24.7038 8.35234 24.2286V17.8777C8.35234 17.4025 8.69336 17.0167 9.10707 17.0167H11.8129V13.9475C11.8129 13.8357 11.7514 13.735 11.662 13.6903L6.46831 11.4876" fill="#098850"/>
<path d="M5.74146 9.47514L5.74705 9.34656L7.83792 9.43042L7.83233 9.559L5.74146 9.47514Z" fill="#098850"/>
<path d="M8.93086 7.82454L7.66797 9.49097L7.77045 9.56863L9.03334 7.9022L8.93086 7.82454Z" fill="#098850"/>
<path d="M12.0896 6.33564L10.8267 8.00208L10.9291 8.07974L12.192 6.41331L12.0896 6.33564Z" fill="#098850"/>
<path d="M15.2546 4.8542L13.9917 6.52063L14.0942 6.59829L15.3571 4.93186L15.2546 4.8542Z" fill="#098850"/>
<path d="M17.1575 5.03607L17.2581 5.11434L18.5048 3.4707H18.3483L17.1575 5.03607Z" fill="#098850"/>
<path d="M8.92686 7.85323L8.92114 7.98169L11.0099 8.07468L11.0156 7.94622L8.92686 7.85323Z" fill="#098850"/>
<path d="M12.0792 6.36239L12.0735 6.49084L14.1623 6.58383L14.168 6.45538L12.0792 6.36239Z" fill="#098850"/>
<path d="M15.2482 4.87936L15.2424 5.00781L17.3312 5.1008L17.3369 4.97235L15.2482 4.87936Z" fill="#098850"/>
</svg>
