<?xml version="1.0" encoding="utf-8"?>
<!-- Generator: Adobe Illustrator 22.1.0, SVG Export Plug-In . SVG Version: 6.00 Build 0)  -->
<svg version="1.1" id="Layer_1" focusable="false" xmlns="http://www.w3.org/2000/svg" xmlns:xlink="http://www.w3.org/1999/xlink"
	 x="0px" y="0px" viewBox="0 0 512 512" style="enable-background:new 0 0 512 512;" xml:space="preserve">
<style type="text/css">
	.st0{fill:#FFFFFF;}
</style>
<path class="st0" d="M79.2,282.9c-9.6,3.2-17.1,10.7-20.2,20.2L0,480l4.7,4.7l92.9-92.9c-0.7-2.6-1.6-5-1.6-7.8
	c0-17.7,14.3-32,32-32s32,14.3,32,32s-14.3,32-32,32c-2.8,0-5.2-0.9-7.8-1.6l-92.9,92.9L32,512l176.8-58.9
	c9.6-3.2,17.1-10.7,20.2-20.2l33.1-84.1l-98.9-98.9L79.2,282.9z M369.3,28.3L186.1,227.8l97.8,97.9l199.5-183.1
	C568.4,67.5,443.7-55.9,369.3,28.3z"/>
</svg>
