<?xml version="1.0" encoding="utf-8"?>
<!-- Generator: Adobe Illustrator 22.1.0, SVG Export Plug-In . SVG Version: 6.00 Build 0)  -->
<svg version="1.1" id="Layer_1" xmlns="http://www.w3.org/2000/svg" xmlns:xlink="http://www.w3.org/1999/xlink" x="0px" y="0px"
	 viewBox="0 0 481.5 150" style="enable-background:new 0 0 481.5 150;" xml:space="preserve">
<style type="text/css">
	.st0{fill:#FFFFFF;}
	.st1{enable-background:new    ;}
</style>
<g>
	<path class="st0" d="M175.3,62L175.3,62c0,0,0,0-0.1-0.1s-0.1-0.1-0.2-0.2c-0.1-0.1-0.2-0.1-0.3-0.3c-0.8-0.8-1.7-1.5-2.6-2.1
		c-3.9-2.9-11-7.1-19.6-7.2h-4.1c-7.4,0-13.3-6-13.3-13.3l0,0c0-0.1,0-0.2,0-0.3s0-0.2,0-0.3v-0.5l0,0c-0.4-11.8-8.6-21.2-18.8-21.2
		c-10.4,0-18.8,9.8-18.8,22c0,12.1,8.4,22,18.8,22c1.4,0,2.8-0.2,4.2-0.6c4.1-0.5,10.1-1.2,13.2-1.2c8.9,0,10,2.5,10,2.5l0,0
		c-2.2,1.9-4.1,4.3-5.6,6.9l0,0l0,0c-0.8,1.4-1.5,2.9-2.1,4.5v0.1c-0.2,0.4-1.9,4.7-5,14.7c-2,6.5-10.2,6.1-10.2,6.1s-4.9,0-13.8,0
		c-8.8,0-12.4-12.2-12.4-12.3c-5.3-16.6-18.6-29-34.8-29c-20.3,0-36.7,19.2-36.7,42.8s16.4,42.8,36.7,42.8c11.6,0,21.9-6.3,28.7-16
		l0,0c0,0,2.4-4,9.1-9.6c3.4-2.9,7.2-4.8,10-5.8c2.4-0.9,4.9-1.4,7.4-1.4h15.8c4.9,0,9.8,1.7,13.2,3.7c0,0,1.2,0.8,1.6,1.1
		c2.6,1.7,2.6,1.7,4,2.4l0,0l0,0c3,1.4,6.2,2.2,9.6,2.2c14,0,25.4-13.2,25.4-29.6C184.4,75.5,180.8,67.4,175.3,62z M114.2,38.5
		c0-6.8,3.4-12.3,7.6-12.3s7.6,5.5,7.6,12.3s-3.4,12.3-7.6,12.3C117.5,50.8,114.2,45.3,114.2,38.5z M73.2,120.9
		c-8.4,0-15.2-11-15.2-24.7s6.8-24.7,15.2-24.7s15.2,11,15.2,24.7S81.5,120.9,73.2,120.9z M166.8,101.2c-5.6,0-10.2-7.4-10.2-16.6
		S161.2,68,166.8,68S177,75.5,177,84.6S172.4,101.2,166.8,101.2z"/>
</g>
<g class="st1">
	<path class="st0" d="M216.4,108.7h-9.8V64.4c6.3-0.2,10.2-0.3,11.8-0.3c6.5,0,11.6,1.9,15.3,5.7c3.8,3.8,5.7,8.8,5.7,15
		C239.4,100.7,231.7,108.7,216.4,108.7z M214.4,71.3v30.2c1.3,0.1,2.6,0.2,4.1,0.2c4,0,7.1-1.4,9.3-4.3c2.2-2.9,3.4-6.9,3.4-12.1
		c0-9.5-4.4-14.2-13.2-14.2C217.2,71.1,216,71.1,214.4,71.3z"/>
	<path class="st0" d="M286.7,108.7H279l-4.6-23.9l-8.9,24.5h-2.8l-8.9-24.5l-4.8,23.9h-7.6l8.9-44.3h4.2l9.6,29.8l9.4-29.8h4.1
		L286.7,108.7z"/>
	<path class="st0" d="M288.4,106.2l2.9-7c3.1,2.2,6.2,3.3,9.2,3.3c4.6,0,6.9-1.6,6.9-4.8c0-1.5-0.5-3-1.6-4.3s-3.3-2.9-6.7-4.6
		c-3.4-1.7-5.7-3.1-6.9-4.2c-1.2-1.1-2.1-2.4-2.7-3.9c-0.6-1.5-1-3.2-1-5c0-3.4,1.3-6.3,3.8-8.5s5.7-3.4,9.7-3.4
		c5.1,0,8.9,1,11.3,2.9l-2.4,6.8c-2.8-2-5.7-3-8.7-3c-1.8,0-3.2,0.5-4.2,1.4c-1,1-1.5,2.2-1.5,3.7c0,2.5,2.8,5.2,8.4,7.9
		c3,1.5,5.1,2.8,6.4,4c1.3,1.2,2.3,2.6,3,4.3c0.7,1.6,1,3.4,1,5.4c0,3.6-1.4,6.5-4.2,8.9c-2.8,2.3-6.6,3.5-11.4,3.5
		C295.4,109.4,291.7,108.4,288.4,106.2z"/>
	<path class="st0" d="M345.3,107.9v13.5h-7.6V76.3h7.6v2.2c1.9-1.9,4.2-2.8,7-2.8c10.3,0,15.5,5.7,15.5,17.1c0,5.3-1.4,9.4-4.3,12.2
		c-2.9,2.9-6.8,4.3-11.7,4.3C349.5,109.3,347.3,108.8,345.3,107.9z M345.3,84.2v17c1.4,1.1,3,1.7,4.8,1.7c3.5,0,6-0.8,7.5-2.5
		c1.5-1.7,2.3-4.3,2.3-7.9c0-3.8-0.8-6.5-2.3-8.1c-1.5-1.6-4-2.3-7.5-2.3C348.4,82.1,346.8,82.8,345.3,84.2z"/>
	<path class="st0" d="M374.8,64.2l7.6-1.8v36.4c0,4,1.2,6.4,3.6,7.1c-1.2,2.2-3.2,3.3-6,3.3c-3.4,0-5.1-2.4-5.1-7.1V64.2z"/>
	<path class="st0" d="M411.6,108.7V106c-1.1,0.9-2.5,1.7-4.4,2.3c-1.9,0.6-3.6,1-5.2,1c-7.5,0-11.3-4-11.3-12v-21h7.6v20.4
		c0,4.2,1.9,6.2,5.6,6.2c1.7,0,3.3-0.4,4.8-1.3c1.5-0.9,2.4-1.9,2.9-3.1V76.3h7.6v32.4H411.6z"/>
	<path class="st0" d="M424.4,106.6l2.7-6c2.3,1.8,4.8,2.7,7.7,2.7c2.9,0,4.4-1,4.4-3.1c0-1.2-0.4-2.2-1.3-3
		c-0.9-0.8-2.6-1.7-5.2-2.8c-5.6-2.3-8.4-5.6-8.4-9.7c0-2.8,1.1-5,3.2-6.5s4.9-2.3,8.2-2.3c3.4,0,6.5,0.8,9.5,2.3l-2.2,5.9
		c-1.7-1.4-4-2.1-6.9-2.1c-2.6,0-4,1-4,3.1c0,0.8,0.4,1.6,1.3,2.2s2.7,1.6,5.6,2.7s4.9,2.5,6.1,4.1c1.3,1.6,1.9,3.5,1.9,5.8
		c0,3-1.1,5.4-3.3,7.1c-2.2,1.7-5.3,2.6-9.1,2.6c-2.2,0-3.9-0.2-5.2-0.5C428.1,108.4,426.4,107.7,424.4,106.6z"/>
</g>
</svg>
