<?xml version="1.0" encoding="utf-8"?>
<!-- Generator: Adobe Illustrator 22.1.0, SVG Export Plug-In . SVG Version: 6.00 Build 0)  -->
<svg version="1.1" id="Layer_1" xmlns="http://www.w3.org/2000/svg" xmlns:xlink="http://www.w3.org/1999/xlink" x="0px" y="0px"
	 viewBox="0 0 111.4 21" style="enable-background:new 0 0 111.4 21;" xml:space="preserve">
<style type="text/css">
	.st0{fill:#014632;}
</style>
<g id="inventory.white" transform="translate(-28 -12)">
	<path id="Rectangle_14236" class="st0" d="M35,12h7c0.6,0,1,0.4,1,1v7c0,0.6-0.4,1-1,1h-7c-0.6,0-1-0.4-1-1v-7
		C34,12.4,34.4,12,35,12z"/>
	<path id="Rectangle_14237" class="st0" d="M29,24h7c0.6,0,1,0.4,1,1v7c0,0.6-0.4,1-1,1h-7c-0.6,0-1-0.4-1-1v-7
		C28,24.4,28.4,24,29,24z"/>
	<path id="Rectangle_14238" class="st0" d="M41,24h7c0.6,0,1,0.4,1,1v7c0,0.6-0.4,1-1,1h-7c-0.6,0-1-0.4-1-1v-7
		C40,24.4,40.4,24,41,24z"/>
	<path id="Path_12055" class="st0" d="M54.8,22.1h2.3v10.7h-2.3V22.1z M66.3,22.1h2.3v10.7h-2.2l-4.9-6.9v6.9h-2.3V22.1h2.3l4.9,6.9
		V22.1z M69.9,22.1h2.3l2.7,7.1l2.7-7.1H80l-4.1,10.7h-2L69.9,22.1z M81.4,22.1h6v2.1h-3.7v2.2h3.7v2.1h-3.7v2.2h3.7v2.1h-6V22.1z
		 M96.5,22.1h2.3v10.7h-2.3l-4.9-6.9v6.9h-2.3V22.1h2.3l4.9,6.9V22.1z M100.2,22.1h7.2v2.3h-2.5v8.4h-2.3v-8.4h-2.4L100.2,22.1z
		 M108.6,27.5c0-1.5,0.5-2.9,1.6-3.9c1-1,2.3-1.6,3.7-1.5c1.5,0,2.9,0.5,3.9,1.6c1,1,1.6,2.5,1.6,3.9c0,1.5-0.5,2.9-1.5,3.9
		c-1,1-2.4,1.6-3.9,1.6c-1.4,0-2.8-0.5-3.9-1.6C109.1,30.4,108.5,28.9,108.6,27.5L108.6,27.5z M114,24.1c-0.8,0-1.6,0.3-2.2,0.9
		c-0.6,0.7-0.9,1.6-0.8,2.5c0,0.9,0.3,1.7,0.8,2.4c0.5,0.6,1.3,1,2.1,0.9c0.8,0,1.6-0.3,2.2-0.9c0.6-0.7,0.9-1.6,0.8-2.4
		c0-0.9-0.2-1.7-0.8-2.4C115.6,24.5,114.8,24.1,114,24.1L114,24.1z M121.3,22.1h3.5c0.9-0.1,1.8,0.3,2.5,0.8c0.6,0.6,1,1.4,0.9,2.3
		c0,0.6-0.2,1.2-0.4,1.7c-0.3,0.6-0.9,1.1-1.6,1.4l3,4.5h-2.7l-2.8-4.1h-0.3v4.1h-2.3L121.3,22.1z M123.6,24v2.8h0.5
		c1.2,0,1.8-0.5,1.8-1.5c0-0.4-0.2-0.7-0.5-1c-0.4-0.3-0.8-0.4-1.3-0.4H123.6z M130.2,22.1h2.6l2,3.3l2-3.3h2.6l-3.4,5.7v5h-2.3v-5
		L130.2,22.1z"/>
</g>
</svg>
