<svg xmlns="http://www.w3.org/2000/svg" width="111.353" height="21" viewBox="0 0 111.353 21">
  <g id="inventory.white" transform="translate(-28 -12)">
    <rect id="Rectangle_14236" data-name="Rectangle 14236" width="9" height="9" rx="1" transform="translate(34 12)" fill="#fff"/>
    <rect id="Rectangle_14237" data-name="Rectangle 14237" width="9" height="9" rx="1" transform="translate(28 24)" fill="#fff"/>
    <rect id="Rectangle_14238" data-name="Rectangle 14238" width="9" height="9" rx="1" transform="translate(40 24)" fill="#fff"/>
    <path id="Path_12055" data-name="Path 12055" d="M2.092-23.212H4.4v10.724H2.092Zm11.549,0H15.9v10.724H13.652l-4.9-6.943v6.943H6.437V-23.212H8.723l4.918,6.894Zm3.537,0h2.34l2.712,7.13,2.717-7.13h2.343l-4.06,10.724H21.222Zm11.516,0H34.73v2.124H31.006v2.164H34.73v2.091H31.006v2.222H34.73v2.124H28.694Zm15.086,0h2.262v10.724H43.791l-4.9-6.943v6.943H36.576V-23.212h2.286l4.918,6.894Zm3.684,0h7.212v2.279H52.217v8.445H49.906v-8.445H47.463Zm8.4,5.358a5.274,5.274,0,0,1,1.572-3.925,5.135,5.135,0,0,1,3.729-1.548,5.354,5.354,0,0,1,3.945,1.556,5.323,5.323,0,0,1,1.56,3.933,5.346,5.346,0,0,1-1.544,3.921,5.242,5.242,0,0,1-3.888,1.56,5.162,5.162,0,0,1-3.859-1.552A5.414,5.414,0,0,1,55.86-17.854Zm5.407-3.332a2.662,2.662,0,0,0-2.173.931,3.64,3.64,0,0,0-.825,2.467,3.417,3.417,0,0,0,.841,2.369,2.728,2.728,0,0,0,2.124.939,2.781,2.781,0,0,0,2.177-.927,3.532,3.532,0,0,0,.829-2.446,3.462,3.462,0,0,0-.813-2.4A2.833,2.833,0,0,0,61.267-21.186Zm7.3-2.026H72.1a3.65,3.65,0,0,1,2.547.849,2.943,2.943,0,0,1,.936,2.294,3.938,3.938,0,0,1-.43,1.714,2.989,2.989,0,0,1-1.583,1.4l3,4.471H73.917l-2.775-4.149H70.88v4.149H68.569ZM70.9-21.3v2.793h.5q1.811,0,1.811-1.478a1.139,1.139,0,0,0-.471-.96,2.129,2.129,0,0,0-1.307-.355Zm6.632-1.911h2.56l1.979,3.325,2.007-3.325h2.569L83.23-17.5v5.015H80.943V-17.5Z" transform="translate(52.708 45.319)" fill="#fff"/>
  </g>
</svg>
