<?xml version="1.0" encoding="utf-8"?>
<!-- Generator: Adobe Illustrator 22.1.0, SVG Export Plug-In . SVG Version: 6.00 Build 0)  -->
<svg version="1.1" id="Layer_1" xmlns="http://www.w3.org/2000/svg" xmlns:xlink="http://www.w3.org/1999/xlink" x="0px" y="0px"
	 viewBox="0 0 1362.9 512" style="enable-background:new 0 0 1362.9 512;" xml:space="preserve">
<style type="text/css">
	.st0{fill:#098850;}
	.st1{fill:#383838;}
</style>
<path class="st0" d="M0,0"/>
<path class="st0" d="M0,0"/>
<g>
	<path class="st0" d="M477.2,148.3l-202.5,84.8c-1.6,0.8-2.7,2.6-2.7,4.6v55.9h47c7.5,0,13.5,6.9,13.5,15.4v113.5
		c0,8.5-6.1,15.4-13.5,15.4h-47v61.3c0,3.5,3.1,6,6,4.6l196.4-77.2c5.3-2.4,8.9-8.3,8.9-14.9V152.9
		C483.3,149.3,480.1,146.9,477.2,148.3z"/>
	<path id="Path_14144_6_" class="st0" d="M204.1,418h45.2v-45.2h-45.2V418z M218.2,388.4h15.6V404h-15.6V388.4z"/>
	<path id="Path_14145_6_" class="st0" d="M204.1,358.7h45.2v-45.2h-45.2V358.7z M218.2,327.5h15.6v15.6h-15.6V327.5z"/>
	<path id="Path_14146_6_" class="st0" d="M263.4,418H279v-23.4h6.2v7.8h23.4v-29.6h-7.8v7.8h-15.6v-7.8h-21.8L263.4,418L263.4,418z"
		/>
	<path id="Path_14147_6_" class="st0" d="M308.6,313.5h-45.2v45.2h45.2V313.5z M279,343.1v-15.6h15.6v15.6H279z"/>
	<g>
		<path class="st0" d="M359.7,52.3l-96.4-45c-4.3-2-9.2-2-13.5,0L33.1,108.9c-3.9,1.8-3.8,7.5,0.2,9.1l98.2,41.8L359.7,52.3z"/>
		<path class="st0" d="M478.9,108.9L376.8,60.3l-227.4,107l105.1,44.3c1.2,0.5,2.6,0.5,3.9,0L478.8,118
			C482.8,116.3,482.9,110.7,478.9,108.9z"/>
	</g>
	<path class="st0" d="M126.3,188l-91.5-38.8c-2.9-1.4-6.1,1-6.1,4.6v258.9c0,6.5,3.5,12.4,8.9,14.9L234,505.9c2.9,1.3,6-1.1,6-4.6
		V439h-48.4c-7.5,0-13.5-6.9-13.5-15.4V310c0-8.5,6.1-15.4,13.5-15.4H240v-54.9c0-2-1.1-3.8-2.7-4.6l-92.9-39.4"/>
	<path id="Path_14149_1_" class="st0" d="M640.3,377.9c5-5.9,8.4-12.9,9.9-20.5c2.2-9,3.2-18.3,3.2-27.6c0-9.3-1.1-18.6-3.4-27.6
		c-1.6-7.6-5-14.7-9.8-20.7c-4.3-4.7-9.6-8.3-15.6-10.4c-6.2-2.3-12.7-3.5-19.3-3.5c-6.7,0-13.3,1.2-19.6,3.5
		c-6,2.1-11.4,5.7-15.6,10.4c-4.8,6-8.2,13.1-9.8,20.7c-2.3,9-3.4,18.3-3.4,27.6c0,9.3,1.1,18.6,3.2,27.6c1.5,7.6,5,14.7,9.9,20.7
		c4.3,4.7,9.6,8.3,15.6,10.5c6.3,2.4,12.9,3.6,19.6,3.6c6.6,0,13.2-1.2,19.3-3.6c6-2.2,11.3-5.8,15.6-10.5L640.3,377.9z
		 M654.7,412.4c-3.9,1.7-7.8,3.2-11.8,4.5c-3.6,1.1-7.3,2-11,2.7c-5,1.2-10.1,1.9-15.3,2.2c-5.8,0.3-11.7,0.3-17.5,0
		c-1.8,0-3.6-0.1-5.5-0.2l-5.5-0.5c-10.6-1.2-20.9-3.8-30.8-7.8c-9.9-4-18.4-10.8-24.6-19.5c-6.1-9.2-10.5-19.4-12.9-30.2
		c-3-12.2-4.3-24.7-3.9-37.2c0.3-16,3.5-31.8,9.6-46.6c5.2-13.8,15.3-25.1,28.4-31.7c7.1-3.5,14.7-6.1,22.4-7.8
		c7.8-1.7,15.7-2.7,23.7-2.9c4.6-0.2,9.3-0.1,13.9,0.2c4.6,0.3,9.2,0.8,13.6,1.5c13,1.7,25.5,6.4,36.3,13.8
		c10.5,7.7,18.5,18.5,22.7,30.9c2.6,6.8,4.4,13.8,5.6,21c1.3,7.5,2,15.1,2.2,22.7c0,7.3-0.4,14.6-1.2,21.8
		c-0.8,6.8-2.1,13.5-3.9,20.1c-1.1,4.1-2.6,8-4.5,11.8s-3.9,7.5-6.2,11l27,26.5h-44.9L654.7,412.4z M719.5,240.5h92.3
		c1.8,0.2,3.6,0.2,5.3,0.2s3.5,0.1,5.3,0.2c6.8,0.3,13.4,1.4,20,3.2c6.5,1.8,12.5,5.3,17.2,10.2c4.4,4.2,7.8,9.4,10,15.1
		s3.6,11.7,4.1,17.9c0,1.2,0,2.3,0.1,3.5s0.1,2.3,0.1,3.5c0.5,11.3-2.5,22.5-8.6,32.1c-6.4,9.4-16.2,15.8-27.4,18l44.4,74.2h-42.2
		l-39.1-70h-44.1v69.9h-37.4V240.5z M802.8,272.2h-45.9v44.9h45.9c0.3,0.2,0.7,0.2,1,0.2h1c7.4,0.1,14.7-1.1,21.7-3.6
		c6.5-2.4,9.7-8.7,9.6-19c0-10.6-3.4-16.9-10.3-19.1c-7.4-2.2-15.2-3.3-22.9-3.2L802.8,272.2z"/>
	<path id="Path_14150_1_" class="st1" d="M954.5,316.7h-21V391c1.6,0.2,3.3,0.3,5.1,0.4c1.7,0.1,3.4,0.1,5.1,0.1
		c10.8,0.4,21.5-0.5,32.1-2.7c9.8-2.1,15.4-10.6,16.7-25.5c0.2-2,0.3-4,0.4-6.1c0.1-2.1,0.1-4.1,0.1-6.1c-0.2-3.6-0.7-7.1-1.5-10.6
		c-0.8-3.4-2.1-6.7-3.9-9.7c-2.7-5.8-7.8-10.1-14-11.8c-6.2-1.4-12.6-2-18.9-2L954.5,316.7z M933.5,241.1v47.3h29.7
		c9.6,0.1,19.2,1.4,28.5,3.9c9.3,2.8,17.5,8.5,23.2,16.4c5.4,6.8,9.2,14.6,11.4,22.9c2.1,8.4,3,17,2.5,25.6
		c0.1,16.8-6.2,32.9-17.7,45.2c-12.3,11.5-28.9,17.4-45.7,16.5H899V241.1H933.5z M1160.5,403.3c-6.4,6.3-14.1,11.1-22.7,13.9
		c-8.8,3-18.1,4.5-27.4,4.5s-18.5-1.5-27.2-4.5c-8.4-2.8-16.1-7.4-22.5-13.6c-6.5-6.3-11.4-14-14.5-22.5c-3.2-8.6-4.9-17.8-4.9-27
		s1.6-18.4,4.9-27c3.1-8.5,8-16.2,14.5-22.5c6.5-6.2,14.2-10.9,22.7-13.8c8.8-3.1,18.1-4.6,27.4-4.6c9.2,0,18.4,1.6,27.1,4.6
		c8.5,2.8,16.2,7.5,22.7,13.7c6.5,6.3,11.4,14,14.5,22.5c3.2,8.6,4.8,17.8,4.8,27s-1.6,18.4-4.8,27c-3.1,8.5-8,16.2-14.5,22.5
		L1160.5,403.3L1160.5,403.3z M1098.9,391.2c1.1,0.5,2.2,0.9,3.3,1.2c1,0.3,2.1,0.6,3.1,0.7c7.7,1.2,15.7-0.4,22.3-4.5
		c6.8-4,11.8-10.5,13.8-18.1c0.9-3,1.5-6,1.9-9c0.4-3.2,0.6-6.5,0.6-9.8c-0.3-7.2-2.1-14.2-5.3-20.7c-3.1-6.5-8.4-11.5-15-14.2
		c-1.5-0.7-3.1-1.2-4.7-1.5s-3.2-0.6-4.7-0.7c-7.5-0.7-15,1.2-21.3,5.3c-6.4,3.9-11.2,10.1-13.3,17.3c-0.8,2.9-1.5,5.8-1.9,8.8
		s-0.5,6-0.4,9c0.1,7.6,1.9,15.1,5.3,21.9c3.3,6.8,9.1,12,16.2,14.5L1098.9,391.2L1098.9,391.2z M1234.8,353.8l-48.5-65.4h40.1
		l28,39.4l28.7-39.4h39.6l-48.3,66.1l47.6,64.4h-40.2l-27.4-37.9l-27.8,37.9h-39.9L1234.8,353.8z"/>
	<g>
		<polygon class="st0" points="131.4,159.7 131.5,157.4 168.9,158.9 168.8,161.2 		"/>
		
			<rect x="159.4" y="144.7" transform="matrix(0.604 -0.797 0.797 0.604 -45.7041 199.6485)" class="st0" width="37.4" height="2.3"/>
		<rect x="215.9" y="118" transform="matrix(0.604 -0.797 0.797 0.604 -2.0837 234.1913)" class="st0" width="37.4" height="2.3"/>
		<rect x="272.5" y="91.5" transform="matrix(0.604 -0.797 0.797 0.604 41.4591 268.7931)" class="st0" width="37.4" height="2.3"/>
		<polygon class="st0" points="335.6,80.3 337.4,81.7 359.7,52.3 356.9,52.3 		"/>
		
			<rect x="205.8" y="114" transform="matrix(4.447342e-02 -0.999 0.999 4.447342e-02 65.1898 333.4953)" class="st0" width="2.3" height="37.4"/>
		
			<rect x="262.3" y="87.3" transform="matrix(4.447342e-02 -0.999 0.999 4.447342e-02 145.8113 364.502)" class="st0" width="2.3" height="37.4"/>
		
			<rect x="318.9" y="60.7" transform="matrix(4.447342e-02 -0.999 0.999 4.447342e-02 226.4961 395.6718)" class="st0" width="2.3" height="37.4"/>
	</g>
</g>
</svg>
